<svg width="337" height="205" viewBox="0 0 337 205" fill="none" xmlns="http://www.w3.org/2000/svg">
<g clip-path="url(#clip0)">
<path d="M224.645 41.022H75.1211V190.781H224.645V41.022Z" fill="#F6F6F6"/>
<path d="M224.524 18.4783V42.0871H75V18.4783C74.9999 16.241 75.8856 14.0943 77.4641 12.5062C79.0425 10.9181 81.1858 10.0172 83.4266 10H216.032C218.279 10.0171 220.429 10.9158 222.018 12.5021C223.606 14.0884 224.507 16.235 224.524 18.4783Z" fill="#6A3024"/>
<path d="M201.455 30.6522C205.352 30.6522 208.51 27.4987 208.51 23.6087C208.51 19.7187 205.352 16.5652 201.455 16.5652C197.559 16.5652 194.4 19.7187 194.4 23.6087C194.4 27.4987 197.559 30.6522 201.455 30.6522Z" fill="white"/>
<path d="M201.455 26.2175C201.987 26.2175 202.514 26.1129 203.005 25.9097C203.497 25.7065 203.943 25.4087 204.319 25.0332C204.695 24.6578 204.993 24.212 205.197 23.7214C205.401 23.2308 205.505 22.705 205.505 22.174V4.0435C205.505 2.9711 205.079 1.94262 204.319 1.18431C203.56 0.42601 202.529 0 201.455 0C200.381 0 199.351 0.42601 198.591 1.18431C197.832 1.94262 197.405 2.9711 197.405 4.0435V22.174C197.405 22.705 197.51 23.2308 197.714 23.7214C197.917 24.212 198.215 24.6578 198.591 25.0332C198.968 25.4087 199.414 25.7065 199.905 25.9097C200.397 26.1129 200.923 26.2175 201.455 26.2175Z" fill="#FFCB2D"/>
<path d="M151.81 30.6522C155.706 30.6522 158.865 27.4987 158.865 23.6087C158.865 19.7187 155.706 16.5652 151.81 16.5652C147.914 16.5652 144.755 19.7187 144.755 23.6087C144.755 27.4987 147.914 30.6522 151.81 30.6522Z" fill="white"/>
<path d="M151.81 27.2175C152.342 27.2175 152.869 27.1129 153.36 26.9097C153.851 26.7065 154.298 26.4087 154.674 26.0332C155.05 25.6578 155.348 25.212 155.552 24.7214C155.755 24.2308 155.86 23.705 155.86 23.174V5.0435C155.86 3.9711 155.433 2.94262 154.674 2.18431C153.914 1.42601 152.884 1 151.81 1C150.736 1 149.706 1.42601 148.946 2.18431C148.187 2.94262 147.76 3.9711 147.76 5.0435V23.174C147.76 23.705 147.865 24.2308 148.068 24.7214C148.272 25.212 148.57 25.6578 148.946 26.0332C149.322 26.4087 149.769 26.7065 150.26 26.9097C150.752 27.1129 151.278 27.2175 151.81 27.2175Z" fill="#FFCB2D"/>
<path d="M102.165 30.6522C106.061 30.6522 109.22 27.4987 109.22 23.6087C109.22 19.7187 106.061 16.5652 102.165 16.5652C98.2684 16.5652 95.1099 19.7187 95.1099 23.6087C95.1099 27.4987 98.2684 30.6522 102.165 30.6522Z" fill="white"/>
<path d="M102.165 26.2175C102.697 26.2175 103.223 26.1129 103.715 25.9097C104.206 25.7065 104.652 25.4087 105.029 25.0332C105.405 24.6577 105.703 24.212 105.906 23.7214C106.11 23.2308 106.215 22.705 106.215 22.174V4.0435C106.215 2.9711 105.788 1.94262 105.029 1.18431C104.269 0.42601 103.239 0 102.165 0V0C101.091 0 100.06 0.42601 99.301 1.18431C98.5414 1.94262 98.1147 2.9711 98.1147 4.0435V22.174C98.1147 22.705 98.2195 23.2308 98.423 23.7214C98.6266 24.212 98.9249 24.6577 99.301 25.0332C99.677 25.4087 100.124 25.7065 100.615 25.9097C101.106 26.1129 101.633 26.2175 102.165 26.2175Z" fill="#FFCB2D"/>
<path d="M174.085 93.457H202.5V65.0743H174.085V93.457Z" stroke="#F0E0DF" stroke-width="2.21317" stroke-miterlimit="10"/>
<path d="M136.263 93.457H164.679V65.0743H136.263V93.457Z" stroke="#F0E0DF" stroke-width="2.21317" stroke-miterlimit="10"/>
<path d="M98.4413 93.457H126.857V65.0743H98.4413V93.457Z" stroke="#F0E0DF" stroke-width="2.21317" stroke-miterlimit="10"/>
<path d="M174.085 129.457H202.5V101.075H174.085V129.457Z" stroke="#F0E0DF" stroke-width="2.21317" stroke-miterlimit="10"/>
<path d="M136.263 129.457H164.679V101.075H136.263V129.457Z" stroke="#F0E0DF" stroke-width="2.21317" stroke-miterlimit="10"/>
<path d="M98.4413 129.457H126.857V101.075H98.4413V129.457Z" fill="#184042"/>
<path d="M108.697 111.261L116.601 119.348" stroke="white" stroke-width="2.01737" stroke-miterlimit="10"/>
<path d="M116.601 111.261L108.697 119.348" stroke="white" stroke-width="2.01737" stroke-miterlimit="10"/>
<path d="M174.085 165.458H202.5V137.075H174.085V165.458Z" stroke="#F0E0DF" stroke-width="2.21317" stroke-miterlimit="10"/>
<path d="M136.263 165.458H164.679V137.075H136.263V165.458Z" stroke="#F0E0DF" stroke-width="2.21317" stroke-miterlimit="10"/>
<path d="M98.4413 165.458H126.857V137.075H98.4413V165.458Z" stroke="#F0E0DF" stroke-width="2.21317" stroke-miterlimit="10"/>
<path d="M222.097 92.0874H208.249V101.185H222.097V92.0874Z" fill="#FFA80A"/>
<path d="M224.188 94.4354H206.093C205.106 94.4354 204.159 94.0438 203.46 93.3466C202.762 92.6495 202.37 91.7039 202.37 90.718C202.361 90.2274 202.451 89.74 202.635 89.285C202.819 88.83 203.093 88.4167 203.441 88.0697C203.788 87.7227 204.202 87.4492 204.658 87.2656C205.114 87.0819 205.602 86.9918 206.093 87.0006H224.188C225.175 87.0006 226.122 87.3923 226.82 88.0894C227.519 88.7866 227.911 89.7321 227.911 90.718C227.894 91.6987 227.496 92.6345 226.802 93.3281C226.107 94.0216 225.17 94.4187 224.188 94.4354Z" fill="#FFCB2D"/>
<path d="M181.608 105.908L173.802 113.701L179.303 119.194L187.11 111.4L181.608 105.908Z" fill="#FFA80A"/>
<path d="M184.079 105.588L173.171 116.414C172.909 116.676 172.599 116.884 172.257 117.026C171.915 117.168 171.548 117.241 171.178 117.241C170.808 117.241 170.441 117.168 170.099 117.026C169.757 116.884 169.447 116.676 169.186 116.414C168.923 116.153 168.715 115.843 168.572 115.502C168.43 115.16 168.357 114.794 168.357 114.425C168.357 114.055 168.43 113.689 168.572 113.347C168.715 113.006 168.923 112.696 169.186 112.435L180.095 101.609C180.356 101.347 180.666 101.139 181.008 100.997C181.35 100.855 181.717 100.782 182.087 100.782C182.457 100.782 182.824 100.855 183.166 100.997C183.508 101.139 183.818 101.347 184.079 101.609C184.58 102.151 184.858 102.861 184.858 103.598C184.858 104.336 184.58 105.046 184.079 105.588Z" fill="#FFCB2D"/>
<path d="M214.977 190.632C240.808 190.632 261.748 169.725 261.748 143.936C261.748 118.146 240.808 97.2397 214.977 97.2397C189.146 97.2397 168.206 118.146 168.206 143.936C168.206 169.725 189.146 190.632 214.977 190.632Z" fill="#6A3024"/>
<path d="M214.977 188.088C239.401 188.088 259.201 168.32 259.201 143.936C259.201 119.551 239.401 99.7832 214.977 99.7832C190.553 99.7832 170.754 119.551 170.754 143.936C170.754 168.32 190.553 188.088 214.977 188.088Z" fill="#184042"/>
<path d="M214.977 183.131C236.659 183.131 254.236 165.583 254.236 143.936C254.236 122.288 236.659 104.74 214.977 104.74C193.295 104.74 175.718 122.288 175.718 143.936C175.718 165.583 193.295 183.131 214.977 183.131Z" fill="#F6F6F6"/>
<path d="M215.173 113.609C214.907 113.593 214.658 113.475 214.476 113.282C214.294 113.088 214.193 112.832 214.193 112.566V110.283C214.193 110.024 214.296 109.775 214.48 109.591C214.664 109.408 214.913 109.305 215.173 109.305C215.433 109.305 215.682 109.408 215.866 109.591C216.05 109.775 216.153 110.024 216.153 110.283V112.566C216.153 112.832 216.052 113.088 215.87 113.282C215.688 113.475 215.439 113.593 215.173 113.609Z" fill="#F8744E"/>
<path d="M215.173 179.088C214.907 179.071 214.658 178.954 214.476 178.76C214.294 178.566 214.193 178.31 214.193 178.045V175.762C214.193 175.503 214.296 175.254 214.48 175.07C214.664 174.887 214.913 174.784 215.173 174.784C215.433 174.784 215.682 174.887 215.866 175.07C216.05 175.254 216.153 175.503 216.153 175.762V178.045C216.153 178.31 216.052 178.566 215.87 178.76C215.688 178.954 215.439 179.071 215.173 179.088Z" fill="#F8744E"/>
<path d="M192.833 122.805C192.702 122.812 192.57 122.792 192.447 122.747C192.323 122.703 192.21 122.634 192.114 122.544L190.481 120.914C190.369 120.83 190.276 120.722 190.209 120.599C190.141 120.476 190.102 120.34 190.092 120.2C190.082 120.061 190.102 119.92 190.151 119.789C190.2 119.658 190.277 119.538 190.376 119.439C190.475 119.34 190.595 119.264 190.726 119.215C190.858 119.166 190.998 119.145 191.138 119.155C191.278 119.165 191.415 119.205 191.538 119.272C191.661 119.339 191.769 119.432 191.853 119.544L193.486 121.175C193.583 121.26 193.661 121.366 193.715 121.484C193.768 121.602 193.796 121.73 193.796 121.859C193.796 121.989 193.768 122.117 193.715 122.235C193.661 122.353 193.583 122.458 193.486 122.544C193.4 122.629 193.298 122.695 193.185 122.74C193.073 122.785 192.953 122.807 192.833 122.805Z" fill="#F8744E"/>
<path d="M239.146 169.11C239.026 169.111 238.906 169.089 238.794 169.045C238.682 169 238.579 168.933 238.493 168.849L236.86 167.218C236.676 167.025 236.574 166.768 236.574 166.501C236.574 166.234 236.676 165.977 236.86 165.784C237.056 165.63 237.297 165.547 237.546 165.547C237.795 165.547 238.036 165.63 238.232 165.784L239.865 167.479C239.962 167.565 240.04 167.67 240.094 167.788C240.147 167.906 240.175 168.035 240.175 168.164C240.175 168.294 240.147 168.422 240.094 168.54C240.04 168.658 239.962 168.763 239.865 168.849C239.769 168.938 239.656 169.007 239.532 169.052C239.409 169.097 239.278 169.117 239.146 169.11Z" fill="#F8744E"/>
<path d="M191.134 169.11C191.013 169.111 190.894 169.089 190.781 169.045C190.669 169 190.567 168.933 190.481 168.849C190.384 168.763 190.306 168.658 190.252 168.54C190.199 168.422 190.171 168.294 190.171 168.164C190.171 168.035 190.199 167.906 190.252 167.788C190.306 167.67 190.384 167.565 190.481 167.479L192.114 165.784C192.31 165.63 192.551 165.547 192.8 165.547C193.049 165.547 193.29 165.63 193.486 165.784C193.67 165.977 193.772 166.234 193.772 166.501C193.772 166.768 193.67 167.025 193.486 167.218L191.853 168.849C191.757 168.938 191.643 169.007 191.52 169.052C191.397 169.097 191.265 169.117 191.134 169.11Z" fill="#F8744E"/>
<path d="M237.513 122.805C237.392 122.811 237.271 122.79 237.158 122.745C237.046 122.7 236.944 122.632 236.86 122.544C236.681 122.361 236.58 122.115 236.58 121.859C236.58 121.603 236.681 121.357 236.86 121.174L238.493 119.544C238.682 119.403 238.915 119.334 239.151 119.351C239.386 119.368 239.607 119.468 239.774 119.635C239.941 119.801 240.042 120.022 240.059 120.257C240.075 120.492 240.007 120.725 239.865 120.914L238.232 122.544C238.136 122.633 238.023 122.703 237.899 122.747C237.776 122.792 237.645 122.812 237.513 122.805Z" fill="#F8744E"/>
<path d="M183.557 145.175H181.205C180.945 145.175 180.696 145.072 180.512 144.888C180.329 144.705 180.225 144.456 180.225 144.197C180.225 143.937 180.329 143.688 180.512 143.505C180.696 143.321 180.945 143.218 181.205 143.218H183.557C183.817 143.218 184.066 143.321 184.25 143.505C184.433 143.688 184.537 143.937 184.537 144.197C184.537 144.456 184.433 144.705 184.25 144.888C184.066 145.072 183.817 145.175 183.557 145.175Z" fill="#F8744E"/>
<path d="M249.141 145.175H246.789C246.529 145.175 246.28 145.072 246.096 144.888C245.913 144.705 245.809 144.456 245.809 144.197C245.809 143.937 245.913 143.688 246.096 143.505C246.28 143.321 246.529 143.218 246.789 143.218H249.141C249.401 143.218 249.65 143.321 249.834 143.505C250.017 143.688 250.121 143.937 250.121 144.197C250.121 144.456 250.017 144.705 249.834 144.888C249.65 145.072 249.401 145.175 249.141 145.175Z" fill="#F8744E"/>
<path d="M217.525 143.805H212.821V123.392C212.821 122.769 213.069 122.172 213.51 121.732C213.951 121.292 214.549 121.044 215.173 121.044C215.797 121.044 216.395 121.292 216.836 121.732C217.277 122.172 217.525 122.769 217.525 123.392V143.805Z" fill="#6A3024"/>
<path d="M215.173 149.218C218.167 149.218 220.595 146.795 220.595 143.805C220.595 140.816 218.167 138.392 215.173 138.392C212.179 138.392 209.751 140.816 209.751 143.805C209.751 146.795 212.179 149.218 215.173 149.218Z" fill="#6A3024"/>
<path d="M53.6953 95.2832L62.2526 132.914C62.521 134.646 62.3306 136.419 61.7003 138.055C61.07 139.691 60.0218 141.134 58.6598 142.24L33.1187 162.197L33.6412 143.87L46.3792 133.436L33.1187 94.2397L53.6953 95.2832Z" fill="#2B4183"/>
<path d="M20.7074 162.327L32.9881 155.936L28.1542 149.088L14.8284 156.327L19.0743 161.74L20.7074 162.327Z" fill="#FFBE9D"/>
<path d="M17.7677 153.457C17.7677 153.457 19.858 161.088 25.8677 160.631L28.154 178.762L10.5168 156.392L17.7677 153.457Z" fill="#181F42"/>
<path d="M28.2228 178.872L10.571 156.557L8.45898 158.222L26.1107 180.537L28.2228 178.872Z" fill="white"/>
<path d="M26.129 162.979C25.0177 162.712 23.8742 162.602 22.7322 162.653" stroke="white" stroke-width="1.5042" stroke-linecap="round" stroke-linejoin="round"/>
<path d="M26.6516 165.653C25.5255 165.343 24.3537 165.233 23.1895 165.327" stroke="white" stroke-width="1.5042" stroke-linecap="round" stroke-linejoin="round"/>
<path d="M27.1743 168.327C26.0487 168.012 24.8797 167.88 23.7122 167.936" stroke="white" stroke-width="1.5042" stroke-linecap="round" stroke-linejoin="round"/>
<path d="M31.6816 184.501L32.9228 170.936L24.5614 170.479L23.3203 185.414H30.1792L31.6816 184.501Z" fill="#FFBE9D"/>
<path d="M22.2098 181.305C22.2098 181.305 29.4607 184.371 32.8575 179.414L48.5349 188.805H20.0542L22.2098 181.305Z" fill="#181F42"/>
<path d="M48.5349 188.805H20.0542V191.492H48.5349V188.805Z" fill="white"/>
<path d="M34.8823 180.653C33.969 181.367 33.156 182.201 32.4653 183.131" stroke="white" stroke-width="1.5042" stroke-linecap="round" stroke-linejoin="round"/>
<path d="M37.2993 181.892C36.3859 182.606 35.573 183.44 34.8823 184.371" stroke="white" stroke-width="1.5042" stroke-linecap="round" stroke-linejoin="round"/>
<path d="M39.7163 183.131C38.785 183.825 37.9693 184.662 37.2993 185.61" stroke="white" stroke-width="1.5042" stroke-linecap="round" stroke-linejoin="round"/>
<path d="M25.5413 94.3701L21.6873 173.675H36.2542L46.8365 94.5658L25.5413 94.3701Z" fill="#2B4183"/>
<path d="M53.6952 95.2832L44.8766 109.109L43.0476 94.8918L53.6952 95.2832Z" fill="#2B4183"/>
<path d="M91.6478 81.783L82.8945 82.5004L84.4623 73.7612L93.5421 74.5438L91.6478 81.783Z" fill="#FFBE9D"/>
<path d="M98.964 81.3919C98.0445 82.1873 96.9091 82.6921 95.7018 82.8421C94.4945 82.9922 93.2697 82.7809 92.1829 82.2348C91.0961 81.6888 90.1963 80.8328 89.5976 79.7754C88.9989 78.7179 88.7284 77.5068 88.8203 76.2955C88.9122 75.0843 89.3624 73.9277 90.1138 72.9724C90.8652 72.017 91.884 71.3061 93.0407 70.9298C94.1975 70.5535 95.4402 70.5287 96.6111 70.8587C97.782 71.1887 98.8283 71.8585 99.6172 72.7831C100.668 74.014 101.188 75.6094 101.066 77.2217C100.944 78.8341 100.188 80.333 98.964 81.3919Z" fill="#FFBE9D"/>
<path d="M95.3059 70.6961C95.3059 70.6961 94.1954 68.1526 91.5825 70.0439C88.9696 71.9352 86.7487 75.7831 90.3414 80.7396L95.3059 70.6961Z" fill="#FFBE9D"/>
<path d="M95.3059 70.6307L102.295 68.8698C102.581 68.7851 102.889 68.812 103.156 68.9452C103.423 69.0784 103.629 69.3079 103.733 69.5872C103.806 69.8221 103.793 70.0753 103.698 70.302C103.602 70.5287 103.429 70.7144 103.21 70.8264L96.0898 74.022L95.3059 70.6307Z" fill="#FAFAFA"/>
<path d="M58.7252 58.5005L70.222 76.6962C71.0024 78.0967 71.2273 79.7387 70.8523 81.2969C70.4772 82.8551 69.5295 84.2158 68.197 85.1093C66.7777 86.0091 65.0632 86.3217 63.417 85.9808C61.7707 85.6399 60.3222 84.6724 59.3784 83.2832L46.7058 65.8049C45.81 64.448 45.4117 62.8237 45.5784 61.2072C45.745 59.5907 46.4664 58.0814 47.6203 56.9352C48.3928 56.1745 49.3307 55.602 50.361 55.2621C51.3912 54.9222 52.4861 54.8242 53.5605 54.9757C54.6349 55.1271 55.6598 55.5239 56.5556 56.1352C57.4513 56.7466 58.1938 57.556 58.7252 58.5005Z" fill="#8155FF"/>
<path d="M55.1323 77.4788L55.7855 67.5657L58.2678 81.8484L55.1323 77.4788Z" fill="#2B4183"/>
<path d="M64.2776 74.8699L89.6229 71.8699L89.4922 83.4134L65.976 86.4787C65.1055 86.6466 64.2082 86.6158 63.3513 86.3885C62.4944 86.1612 61.7001 85.7434 61.0278 85.1663C60.3556 84.5892 59.8227 83.8677 59.4692 83.056C59.1157 82.2442 58.9507 81.3631 58.9865 80.4786C59.0287 79.0594 59.5905 77.7049 60.5655 76.6714C61.5406 75.6378 62.8612 74.9969 64.2776 74.8699Z" fill="#8155FF"/>
<path d="M20.4461 109.109C20.4461 109.109 23.255 109.305 22.7977 106.109C22.3405 102.914 19.9889 98.9354 13.7832 99.8484L20.4461 109.109Z" fill="#FFBE9D"/>
<path d="M-0.000108719 134.936H28.4153L28.4153 106.553H-0.000108719L-0.000108719 134.936Z" fill="#8155FF"/>
<path d="M-0.693708 134.936H27.7217L27.7217 106.553H-0.693708L-0.693708 134.936Z" fill="#184042"/>
<path d="M9.01441 107.218C8.76153 106.023 8.86805 104.78 9.32059 103.645C9.77313 102.51 10.5515 101.535 11.5579 100.84C12.5643 100.146 13.7538 99.7639 14.9769 99.7424C16.2001 99.7209 17.4023 100.061 18.4325 100.72C19.4627 101.378 20.275 102.326 20.7672 103.444C21.2594 104.562 21.4096 105.801 21.199 107.004C20.9884 108.207 20.4262 109.321 19.5833 110.206C18.7403 111.092 17.6541 111.708 16.4612 111.979C14.8418 112.328 13.1496 112.024 11.7543 111.132C10.359 110.24 9.37395 108.833 9.01441 107.218Z" fill="#FFBE9D"/>
<path d="M21.1647 76.4352L20.9034 101.87L9.7332 101.348L9.40658 76.6308C9.35682 75.7468 9.50583 74.8628 9.8427 74.0436C10.1796 73.2245 10.6958 72.4911 11.3534 71.897C12.0111 71.3029 12.7936 70.8633 13.6435 70.6103C14.4935 70.3574 15.3893 70.2975 16.2655 70.4352C17.6661 70.6844 18.9308 71.4269 19.8298 72.5279C20.7287 73.6289 21.2024 75.0152 21.1647 76.4352Z" fill="#8155FF"/>
<path d="M35.5357 65.7395L20.1195 80.8047C18.8897 81.838 17.3186 82.3771 15.7125 82.3168C14.1063 82.2565 12.5802 81.6012 11.4316 80.4787C10.2469 79.2928 9.58154 77.6862 9.58154 76.0112C9.58154 74.3363 10.2469 72.7297 11.4316 71.5438L25.8679 55.5003C27.0222 54.3591 28.5327 53.6463 30.1486 53.4803C31.7646 53.3142 33.3888 53.7048 34.7518 54.5872C35.666 55.1745 36.4305 55.9666 36.9843 56.9005C37.5382 57.8345 37.8662 58.8845 37.9423 59.9673C38.0184 61.05 37.8405 62.1355 37.4227 63.1375C37.0049 64.1395 36.3588 65.0305 35.5357 65.7395Z" fill="#8155FF"/>
<path d="M52.7154 54.8482L30.8323 53.4134C28.8073 53.2829 25.3452 56.8699 25.5412 58.8264V94.3701L53.6953 95.2832L56.5695 59.2178C56.6049 58.678 56.5332 58.1365 56.3585 57.6244C56.1838 57.1123 55.9096 56.6398 55.5515 56.2338C55.1934 55.8278 54.7585 55.4964 54.2718 55.2586C53.7852 55.0208 53.2562 54.8814 52.7154 54.8482Z" fill="#E0E0E0"/>
<path d="M25.5413 75.5221L31.8776 69.3264L25.5413 86.0874V75.5221Z" fill="#E0E0E0"/>
<path d="M49.1879 40.1741C49.1186 40.9351 49.3549 41.6925 49.845 42.2796C50.335 42.8667 51.0385 43.2353 51.8008 43.3045C52.5631 43.3737 53.3217 43.1377 53.9097 42.6485C54.4977 42.1593 54.867 41.4569 54.9363 40.6958C55.0104 39.9199 54.7791 39.1456 54.2914 38.537C53.8037 37.9283 53.0979 37.5331 52.3234 37.4349C51.9372 37.4084 51.5495 37.4582 51.1827 37.5816C50.8158 37.7051 50.477 37.8996 50.1856 38.1541C49.8943 38.4086 49.6562 38.7181 49.485 39.0647C49.3137 39.4114 49.2128 39.7884 49.1879 40.1741Z" fill="#FFBE9D"/>
<path d="M47.4896 47.2176L47.3589 54.3264C47.2936 56.8698 45.7912 58.1742 43.3743 58.109C41.3492 58.0438 39.1283 57.0003 39.2589 54.7829L39.9775 43.5654L47.4896 47.2176Z" fill="#FFBE9D"/>
<path d="M47.4243 51.9786C47.4243 51.9786 41.5452 52.3047 39.8468 45.7177C39.3242 43.6959 47.4896 46.4351 47.4896 46.4351L47.4243 51.9786Z" fill="#312725"/>
<path d="M45.2686 49.2394C49.3839 49.3046 52.7807 46.0437 52.9767 42.6524L53.3033 35.4132C53.4502 33.3711 52.7964 31.352 51.48 29.7822C50.1637 28.2124 48.2877 27.2148 46.2484 27.0001C42.0024 26.674 37.4952 29.8045 37.1032 34.2393L36.9073 39.848C36.799 42.1929 37.6127 44.4872 39.1747 46.2416C40.7367 47.996 42.9235 49.0718 45.2686 49.2394Z" fill="#FFBE9D"/>
<path d="M48.7307 39.4568L48.9266 41.8046L47.9468 41.8698" stroke="#312725" stroke-width="0.597433" stroke-linecap="round" stroke-linejoin="round"/>
<path d="M44.2887 34.6958C44.2887 34.6958 45.9871 34.5654 45.9871 35.2828C45.9871 36.0002 45.9871 35.8045 44.4846 35.8697C42.9822 35.9349 42.6556 35.8045 42.525 35.348C42.3943 34.8915 43.5048 34.6958 44.2887 34.6958Z" fill="#312725"/>
<path d="M51.2783 36.3263C51.2783 36.3263 49.9065 36.1959 49.7759 36.8481C49.6452 37.5002 49.7105 37.3046 50.9517 37.435C52.1928 37.5655 52.5194 37.3698 52.6501 37.0437C52.7807 36.7176 51.9315 36.3915 51.2783 36.3263Z" fill="#312725"/>
<path d="M50.2332 39.0002C50.2332 39.4567 50.4944 39.7828 50.8864 39.7828C51.0735 39.7854 51.2554 39.7211 51.3992 39.6014C51.5429 39.4818 51.6391 39.3148 51.6703 39.1306C51.6792 39.0363 51.6694 38.9412 51.6414 38.8507C51.6134 38.7602 51.5677 38.6762 51.5069 38.6034C51.4462 38.5307 51.3717 38.4706 51.2876 38.4268C51.2035 38.3829 51.1115 38.3562 51.017 38.348C50.8299 38.3454 50.648 38.4097 50.5043 38.5293C50.3605 38.6489 50.2643 38.8159 50.2332 39.0002Z" fill="#312725"/>
<path d="M44.0929 38.7394C44.0837 38.8303 44.0938 38.9222 44.1225 39.009C44.1512 39.0958 44.1979 39.1757 44.2595 39.2433C44.3211 39.311 44.3963 39.3649 44.4801 39.4017C44.5639 39.4385 44.6546 39.4572 44.7461 39.4568C44.8372 39.4659 44.9293 39.4558 45.0162 39.4272C45.1032 39.3985 45.1831 39.3519 45.2509 39.2904C45.3186 39.2289 45.3727 39.1539 45.4095 39.0702C45.4463 38.9865 45.4651 38.896 45.4647 38.8046C45.5029 38.699 45.5157 38.5859 45.5022 38.4744C45.4886 38.3629 45.449 38.2562 45.3866 38.1628C45.3242 38.0694 45.2407 37.9919 45.1428 37.9366C45.0449 37.8813 44.9354 37.8497 44.823 37.8443C44.7107 37.839 44.5987 37.86 44.4959 37.9058C44.3932 37.9516 44.3027 38.0208 44.2317 38.1079C44.1607 38.1949 44.1111 38.2974 44.087 38.4071C44.0629 38.5168 44.0649 38.6306 44.0929 38.7394Z" fill="#312725"/>
<path d="M45.7913 42.8481C46.0714 43.1843 46.4399 43.4356 46.8554 43.5739C47.2709 43.7122 47.7168 43.7319 48.1429 43.6308" stroke="#312725" stroke-width="0.597433" stroke-linecap="round" stroke-linejoin="round"/>
<path d="M51.6702 23.5436C50.1024 22.8262 46.1177 22.1088 45.2032 25.6306C41.2185 25.3697 34.8822 25.4349 34.2943 28.8915C33.3145 33.9132 36.9072 38.935 36.9072 38.935L37.9524 39.4567C37.9524 39.4567 40.5 38.0872 39.8468 32.0871C39.8468 32.0871 49.0573 34.2393 53.3686 31.9567C57.6799 29.6741 56.3734 25.5654 51.6702 23.5436Z" fill="#312725"/>
<path d="M33.1187 39.6523C33.0455 40.421 33.2788 41.1876 33.7679 41.7858C34.257 42.384 34.9625 42.7656 35.7316 42.848C36.1144 42.8836 36.5005 42.8423 36.8671 42.7263C37.2336 42.6103 37.5731 42.4221 37.8655 42.1728C38.1578 41.9234 38.3971 41.6181 38.5692 41.2747C38.7412 40.9314 38.8425 40.5571 38.8671 40.174C38.9364 39.413 38.7 38.6556 38.21 38.0685C37.72 37.4815 37.0164 37.1128 36.2541 37.0436C35.4919 36.9744 34.7333 37.2104 34.1453 37.6996C33.5572 38.1888 33.188 38.8912 33.1187 39.6523Z" fill="#FFBE9D"/>
<path d="M36.9074 40.6959C36.9074 40.6959 37.1034 38.5437 35.0784 38.7394" stroke="#312725" stroke-width="0.597433" stroke-linecap="round" stroke-linejoin="round"/>
<path d="M36.4502 53.8047L49.5801 54.6525C49.5801 54.6525 49.972 59.1525 44.1583 58.8265C38.3446 58.5004 36.4502 53.8047 36.4502 53.8047Z" fill="#FFBE9D"/>
<path d="M310.74 162.979L297.806 156.914L302.444 149.675L316.489 156.523L312.373 162.262L310.74 162.979Z" fill="#FFBE9D"/>
<path d="M313.288 153.718C313.288 153.718 311.524 161.61 305.384 161.414L303.881 180.131L320.931 156.392L313.288 153.718Z" fill="#181F42"/>
<path d="M307.44 181.322L324.451 157.603L322.207 155.999L305.196 179.718L307.44 181.322Z" fill="white"/>
<path d="M305.188 163.892C306.327 163.524 307.519 163.348 308.715 163.371" stroke="white" stroke-width="1.54769" stroke-linecap="round" stroke-linejoin="round"/>
<path d="M304.796 166.631C305.935 166.263 307.127 166.087 308.323 166.11" stroke="white" stroke-width="1.54769" stroke-linecap="round" stroke-linejoin="round"/>
<path d="M304.404 169.37C305.521 169.007 306.691 168.831 307.866 168.849" stroke="white" stroke-width="1.54769" stroke-linecap="round" stroke-linejoin="round"/>
<path d="M280.692 84.3918C280.692 84.3918 272.265 115.827 271.024 122.023C269.783 128.218 267.301 140.675 272.526 145.11C277.752 149.544 297.806 160.305 297.806 160.305L305.188 147.131L293.234 139.957L280.692 84.3918Z" fill="#243B77"/>
<path d="M292.123 184.501L289.445 170.479L298.068 170.023L300.746 185.414H293.691L292.123 184.501Z" fill="#FFBE9D"/>
<path d="M301.138 181.175C301.138 181.175 293.691 184.305 290.229 179.218L274.094 188.936H303.424L301.138 181.175Z" fill="#181F42"/>
<path d="M274.094 191.675H303.424V188.91H274.094V191.675Z" fill="white"/>
<path d="M288.139 180.523C289.08 181.231 289.897 182.091 290.556 183.066" stroke="white" stroke-width="1.54769" stroke-linecap="round" stroke-linejoin="round"/>
<path d="M285.656 181.762C286.61 182.477 287.447 183.335 288.139 184.305" stroke="white" stroke-width="1.54769" stroke-linecap="round" stroke-linejoin="round"/>
<path d="M283.174 183.066C284.128 183.781 284.965 184.639 285.656 185.61" stroke="white" stroke-width="1.54769" stroke-linecap="round" stroke-linejoin="round"/>
<path d="M280.692 84.3918L279.908 131.87C279.843 133.575 279.975 135.282 280.3 136.957L287.355 173.545H302.118L298.002 132.262C298.198 124.631 300.68 116.153 301.66 106.892C301.66 106.892 304.535 89.6745 296.63 84.4571L280.692 84.3918Z" fill="#2B4183"/>
<path d="M271.22 77.8699L247.051 69.0002L244.242 73.6959L267.823 86.2177C268.718 86.5541 269.686 86.6482 270.629 86.4905C271.573 86.3327 272.457 85.9287 273.193 85.3195C273.93 84.7102 274.491 83.9174 274.822 83.0214C275.152 82.1254 275.239 81.1581 275.074 80.2177C274.682 78.3264 273.049 78.522 271.22 77.8699Z" fill="#FFBE9D"/>
<path d="M244.111 65.4134C243.892 65.1944 243.623 65.0324 243.327 64.9414C243.031 64.8504 242.717 64.8334 242.413 64.8917C242.229 64.9188 242.057 64.994 241.912 65.1095C241.768 65.225 241.657 65.3768 241.591 65.5493C241.524 65.7217 241.505 65.9087 241.534 66.0911C241.564 66.2735 241.642 66.4447 241.759 66.5873L242.086 67.1743C241.302 67.4352 239.734 67.5004 236.795 64.5656C236.569 64.3144 236.262 64.1505 235.928 64.1028C235.593 64.0551 235.253 64.1266 234.966 64.3047C234.871 64.3644 234.789 64.4422 234.725 64.5337C234.661 64.6251 234.615 64.7283 234.591 64.8374C234.566 64.9465 234.564 65.0593 234.583 65.1694C234.603 65.2794 234.644 65.3845 234.704 65.4786C234.513 65.401 234.305 65.3722 234.1 65.395C233.895 65.4178 233.698 65.4913 233.529 65.6091C233.35 65.74 233.225 65.9311 233.177 66.147C233.129 66.3629 233.161 66.5889 233.267 66.783L233.398 66.9786L232.81 67.1743C232.632 67.3052 232.507 67.4963 232.459 67.7122C232.41 67.9281 232.443 68.1541 232.549 68.3482C232.598 68.4826 232.69 68.5971 232.81 68.6743L232.941 68.8047H232.875C232.68 68.9375 232.543 69.1407 232.495 69.3717C232.446 69.6028 232.489 69.8437 232.614 70.0439C232.614 70.1743 232.745 70.2395 232.81 70.37C233.564 71.1037 234.372 71.7795 235.227 72.3917H235.292C235.639 72.647 236.011 72.8656 236.403 73.0439C238.036 74.0222 241.694 73.1743 244.829 73.6961L247.246 69.1308L244.111 65.4134Z" fill="#FFBE9D"/>
<path d="M235.739 81.9732L247.402 55.3188L220.693 43.6686L209.029 70.323L235.739 81.9732Z" fill="#FFCD2E"/>
<path d="M244.503 65.9352L242.151 63.1308C241.946 62.9429 241.678 62.8386 241.4 62.8386C241.122 62.8386 240.854 62.9429 240.649 63.1308C240.531 63.2876 240.457 63.4728 240.434 63.6675C240.411 63.8623 240.44 64.0597 240.518 64.2395L241.759 66.5873C241.481 67.6129 241.461 68.6911 241.7 69.7264C241.94 70.7617 242.431 71.722 243.131 72.5222L244.503 65.9352Z" fill="#FFBE9D"/>
<path d="M281.998 78.3265L273.18 85.37C272.311 86.0629 271.249 86.4721 270.139 86.5421C269.029 86.6121 267.924 86.3395 266.974 85.7613C264.231 84.0657 262.597 82.5004 264.557 80.0222L274.225 70.2395L281.998 78.3265Z" fill="#FFBE9D"/>
<path d="M288.792 69.9787C288.792 69.9787 287.616 75.7178 280.692 80.9353L269.979 70.8917L278.602 61.2395L288.792 69.9787Z" fill="#7041FD"/>
<path d="M305.514 77.5438L324.131 101.022L328.312 98.2179C328.312 98.2179 317.664 78.3917 312.7 72.1308C312.11 71.3738 311.326 70.7893 310.432 70.4385C309.538 70.0877 308.565 69.9835 307.617 70.1369C306.668 70.2903 305.779 70.6956 305.041 71.3103C304.303 71.925 303.745 72.7265 303.424 73.6308C302.706 75.4569 304.273 76.109 305.514 77.5438Z" fill="#FFBE9D"/>
<path d="M324.981 105.718C325.067 106.012 325.226 106.279 325.442 106.496C325.659 106.712 325.927 106.871 326.222 106.957C326.384 107 326.555 107.003 326.719 106.966C326.884 106.928 327.036 106.852 327.165 106.743C327.293 106.634 327.393 106.496 327.456 106.34C327.52 106.185 327.544 106.016 327.528 105.848V105.196C328.312 105.327 329.749 105.979 330.86 109.892C330.947 110.202 331.137 110.473 331.397 110.662C331.658 110.851 331.975 110.948 332.297 110.935C332.408 110.927 332.517 110.897 332.617 110.847C332.717 110.796 332.806 110.727 332.879 110.642C332.952 110.557 333.007 110.458 333.042 110.352C333.076 110.246 333.089 110.134 333.081 110.022C333.197 110.186 333.356 110.315 333.54 110.395C333.724 110.475 333.926 110.504 334.126 110.479C334.339 110.462 334.539 110.366 334.684 110.209C334.83 110.051 334.91 109.845 334.91 109.631V109.435H335.498C335.717 109.404 335.917 109.294 336.061 109.126C336.205 108.958 336.284 108.744 336.281 108.522C336.291 108.389 336.269 108.255 336.216 108.131C336.216 108.066 336.151 108.066 336.151 108.001H336.216C336.435 107.969 336.636 107.859 336.78 107.691C336.924 107.523 337.002 107.309 337 107.088C337.009 106.954 336.987 106.82 336.935 106.696C336.687 105.706 336.337 104.744 335.889 103.827H335.824L335.236 102.718C334.191 101.088 330.729 100.109 328.312 98.218L324.131 101.022L324.981 105.718Z" fill="#FFBE9D"/>
<path d="M302.706 63.1309L311.198 70.5657C312.028 71.2951 312.613 72.2636 312.87 73.3379C313.127 74.4123 313.045 75.5399 312.635 76.5657C311.459 79.5005 310.218 81.457 307.409 79.957L296.043 72.1961L302.706 63.1309Z" fill="#FFBE9D"/>
<path d="M291.797 57.9785C296.904 58.3473 301.727 60.467 305.449 63.9785L299.701 74.6743L288.334 70.7612L291.797 57.9785Z" fill="#8155FF"/>
<path d="M282.651 58.5655C282.651 58.5655 275.597 60.522 275.597 69.9786C275.531 75.0656 280.692 84.3917 280.692 84.3917H296.63C296.63 84.3917 298.917 77.9352 300.354 72.0656C301.791 66.196 297.284 60.7177 291.797 57.9133L282.651 58.5655Z" fill="#8155FF"/>
<path d="M299.701 74.6743L293.43 70.2395L298.264 79.5004L299.701 74.6743Z" fill="#7041FD"/>
<path d="M286.636 61.6308C288.857 61.3047 289.641 59.8047 289.314 57.5873L286.832 45.0002L280.169 46.0437L282.064 58.2394C282.225 59.2919 282.796 60.2384 283.652 60.8733C284.508 61.5082 285.58 61.7804 286.636 61.6308Z" fill="#FFBE9D"/>
<path d="M285.33 47.4785C285.33 47.4785 287.485 54.1959 281.737 56.4786L281.214 52.5003L287.093 48.0655" fill="#32292A"/>
<path d="M280.43 53.348C284.546 52.9567 287.616 49.6306 287.289 45.9132L286.114 33.8479H279.124C276.576 34.1088 272.984 37.5001 273.245 39.7827L274.421 47.348C274.682 50.0219 276.903 53.6741 280.43 53.348Z" fill="#FFBE9D"/>
<path d="M274.748 42.9133L273.18 46.9568C273.113 47.0522 273.076 47.1652 273.074 47.2815C273.072 47.3978 273.105 47.512 273.168 47.6099C273.231 47.7077 273.321 47.7846 273.428 47.8309C273.535 47.8772 273.653 47.8908 273.768 47.8699L276.511 47.609L274.748 42.9133Z" fill="#FFBE9D"/>
<path d="M276.185 41.0219C276.185 41.0219 274.682 41.0871 274.747 41.7393C274.813 42.3915 274.747 42.1306 276.054 42.0654C277.36 42.0001 277.687 41.8697 277.752 41.4784C277.818 41.0871 276.838 40.9567 276.185 41.0219Z" fill="#312725"/>
<path d="M276.25 43.9568C276.269 44.0426 276.27 44.1313 276.254 44.2176C276.238 44.304 276.204 44.3861 276.156 44.4592C276.107 44.5323 276.044 44.5948 275.97 44.6429C275.897 44.6911 275.814 44.7239 275.727 44.7394C275.557 44.7422 275.392 44.6848 275.26 44.5773C275.129 44.4699 275.04 44.3193 275.009 44.1524C275.026 44.0116 275.089 43.8803 275.187 43.7782C275.286 43.6761 275.415 43.609 275.555 43.5868C275.696 43.5647 275.839 43.5889 275.965 43.6556C276.09 43.7224 276.19 43.8281 276.25 43.9568Z" fill="#312725"/>
<path d="M275.793 48.7177C276.137 48.6813 276.464 48.5444 276.731 48.3241C276.998 48.1037 277.194 47.8096 277.295 47.4785" stroke="#312725" stroke-width="0.597433" stroke-linecap="round" stroke-linejoin="round"/>
<path d="M287.289 57.2612L291.797 57.9786C291.797 57.9786 287.093 65.6091 282.456 63.783C277.818 61.9569 284.154 57.6525 284.154 57.6525L287.289 57.2612Z" fill="#FFBE9D"/>
<path d="M285.395 43.5003C284.386 43.2235 283.468 42.6858 282.734 41.9415C282 41.1972 281.476 40.2726 281.214 39.2612L271.938 41.1525C271.938 41.1525 270.501 31.8915 281.606 30.1307C287.224 29.2176 290.751 31.9568 292.646 34.6307C293.514 35.9128 294.036 37.3966 294.161 38.9388C294.287 40.4811 294.013 42.0297 293.364 43.4351C292.159 46.0388 290.173 48.2041 287.681 49.6308L286.832 45.0003C286.832 45.0003 286.048 43.6307 285.395 43.5003Z" fill="#32292A"/>
<path d="M289.902 42.7827C289.903 43.5672 289.595 44.3206 289.045 44.8813C288.496 45.4421 287.748 45.7657 286.963 45.7828C286.577 45.7743 286.196 45.69 285.843 45.5346C285.489 45.3792 285.17 45.1559 284.903 44.8773C284.636 44.5987 284.427 44.2703 284.287 43.9109C284.147 43.5515 284.08 43.1682 284.089 42.7827C284.088 41.9983 284.396 41.2449 284.946 40.6841C285.495 40.1234 286.243 39.7998 287.028 39.7827C287.802 39.8163 288.533 40.1472 289.069 40.7062C289.604 41.2652 289.903 42.0092 289.902 42.7827Z" fill="#FFBE9D"/>
<path d="M285.983 43.5004C285.983 43.5004 285.983 41.3482 288.008 41.6743" stroke="#312725" stroke-width="0.602592" stroke-linecap="round" stroke-linejoin="round"/>
<path d="M304.731 30.9132C304.982 32.3248 304.807 33.7791 304.23 35.0917C303.652 36.4043 302.697 37.516 301.485 38.286C300.274 39.0559 298.861 39.4493 297.425 39.4164C295.989 39.3835 294.596 38.9257 293.421 38.101C292.246 37.2763 291.343 36.122 290.826 34.7843C290.31 33.4466 290.202 31.9858 290.518 30.5872C290.834 29.1885 291.559 27.915 292.6 26.9281C293.642 25.9411 294.954 25.2852 296.369 25.0436C298.257 24.7213 300.195 25.1576 301.762 26.2573C303.328 27.357 304.396 29.0307 304.731 30.9132Z" fill="#32292A"/>
</g>
<defs>
<clipPath id="clip0">
<rect width="337" height="204.979" fill="white"/>
</clipPath>
</defs>
</svg>
