<svg width="313" height="313" viewBox="0 0 313 313" fill="none" xmlns="http://www.w3.org/2000/svg">
<path d="M156.381 299.597C238.129 299.597 304.399 261.338 304.399 214.142C304.399 166.946 238.129 128.687 156.381 128.687C74.6331 128.687 8.36328 166.946 8.36328 214.142C8.36328 261.338 74.6331 299.597 156.381 299.597Z" fill="#F0F0F0"/>
<path d="M91.5087 264.072C111.724 264.072 128.111 254.613 128.111 242.944C128.111 231.276 111.724 221.817 91.5087 221.817C71.2939 221.817 54.9065 231.276 54.9065 242.944C54.9065 254.613 71.2939 264.072 91.5087 264.072Z" fill="#E0E0E0"/>
<path d="M221.191 264.072C241.406 264.072 257.793 254.613 257.793 242.944C257.793 231.276 241.406 221.817 221.191 221.817C200.976 221.817 184.589 231.276 184.589 242.944C184.589 254.613 200.976 264.072 221.191 264.072Z" fill="#E0E0E0"/>
<path d="M156.638 258.826C176.853 258.826 193.24 249.367 193.24 237.699C193.24 226.03 176.853 216.571 156.638 216.571C136.423 216.571 120.036 226.03 120.036 237.699C120.036 249.367 136.423 258.826 156.638 258.826Z" fill="#E0E0E0"/>
<path d="M45.3038 183.668L51.2695 180.225C51.2695 180.225 52.7281 167.449 51.7578 157.558C50.3931 143.661 41.4163 126.94 30.7054 130.865C19.9946 134.79 35.6195 148.95 39.0938 160.738C42.5681 172.526 45.3038 183.668 45.3038 183.668Z" fill="#F8744E"/>
<path opacity="0.15" d="M45.3038 183.668L51.2695 180.225C51.2695 180.225 52.7281 167.449 51.7578 157.558C50.3931 143.661 41.4163 126.94 30.7054 130.865C19.9946 134.79 35.6195 148.95 39.0938 160.738C42.5681 172.526 45.3038 183.668 45.3038 183.668Z" fill="black"/>
<path d="M48.4399 182.216C48.3925 182.215 48.3459 182.203 48.3028 182.184C48.2597 182.164 48.221 182.136 48.1889 182.101C48.1568 182.066 48.1321 182.025 48.1161 181.98C48.1 181.935 48.0931 181.888 48.0956 181.841C49.141 150.96 33.7665 135.423 33.61 135.272C33.554 135.203 33.5255 135.115 33.53 135.026C33.5345 134.937 33.5716 134.853 33.6343 134.789C33.697 134.726 33.7809 134.688 33.8699 134.682C33.9589 134.677 34.0469 134.704 34.117 134.759C34.2735 134.916 49.8735 150.672 48.8155 181.866C48.8139 181.913 48.8029 181.96 48.7831 182.004C48.7634 182.047 48.7353 182.086 48.7004 182.119C48.6655 182.151 48.6245 182.177 48.5798 182.193C48.5352 182.21 48.4876 182.218 48.4399 182.216Z" fill="white"/>
<path d="M41.554 185.816L45.7983 183.362C45.7983 183.362 46.5182 174.598 42.2238 163.956C38.4678 154.691 29.203 147.004 24.5331 148.619C19.8631 150.234 19.982 153.545 22.2607 157.013C24.5393 160.481 38.3802 168.757 41.554 185.816Z" fill="#F8744E"/>
<path d="M43.8201 184.883C43.7238 184.883 43.6315 184.845 43.5634 184.777C43.4953 184.708 43.457 184.616 43.457 184.52C43.5447 164.995 25.2091 151.799 25.0213 151.667C24.9823 151.64 24.949 151.605 24.9235 151.564C24.898 151.524 24.8806 151.479 24.8725 151.432C24.8644 151.385 24.8656 151.337 24.8761 151.29C24.8866 151.243 24.9062 151.199 24.9337 151.16C24.9612 151.121 24.9962 151.088 25.0366 151.062C25.077 151.037 25.122 151.02 25.1691 151.011C25.2162 151.003 25.2644 151.004 25.311 151.015C25.3576 151.025 25.4017 151.045 25.4408 151.073C25.6286 151.21 44.2646 164.626 44.1769 184.52C44.1778 184.567 44.1692 184.614 44.1516 184.658C44.134 184.702 44.1079 184.742 44.0747 184.776C44.0415 184.81 44.0018 184.837 43.9581 184.855C43.9144 184.873 43.8675 184.883 43.8201 184.883Z" fill="white"/>
<path d="M266.758 178.147L261.75 175.243C261.75 175.243 258.757 162.804 259.953 151.617C261.631 135.886 271.985 129.964 275.922 131.322C279.86 132.681 280.999 137.257 274.482 146.628C270.614 152.156 265.894 163.668 266.758 178.147Z" fill="#F8744E"/>
<g opacity="0.15">
<path opacity="0.15" d="M266.758 178.147L261.75 175.243C261.75 175.243 258.757 162.804 259.953 151.617C261.631 135.886 271.985 129.964 275.922 131.322C279.86 132.681 280.999 137.257 274.482 146.628C270.614 152.156 265.894 163.668 266.758 178.147Z" fill="black"/>
</g>
<path d="M264.673 172.038H264.723C264.813 172.019 264.893 171.966 264.944 171.89C264.996 171.814 265.015 171.721 264.999 171.631C262.244 157.126 267.302 140.813 273.562 134.027C273.628 133.961 273.664 133.872 273.664 133.78C273.664 133.687 273.628 133.598 273.562 133.532C273.497 133.467 273.408 133.43 273.315 133.43C273.222 133.43 273.133 133.467 273.068 133.532C266.676 140.418 261.512 157.014 264.304 171.718C264.312 171.809 264.355 171.893 264.424 171.953C264.493 172.012 264.582 172.043 264.673 172.038Z" fill="white"/>
<path d="M279.929 185.753C280.724 186.16 282.833 184.351 283.422 183.913C284.428 183.146 285.223 182.135 285.732 180.977C286.296 179.658 286.439 178.197 286.139 176.795C285.979 176.056 285.77 175.328 285.513 174.616C285.275 173.915 285.031 173.214 284.793 172.507C284.507 171.83 284.362 171.101 284.367 170.366C284.48 168.895 285.726 167.806 286.871 166.86C288.123 165.815 289.425 164.457 289.325 162.691C289.158 161.33 288.549 160.061 287.591 159.079C286.69 158.059 285.644 157.164 284.824 156.074C284.184 155.321 283.824 154.371 283.804 153.383C283.854 152.774 284.026 152.182 284.311 151.642C284.874 150.465 285.644 149.37 286.013 148.118C286.383 146.866 286.239 145.332 285.231 144.5C284.405 143.817 283.228 143.774 282.164 143.874C281.168 144.045 280.221 144.431 279.39 145.007C276.674 146.703 275.246 150.096 272.335 151.442C271.175 151.87 269.99 152.226 268.786 152.506C267.609 152.882 266.42 153.552 265.925 154.685C264.949 156.913 267.102 159.492 266.451 161.846C265.881 163.924 263.947 164.807 262.908 166.704C262.494 167.541 262.358 168.488 262.52 169.408C262.696 170.967 263.156 172.479 263.878 173.872C264.689 175.302 265.586 176.682 266.564 178.003C266.564 178.003 279.822 185.69 279.929 185.753Z" fill="#F8744E"/>
<path d="M272.229 181.74C272.321 181.732 272.406 181.688 272.466 181.618C272.525 181.548 272.555 181.457 272.548 181.365C271.296 167.561 277.024 151.943 281.537 147.291C281.573 147.259 281.602 147.22 281.622 147.177C281.642 147.133 281.653 147.086 281.654 147.038C281.655 146.99 281.647 146.942 281.628 146.897C281.61 146.853 281.583 146.813 281.549 146.779C281.514 146.745 281.473 146.719 281.428 146.702C281.383 146.685 281.335 146.678 281.287 146.68C281.239 146.682 281.192 146.694 281.149 146.715C281.106 146.737 281.068 146.767 281.037 146.803C276.429 151.573 270.564 167.43 271.853 181.427C271.857 181.473 271.87 181.517 271.891 181.557C271.912 181.597 271.941 181.633 271.976 181.662C272.011 181.691 272.051 181.713 272.094 181.726C272.138 181.74 272.183 181.745 272.229 181.74Z" fill="white"/>
<path d="M273.6 164.726C273.635 164.732 273.671 164.732 273.706 164.726C276.937 163.659 280.275 162.945 283.66 162.597C283.745 162.581 283.821 162.533 283.874 162.464C283.926 162.394 283.951 162.308 283.943 162.221C283.935 162.135 283.895 162.054 283.831 161.995C283.768 161.936 283.684 161.903 283.597 161.902C280.15 162.256 276.752 162.982 273.462 164.068C273.386 164.099 273.323 164.155 273.284 164.227C273.245 164.3 273.232 164.383 273.249 164.464C273.265 164.544 273.309 164.617 273.373 164.668C273.437 164.719 273.518 164.746 273.6 164.744V164.726Z" fill="white"/>
<path d="M172.313 226.118C163.58 221.11 149.42 221.11 140.687 226.118C136.305 228.622 134.146 231.939 134.146 235.245C134.146 235.589 134.146 237.054 134.146 237.448C134.208 240.703 136.387 243.94 140.681 246.419C149.414 251.464 163.574 251.464 172.306 246.419C176.62 243.915 178.798 240.672 178.848 237.404V235.195C178.829 231.908 176.651 228.628 172.313 226.118Z" fill="#37474F"/>
<path d="M140.687 244.372C131.961 239.332 131.961 231.157 140.687 226.118C149.414 221.078 163.58 221.11 172.313 226.118C181.045 231.126 181.039 239.332 172.313 244.372C163.586 249.411 149.42 249.417 140.687 244.372Z" fill="#455A64"/>
<path d="M159.067 233.623V152.306H153.908V233.623C153.893 233.873 153.956 234.121 154.089 234.333C154.221 234.545 154.416 234.711 154.647 234.806C155.214 235.094 155.84 235.243 156.475 235.243C157.11 235.243 157.736 235.094 158.303 234.806C158.539 234.715 158.74 234.552 158.878 234.339C159.015 234.127 159.081 233.876 159.067 233.623Z" fill="#37474F"/>
<path d="M179.612 126.308C166.848 118.94 146.152 118.94 133.388 126.308C127.003 129.995 123.817 134.822 123.817 139.654V142.033C123.817 146.86 127.003 151.692 133.388 155.373C146.152 162.747 166.848 162.747 179.612 155.373C185.997 151.692 189.184 146.86 189.184 142.033V139.654C189.184 134.822 185.997 129.995 179.612 126.308Z" fill="#455A64"/>
<path d="M179.613 123.429C166.849 116.061 146.154 116.061 133.389 123.429C127.004 127.116 123.818 131.942 123.818 136.775V139.148C123.818 143.98 127.004 148.807 133.389 152.494C146.154 159.862 166.849 159.862 179.613 152.494C185.998 148.807 189.185 143.98 189.185 139.148V136.775C189.185 131.942 185.998 127.116 179.613 123.429Z" fill="#F8744E"/>
<path opacity="0.4" d="M179.613 123.429C166.849 116.061 146.154 116.061 133.389 123.429C127.004 127.116 123.818 131.942 123.818 136.775V139.148C123.818 143.98 127.004 148.807 133.389 152.494C146.154 159.862 166.849 159.862 179.613 152.494C185.998 148.807 189.185 143.98 189.185 139.148V136.775C189.185 131.942 185.998 127.116 179.613 123.429Z" fill="black"/>
<path opacity="0.5" d="M156.5 155.649C174.554 155.649 189.19 147.199 189.19 136.775C189.19 126.351 174.554 117.901 156.5 117.901C138.446 117.901 123.81 126.351 123.81 136.775C123.81 147.199 138.446 155.649 156.5 155.649Z" fill="#F8744E"/>
<path d="M152.118 133.238C147.361 130.49 139.654 130.49 134.897 133.238V132.743C132.393 134.177 131.229 136.08 131.341 137.964C131.229 139.842 132.412 141.72 134.897 143.179C139.654 145.927 147.361 145.927 152.118 143.179C156.876 140.431 156.895 135.98 152.118 133.238Z" fill="#E0E0E0"/>
<path d="M152.118 132.743C156.876 135.485 156.876 139.942 152.118 142.684C147.36 145.426 139.654 145.432 134.897 142.684C130.139 139.936 130.139 135.485 134.897 132.743C139.654 130.001 147.379 129.995 152.118 132.743Z" fill="#F8744E"/>
<path d="M152.118 132.743C156.876 135.485 156.876 139.942 152.118 142.684C147.36 145.426 139.654 145.432 134.897 142.684C130.139 139.936 130.139 135.485 134.897 132.743C139.654 130.001 147.379 129.995 152.118 132.743Z" fill="#FAFAFA"/>
<path d="M137.72 134.79C134.452 136.668 134.452 139.736 137.72 141.626C140.988 143.517 146.284 143.504 149.551 141.626C152.819 139.748 152.819 136.681 149.551 134.79C146.284 132.9 140.957 132.906 137.72 134.79Z" fill="#E0E0E0"/>
<path d="M138.089 135.022C135.047 136.781 135.047 139.636 138.089 141.395C141.132 143.154 146.071 143.154 149.12 141.395C152.168 139.636 152.168 136.781 149.12 135.022C146.071 133.263 141.138 133.263 138.089 135.022Z" fill="#EBEBEB"/>
<path opacity="0.15" d="M135.805 140.481C135.805 140.806 135.836 141.157 136.143 141.157L152.106 141.1C152.769 141.1 152.863 140.687 152.55 139.673C152.237 138.659 150.516 135.573 147.868 134.991L135.805 140.481Z" fill="black"/>
<path d="M135.805 134.478V140.606C135.805 140.656 135.816 140.704 135.837 140.749C135.857 140.794 135.887 140.834 135.925 140.867C135.962 140.899 136.006 140.923 136.053 140.938C136.1 140.952 136.15 140.957 136.199 140.95L150.315 139.035C150.49 139.009 150.649 138.922 150.764 138.788C150.879 138.655 150.942 138.485 150.941 138.309V132.368C150.94 132.315 150.926 132.263 150.903 132.215C150.879 132.168 150.845 132.126 150.804 132.092L143.567 126.69C143.43 126.585 143.26 126.536 143.088 126.551C142.917 126.566 142.757 126.645 142.641 126.771L135.955 134.077C135.859 134.189 135.806 134.33 135.805 134.478Z" fill="#263238"/>
<path d="M146.804 127.898C145.787 127.312 144.716 126.828 143.605 126.452C143.448 126.401 143.28 126.395 143.12 126.436C142.96 126.477 142.816 126.563 142.703 126.684L135.93 134.09C135.92 134.099 135.914 134.111 135.911 134.125C135.909 134.138 135.912 134.152 135.918 134.164C135.924 134.176 135.934 134.186 135.947 134.191C135.959 134.197 135.973 134.199 135.986 134.196L150.697 132.205C150.948 132.205 150.948 132.343 150.948 132.343C150.947 132.229 150.923 132.116 150.879 132.011C149.988 130.245 148.561 128.806 146.804 127.898Z" fill="#455A64"/>
<g opacity="0.7">
<path opacity="0.7" d="M136.186 140.944L149.958 139.066V137.357C149.961 137.272 149.944 137.188 149.91 137.111C149.875 137.033 149.824 136.964 149.761 136.908C149.697 136.853 149.621 136.812 149.54 136.789C149.458 136.766 149.372 136.761 149.289 136.775L135.805 138.59V140.6C135.802 140.649 135.811 140.698 135.83 140.743C135.848 140.789 135.877 140.829 135.914 140.862C135.95 140.895 135.994 140.92 136.041 140.934C136.088 140.948 136.138 140.951 136.186 140.944Z" fill="#F8744E"/>
<path opacity="0.7" d="M149.289 135.842C149.473 135.814 149.641 135.722 149.763 135.582C149.886 135.443 149.955 135.264 149.959 135.078V134.039C149.961 133.954 149.944 133.87 149.91 133.793C149.876 133.715 149.825 133.646 149.761 133.59C149.697 133.535 149.621 133.494 149.54 133.471C149.458 133.448 149.373 133.443 149.289 133.457L135.805 135.272V137.67L149.289 135.842Z" fill="#F8744E"/>
</g>
<path opacity="0.2" d="M144.45 132.03C146.113 132.03 147.461 131.251 147.461 130.29C147.461 129.328 146.113 128.549 144.45 128.549C142.787 128.549 141.439 129.328 141.439 130.29C141.439 131.251 142.787 132.03 144.45 132.03Z" fill="black"/>
<path d="M145.188 127.278C145.776 127.483 146.318 127.8 146.785 128.211C147.052 128.458 147.234 128.783 147.304 129.14C147.373 129.497 147.328 129.866 147.173 130.195C147.027 130.481 146.805 130.721 146.533 130.89C146.26 131.059 145.947 131.15 145.626 131.153C145.744 130.531 145.731 129.892 145.589 129.275C145.351 128.33 145.188 127.278 145.188 127.278Z" fill="#F8744E"/>
<path opacity="0.2" d="M145.188 127.278C145.776 127.483 146.318 127.8 146.785 128.211C147.052 128.458 147.234 128.783 147.304 129.14C147.373 129.497 147.328 129.866 147.173 130.195C147.027 130.481 146.805 130.721 146.533 130.89C146.26 131.059 145.947 131.15 145.626 131.153C145.744 130.531 145.731 129.892 145.589 129.275C145.351 128.33 145.188 127.278 145.188 127.278Z" fill="black"/>
<path d="M143.98 127.228C143.755 127.548 142.96 127.729 142.428 128.073C141.995 128.283 141.659 128.65 141.489 129.1C141.398 129.363 141.405 129.649 141.507 129.907C141.609 130.166 141.8 130.379 142.046 130.508C142.672 130.79 143.849 129.826 143.98 129.476C144.044 128.728 144.044 127.976 143.98 127.228Z" fill="#9A4A4D"/>
<path d="M143.98 127.228C143.755 127.548 142.96 127.729 142.428 128.073C141.995 128.283 141.659 128.65 141.489 129.1C141.398 129.363 141.405 129.649 141.507 129.907C141.609 130.166 141.8 130.379 142.046 130.508C142.672 130.79 143.849 129.826 143.98 129.476C144.044 128.728 144.044 127.976 143.98 127.228Z" fill="#F8744E"/>
<path opacity="0.3" d="M143.98 127.228C143.755 127.548 142.96 127.729 142.428 128.073C141.995 128.283 141.659 128.65 141.489 129.1C141.398 129.363 141.405 129.649 141.507 129.907C141.609 130.166 141.8 130.379 142.046 130.508C142.672 130.79 143.849 129.826 143.98 129.476C144.044 128.728 144.044 127.976 143.98 127.228Z" fill="black"/>
<path d="M144.331 126.64C144.183 126.759 144.069 126.915 143.999 127.091C143.928 127.268 143.905 127.46 143.93 127.648C143.965 128.022 143.882 128.398 143.692 128.723C143.502 129.047 143.216 129.304 142.872 129.457C141.914 129.97 141.802 130.477 142.309 130.922C142.639 131.184 143.06 131.306 143.479 131.26C143.479 131.26 144.894 130.934 145.188 129.87C145.483 128.806 144.925 127.109 144.331 126.64Z" fill="#F8744E"/>
<path opacity="0.2" d="M144.331 126.64C144.183 126.759 144.069 126.915 143.999 127.091C143.928 127.268 143.905 127.46 143.93 127.648C143.965 128.022 143.882 128.398 143.692 128.723C143.502 129.047 143.216 129.304 142.872 129.457C141.914 129.97 141.802 130.477 142.309 130.922C142.639 131.184 143.06 131.306 143.479 131.26C143.479 131.26 144.894 130.934 145.188 129.87C145.483 128.806 144.925 127.109 144.331 126.64Z" fill="black"/>
<path d="M144.45 131.567C143.53 131.567 143.154 131.166 143.586 130.64C143.799 130.377 144.181 130.271 144.425 130.014C144.699 129.744 144.871 129.388 144.913 129.006C144.994 128.061 143.855 127.084 144.519 126.258C144.594 126.709 144.782 126.965 145.445 127.51C145.866 127.852 146.17 128.317 146.316 128.839C146.461 129.362 146.442 129.917 146.259 130.427C146.081 130.757 145.821 131.035 145.504 131.234C145.187 131.434 144.824 131.548 144.45 131.567Z" fill="#F8744E"/>
<path opacity="0.1" d="M144.45 131.567C143.53 131.567 143.154 131.166 143.586 130.64C143.799 130.377 144.181 130.271 144.425 130.014C144.699 129.744 144.871 129.388 144.913 129.006C144.994 128.061 143.855 127.084 144.519 126.258C144.594 126.709 144.782 126.965 145.445 127.51C145.866 127.852 146.17 128.317 146.316 128.839C146.461 129.362 146.442 129.917 146.259 130.427C146.081 130.757 145.821 131.035 145.504 131.234C145.187 131.434 144.824 131.548 144.45 131.567Z" fill="black"/>
<path opacity="0.2" d="M146.365 130.621C146.47 130.281 146.487 129.919 146.415 129.57C146.344 129.911 146.172 130.223 145.922 130.466C145.673 130.709 145.356 130.872 145.013 130.934C144.709 131.027 144.391 131.061 144.074 131.034C143.711 131.034 143.504 130.865 143.523 130.728L143.567 130.659L143.63 130.59L143.661 130.559L143.742 130.496H143.78L143.949 130.39L144.218 130.214L144.262 130.177C144.288 130.159 144.311 130.138 144.331 130.114L144.387 130.052C144.418 130.018 144.447 129.982 144.475 129.945L144.519 129.895C144.543 129.869 144.564 129.839 144.581 129.808C144.606 129.774 144.629 129.738 144.65 129.701C144.702 129.612 144.744 129.518 144.775 129.419C144.779 129.401 144.779 129.382 144.775 129.363C144.552 129.798 144.172 130.132 143.711 130.296C143.317 130.468 142.881 130.516 142.459 130.434C142.065 130.377 142.052 130.158 142.052 130.133C142.249 129.897 142.494 129.707 142.772 129.576C142.926 129.496 143.071 129.4 143.204 129.288C143.04 129.392 142.863 129.474 142.678 129.532C142.378 129.621 142.064 129.653 141.752 129.626C141.401 129.551 141.345 129.382 141.401 129.138C141.403 129.165 141.403 129.192 141.401 129.219C141.311 129.482 141.317 129.768 141.419 130.026C141.521 130.285 141.713 130.498 141.958 130.628C142.008 130.791 142.106 130.935 142.24 131.041C142.57 131.303 142.991 131.425 143.41 131.379C143.539 131.498 143.693 131.588 143.861 131.641C144.029 131.694 144.206 131.709 144.381 131.686C144.804 131.658 145.211 131.515 145.558 131.272C145.901 131.272 146.238 131.171 146.525 130.982C146.812 130.793 147.037 130.524 147.173 130.208C147.301 129.95 147.357 129.663 147.336 129.376C147.324 129.658 147.224 129.931 147.05 130.154C146.876 130.377 146.637 130.541 146.365 130.621Z" fill="black"/>
<path d="M223.1 256.547V176.087H220.458V256.547C220.448 256.678 220.48 256.81 220.548 256.922C220.617 257.034 220.719 257.122 220.84 257.173C221.131 257.323 221.453 257.4 221.779 257.4C222.106 257.4 222.428 257.323 222.718 257.173C222.84 257.122 222.942 257.034 223.01 256.922C223.079 256.81 223.11 256.678 223.1 256.547Z" fill="#37474F"/>
<path d="M241.88 247.508V170.385H239.232V247.508C239.222 247.638 239.252 247.769 239.319 247.881C239.387 247.993 239.488 248.082 239.608 248.134C239.9 248.279 240.221 248.354 240.547 248.354C240.873 248.354 241.194 248.279 241.486 248.134C241.61 248.085 241.715 247.998 241.786 247.885C241.856 247.773 241.89 247.64 241.88 247.508Z" fill="#37474F"/>
<path d="M201.572 247.508V170.385H204.22V247.508C204.231 247.638 204.2 247.769 204.133 247.881C204.066 247.993 203.965 248.082 203.844 248.134C203.553 248.279 203.231 248.354 202.905 248.354C202.58 248.354 202.258 248.279 201.966 248.134C201.843 248.085 201.738 247.998 201.667 247.885C201.596 247.773 201.563 247.64 201.572 247.508Z" fill="#37474F"/>
<path d="M239.226 152.312C229.736 146.834 214.355 146.834 204.865 152.312C200.12 155.048 197.753 158.641 197.753 162.228V166.61C197.753 170.203 200.12 173.79 204.865 176.532C214.355 182.009 229.736 182.009 239.226 176.532C243.971 173.79 246.337 170.203 246.337 166.61V162.228C246.337 158.641 243.971 155.048 239.226 152.312Z" fill="#455A64"/>
<path d="M239.226 150.171C229.736 144.694 214.355 144.694 204.865 150.171C200.12 152.907 197.753 156.5 197.753 160.087V164.469C197.753 168.062 200.12 171.649 204.865 174.391C214.355 179.869 229.736 179.869 239.226 174.391C243.971 171.649 246.337 168.062 246.337 164.469V160.087C246.337 156.5 243.971 152.907 239.226 150.171Z" fill="#F8744E"/>
<path opacity="0.4" d="M239.226 150.171C229.736 144.694 214.355 144.694 204.865 150.171C200.12 152.907 197.753 156.5 197.753 160.087V164.469C197.753 168.062 200.12 171.649 204.865 174.391C214.355 179.869 229.736 179.869 239.226 174.391C243.971 171.649 246.337 168.062 246.337 164.469V160.087C246.337 156.5 243.971 152.907 239.226 150.171Z" fill="black"/>
<path opacity="0.5" d="M222.042 174.115C235.46 174.115 246.337 167.835 246.337 160.087C246.337 152.339 235.46 146.058 222.042 146.058C208.625 146.058 197.747 152.339 197.747 160.087C197.747 167.835 208.625 174.115 222.042 174.115Z" fill="#F8744E"/>
<path d="M221.786 239.533C215.945 239.533 210.111 238.249 205.666 235.683C201.24 233.129 198.78 229.698 198.78 226.017C198.78 222.336 201.222 218.9 205.666 216.346C214.555 211.212 229.016 211.212 237.912 216.346C242.331 218.9 244.798 222.336 244.798 226.017C244.798 229.698 242.356 233.129 237.912 235.683C233.467 238.237 227.626 239.533 221.786 239.533ZM206.292 234.6C214.837 239.533 228.741 239.533 237.286 234.6C241.304 232.277 243.546 229.229 243.546 226.017C243.546 222.806 241.329 219.757 237.286 217.428C228.741 212.496 214.837 212.496 206.292 217.428C202.267 219.751 200.032 222.8 200.032 226.017C200.032 229.235 202.248 232.277 206.292 234.6Z" fill="#37474F"/>
<path d="M224.208 147.798C223.733 147.798 223.213 147.573 223.169 147.085C221.16 124.593 226.337 104.241 228.34 99.7279C228.468 99.5009 228.677 99.3297 228.924 99.2476C229.172 99.1655 229.441 99.1783 229.68 99.2835C229.794 99.3336 229.897 99.4059 229.983 99.4963C230.069 99.5866 230.136 99.6932 230.18 99.8097C230.224 99.9263 230.245 100.05 230.241 100.175C230.236 100.3 230.207 100.422 230.155 100.535C227.908 105.587 223.269 126.151 225.147 147.054C225.147 147.46 224.809 147.761 224.296 147.811L224.208 147.798Z" fill="#455A64"/>
<path d="M253.806 119.566L228.49 104.949L227.457 105.575C226.15 110.674 225.18 115.854 224.553 121.081C224.536 121.204 224.556 121.329 224.611 121.44C224.665 121.552 224.752 121.645 224.859 121.707L247.952 135.041L248.985 134.415C250.331 128.737 253.806 119.566 253.806 119.566Z" fill="#F8744E"/>
<path opacity="0.4" d="M253.806 119.566L228.49 104.949L227.457 105.575C226.15 110.674 225.18 115.854 224.553 121.081C224.536 121.204 224.556 121.329 224.611 121.44C224.665 121.552 224.752 121.645 224.859 121.707L247.952 135.041L248.985 134.415C250.331 128.737 253.806 119.566 253.806 119.566Z" fill="black"/>
<path opacity="0.5" d="M227.476 105.55L228.509 104.949L253.806 119.553L252.779 120.154L227.476 105.55Z" fill="#F8744E"/>
<path d="M244.553 159.981C244.034 159.981 243.614 159.793 243.614 159.442C243.614 139.679 251.464 120.48 253.868 115.071C253.917 114.956 253.988 114.852 254.077 114.764C254.166 114.677 254.272 114.608 254.388 114.562C254.504 114.516 254.629 114.494 254.753 114.496C254.878 114.499 255.002 114.526 255.116 114.577C255.23 114.628 255.333 114.701 255.418 114.792C255.504 114.883 255.57 114.991 255.614 115.108C255.658 115.225 255.677 115.35 255.672 115.475C255.667 115.599 255.637 115.722 255.583 115.835C253.217 121.162 245.473 140.049 245.492 159.442C245.492 159.63 245.073 159.981 244.553 159.981Z" fill="#455A64"/>
<path d="M250.882 104.993C250.387 104.542 249.793 104.204 249.305 103.741C248.611 103.075 248.169 102.191 248.053 101.237C247.927 100.179 248.203 99.1145 248.134 98.0566C248.076 97.3659 247.873 96.6954 247.537 96.089C247.202 95.4826 246.742 94.9542 246.187 94.5384C244.966 93.6182 243.433 93.5494 242.143 92.7856C241.341 92.3306 240.699 91.64 240.303 90.8075C239.913 89.7255 239.809 88.5609 240.002 87.4271C240.28 85.0121 240.244 82.5713 239.896 80.1655C239.4 77.3921 238.178 74.7998 236.353 72.6535C234.847 70.8157 232.928 69.361 230.751 68.4088C228.575 67.4567 226.204 67.0341 223.833 67.176L222.537 67.2699C220.421 67.4139 218.36 68.0117 216.496 69.0227L215.82 69.4108C215.78 69.4415 215.739 69.4687 215.695 69.4922C215.457 69.6362 215.225 69.7927 214.993 69.9554C214.762 70.1182 214.536 70.2935 214.311 70.475C211.751 72.5345 210.712 75.3265 209.929 78.613C208.471 83.8964 207.713 91.6088 210.286 98.357C211.882 102.545 214.968 106.038 218.111 108.611C226.124 115.196 240.378 118.627 248.841 113.337C251.821 111.465 253.887 107.722 250.882 104.993Z" fill="#455A64"/>
<path d="M219.726 67.752C212.752 68.1589 206.536 70.0807 204.84 74.976C203.143 79.8713 207.381 86.244 209.923 86.244C213.535 86.2377 219.726 67.752 219.726 67.752Z" fill="#455A64"/>
<path d="M212.84 235.864L212.07 235.739C212.07 233.31 212.258 231.094 211.682 229.942L212.84 226.988V235.864Z" fill="#263238"/>
<path d="M214.937 224.865C214.731 226.524 213.754 228.208 213.616 231.482C213.511 232.876 213.511 234.276 213.616 235.67L212.809 235.864V226.988L214.937 224.865Z" fill="#263238"/>
<path d="M195.844 237.711C195.885 238.16 196.062 238.586 196.351 238.932C196.764 239.257 198.073 240.359 202.348 240.184C206.624 240.008 208.133 238.994 209.622 237.68C211.112 236.365 211.563 232.891 211.813 231.244C212.302 228.064 213.691 226.418 214.943 224.834C215.16 224.309 215.216 223.732 215.106 223.175C215.106 223.175 211.582 222.906 209.973 226.787C208.364 230.668 207.075 235.176 203.6 236.177C201.056 236.876 198.463 237.388 195.844 237.711Z" fill="#37474F"/>
<path d="M198.085 234.036C196.758 235.138 195.763 235.62 195.85 236.666C195.938 237.711 197.04 238.206 197.922 238.493C200.001 239.163 202.386 238.95 204.489 238.619C206.593 238.287 208.959 237.367 209.898 235.363C210.146 234.777 210.327 234.163 210.436 233.536C210.768 231.454 211.348 229.42 212.164 227.476C212.494 226.66 212.903 225.878 213.385 225.141C213.954 224.358 214.637 223.507 214.762 222.512C214.862 221.685 214.249 220.502 213.441 219.225C212.526 217.792 212.102 216.1 212.233 214.405L212.859 206.893L203.325 208.965L204.577 217.404C204.902 219.613 204.063 221.942 203.544 224.058C202.964 226.415 202.102 228.693 200.977 230.844C200.712 231.398 200.37 231.912 199.963 232.371C199.377 232.97 198.75 233.526 198.085 234.036Z" fill="#FFA8A7"/>
<path d="M214.605 220.79C214.086 219.964 213.453 219.332 213.022 218.48C212.597 219.01 212.251 219.598 211.995 220.227C210.874 222.343 210.599 225.692 209.491 228.991C208.665 231.495 207.337 232.747 205.535 233.417C204.405 233.817 203.194 233.929 202.01 233.742C199.8 233.392 200.351 231.808 200.351 231.808C199.825 232.503 197.409 234.312 196.076 235.201C195.231 235.764 195.331 236.991 195.85 237.705C196.476 238.249 198.536 239.583 203.851 238.925C208.571 238.337 209.716 236.19 210.179 235.219C210.677 233.797 211.035 232.329 211.25 230.837C211.545 229.194 212.137 227.618 212.996 226.186C213.094 226.018 213.201 225.855 213.316 225.698C213.641 225.235 214.023 224.728 214.455 224.227C214.793 223.833 215.081 223.651 215.162 223.275C215.238 222.845 215.228 222.404 215.132 221.977C215.037 221.551 214.858 221.147 214.605 220.79Z" fill="#F8744E"/>
<path opacity="0.4" d="M214.605 220.79C214.086 219.964 213.453 219.332 213.022 218.48C212.597 219.01 212.251 219.598 211.995 220.227C210.874 222.343 210.599 225.692 209.491 228.991C208.665 231.495 207.337 232.747 205.535 233.417C204.405 233.817 203.194 233.929 202.01 233.742C199.8 233.392 200.351 231.808 200.351 231.808C199.825 232.503 197.409 234.312 196.076 235.201C195.231 235.764 195.331 236.991 195.85 237.705C196.476 238.249 198.536 239.583 203.851 238.925C208.571 238.337 209.716 236.19 210.179 235.219C210.677 233.797 211.035 232.329 211.25 230.837C211.545 229.194 212.137 227.618 212.996 226.186C213.094 226.018 213.201 225.855 213.316 225.698C213.641 225.235 214.023 224.728 214.455 224.227C214.793 223.833 215.081 223.651 215.162 223.275C215.238 222.845 215.228 222.404 215.132 221.977C215.037 221.551 214.858 221.147 214.605 220.79Z" fill="black"/>
<path d="M198.58 225.504L197.803 225.398C197.735 222.975 197.854 220.753 197.246 219.62L198.317 216.634L198.58 225.504Z" fill="#263238"/>
<path d="M200.383 214.449C200.226 216.108 199.293 217.823 199.256 221.103C199.191 222.498 199.231 223.896 199.375 225.285L198.58 225.504L198.317 216.633L200.383 214.449Z" fill="#263238"/>
<path d="M181.671 227.864C181.725 228.313 181.915 228.734 182.216 229.072C182.635 229.385 183.975 230.399 188.238 230.111C192.501 229.823 193.997 228.809 195.443 227.463C196.889 226.117 197.246 222.624 197.447 220.972C197.841 217.779 199.156 216.089 200.383 214.474C200.586 213.945 200.625 213.367 200.495 212.815C200.495 212.815 196.965 212.646 195.487 216.571C194.01 220.496 192.833 225.041 189.39 226.155C186.862 226.912 184.282 227.483 181.671 227.864Z" fill="#37474F"/>
<path d="M183.806 224.108C182.51 225.247 181.527 225.754 181.653 226.794C181.778 227.833 182.905 228.302 183.768 228.559C185.872 229.185 188.244 228.891 190.335 228.502C192.426 228.114 194.774 227.1 195.65 225.091C195.883 224.496 196.045 223.876 196.132 223.244C196.407 221.155 196.93 219.106 197.691 217.141C197.994 216.314 198.377 215.519 198.836 214.768C199.387 213.967 200.051 213.097 200.138 212.101C200.22 211.269 199.569 210.104 198.73 208.859V208.827C197.772 207.425 197.299 205.747 197.384 204.051L197.772 196.495L188.307 198.843L189.797 207.237C190.191 209.441 189.415 211.795 188.958 213.923C188.45 216.306 187.653 218.619 186.585 220.809C186.339 221.369 186.014 221.892 185.621 222.361C185.058 222.985 184.451 223.569 183.806 224.108Z" fill="#FFA8A7"/>
<path d="M199.932 210.38C199.344 209.656 198.794 208.901 198.286 208.12C197.875 208.659 197.546 209.256 197.309 209.891C196.251 212.032 196.057 215.394 195.068 218.737C194.317 221.241 193.027 222.58 191.249 223.275C190.131 223.709 188.921 223.856 187.731 223.701C185.509 223.413 186.01 221.823 186.01 221.823C185.503 222.537 183.149 224.421 181.841 225.341C181.008 225.923 181.139 227.15 181.684 227.845C182.31 228.371 184.426 229.648 189.716 228.834C194.417 228.114 195.5 225.93 195.938 224.947C196.393 223.505 196.708 222.023 196.877 220.521C197.123 218.871 197.668 217.28 198.486 215.826C198.592 215.644 198.692 215.475 198.793 215.325C199.106 214.856 199.475 214.336 199.894 213.823C200.22 213.422 200.477 213.234 200.57 212.852C200.632 212.419 200.607 211.977 200.498 211.552C200.388 211.128 200.196 210.73 199.932 210.38Z" fill="#F8744E"/>
<path opacity="0.4" d="M199.932 210.38C199.344 209.656 198.794 208.901 198.286 208.12C197.875 208.659 197.546 209.256 197.309 209.891C196.251 212.032 196.057 215.394 195.068 218.737C194.317 221.241 193.027 222.58 191.249 223.275C190.131 223.709 188.921 223.856 187.731 223.701C185.509 223.413 186.01 221.823 186.01 221.823C185.503 222.537 183.149 224.421 181.841 225.341C181.008 225.923 181.139 227.15 181.684 227.845C182.31 228.371 184.426 229.648 189.716 228.834C194.417 228.114 195.5 225.93 195.938 224.947C196.393 223.505 196.708 222.023 196.877 220.521C197.123 218.871 197.668 217.28 198.486 215.826C198.592 215.644 198.692 215.475 198.793 215.325C199.106 214.856 199.475 214.336 199.894 213.823C200.22 213.422 200.477 213.234 200.57 212.852C200.632 212.419 200.607 211.977 200.498 211.552C200.388 211.128 200.196 210.73 199.932 210.38Z" fill="black"/>
<path d="M239.896 145.357C239.252 142.708 238.267 140.153 236.966 137.758C227.895 142.071 218.781 141.946 209.641 139.01C209.967 140.005 207.475 142.334 200.877 146.897C196.095 150.196 188.633 154.916 184.977 157.821C183.099 159.292 181.19 161.189 182.022 166.51C183.149 173.715 188.282 198.955 188.282 198.955C194.492 201.165 197.672 197.497 197.672 197.497C197.672 197.497 198.649 187.881 199.438 180.138C200.226 172.394 198.023 168.1 198.023 168.1C198.023 168.1 216.058 161.646 223.1 160.193C234.894 157.752 241.448 156.268 239.896 145.357Z" fill="#37474F"/>
<path d="M208.978 145.758C208.978 145.758 211.732 151.899 215.369 153.408L202.611 166.516L198.054 168.112L202.267 165.527L212.051 153.483C212.051 153.483 208.94 149.99 208.978 145.758Z" fill="#263238"/>
<path d="M196.946 179.436C197.426 181.908 198.042 184.351 198.792 186.754C199.018 184.57 199.249 182.285 199.469 180.144C199.708 177.913 199.695 175.662 199.431 173.433L198.235 172.112C196.858 173.928 196.069 175.011 196.946 179.436Z" fill="#263238"/>
<path d="M239.921 145.507C239.924 145.457 239.924 145.407 239.921 145.357C239.277 142.708 238.292 140.153 236.991 137.758C227.92 142.071 218.806 141.946 209.666 139.01C209.528 140.08 209.798 142.14 210.292 144.475C211.588 151.254 215.344 153.408 215.344 153.408C209.879 158.772 202.455 166.353 199.068 170.516C198.135 171.674 197.234 174.059 197.778 177.402C198.962 184.601 203.544 210.968 203.544 210.968C209.773 212.64 212.483 210.223 212.483 210.223C212.483 210.223 213.929 199.894 214.718 192.151C215.144 187.307 214.377 182.432 212.483 177.953C212.483 177.953 223.307 172.263 229.836 168.087C240.071 161.558 242.162 154.378 239.921 145.507Z" fill="#37474F"/>
<path d="M216.101 101.594C210.918 101.431 208.677 103.321 205.416 109.732C202.874 114.74 200.351 120.035 198.254 123.685C193.202 123.303 183.668 121.989 180.144 120.63C179.486 120.376 178.942 119.894 178.61 119.272C177.848 117.865 176.814 116.625 175.568 115.622C174.548 114.714 174.316 113.531 173.809 113.556C173.302 113.581 172.707 114.383 172.976 115.535C173.357 116.423 173.815 117.276 174.347 118.082C173.521 118.251 170.654 116.981 168.857 115.002C166.472 112.373 164.181 113.65 164.475 118.039C164.569 119.61 166.81 123.597 172.826 126.464C175.109 127.459 177.465 128.273 179.875 128.9C186.135 130.734 192.339 132.793 196.858 133.25C200.364 133.607 202.292 133.876 204.833 131.059C212.214 122.759 215.056 115.184 218.267 109.775L216.101 101.594Z" fill="#FFA8A7"/>
<path d="M216.878 101.537C213.842 101.343 211.688 101.731 209.891 103.058C208.095 104.386 207.387 105.656 205.578 108.855C203.769 112.054 198.141 123.497 198.141 123.497L191.349 122.871C191.689 124.416 191.689 126.016 191.349 127.56C191.128 129.086 190.508 130.526 189.553 131.735C189.553 131.735 193.885 132.987 196.796 133.426C200.902 134.052 202.348 134.327 204.808 131.41C207.269 128.493 216.339 117.062 216.339 117.062L216.878 101.537Z" fill="#37474F"/>
<path d="M236.29 135.598C235.752 134.74 235.088 133.206 235.32 132.105C235.67 130.483 236.572 125.688 236.572 125.688L234.881 118.552C234.542 117.4 234.278 116.227 234.093 115.04C233.235 111.954 232.471 106.47 234.431 103.459L230.756 102.645C227.285 101.827 223.722 101.469 220.158 101.581L216.865 101.537C216.865 101.537 209.265 110.095 207.669 113.932C206.755 116.142 205.572 120.136 209.741 124.843C209.854 127.516 209.397 131.898 209.309 134.027C209.222 136.155 209.028 138.759 208.758 140.725C210.01 143.479 214.524 148.03 224.321 147.717C234.475 147.392 239.345 142.321 239.345 142.321C238.653 139.946 237.624 137.682 236.29 135.598Z" fill="#F8744E"/>
<path opacity="0.1" d="M218.055 124.399C218.055 124.399 220.659 127.397 225.955 126.277C231.251 125.156 232.14 121.118 232.14 121.118C232.14 121.118 232.659 126.277 226.33 127.572C220.002 128.868 218.055 124.399 218.055 124.399Z" fill="black"/>
<path d="M249.273 133.338C248.309 128.912 246.312 121.306 244.303 113.419C242.131 104.892 240.121 104.817 234.913 103.853C230.994 108.655 234.913 119.873 234.913 119.873L239.389 135.366C236.559 140.374 234.224 145.614 230.944 149.564C230.38 150.246 229.366 150.19 228.484 150.315C226.124 150.565 225.241 151.066 223.181 151.83C221.573 152.425 220.527 152.262 220.496 152.688C220.458 153.232 220.859 154.34 222.374 154.566C223.3 154.654 224.233 154.612 225.147 154.44C223.72 155.647 222.131 156.648 220.427 157.414C216.377 159.292 215.056 162.71 220.659 163.755C224.039 164.381 227.808 163.599 233.01 158.641C235.238 156.529 237.286 154.234 239.132 151.78C243.733 145.376 249.874 137.013 249.273 133.338Z" fill="#FFA8A7"/>
<path d="M234.443 103.459C237.273 103.997 239.57 104.467 240.735 105.337C241.899 106.207 242.613 106.852 243.614 109.719C244.616 112.586 248.985 130.208 249.311 131.742C249.636 133.275 250.143 134.634 248.641 137.614C247.139 140.593 242.825 146.559 242.825 146.559C242.825 146.559 240.653 143.385 235.652 142.208L238.706 135.416L233.072 116.874C233.072 116.874 230.368 108.229 234.443 103.459Z" fill="#37474F"/>
<path d="M235.476 66.9819L234.449 70.9195C234.705 70.9994 234.973 71.0267 235.239 70.9999C235.505 70.973 235.763 70.8925 235.997 70.7632C236.231 70.6339 236.437 70.4585 236.601 70.2475C236.765 70.0366 236.885 69.7946 236.953 69.536C237.082 69.0021 237 68.4392 236.725 67.9638C236.45 67.4885 236.003 67.1369 235.476 66.9819Z" fill="#455A64"/>
<path d="M238.857 70.5627L234.788 70.713C234.784 70.9799 234.835 71.2448 234.937 71.4916C235.039 71.7384 235.19 71.9619 235.38 72.1486C235.571 72.3353 235.798 72.4814 236.047 72.5779C236.296 72.6743 236.562 72.7193 236.829 72.7099C237.378 72.6825 237.896 72.4438 238.274 72.0437C238.652 71.6437 238.861 71.1131 238.857 70.5627Z" fill="#455A64"/>
<path d="M214.036 74.1057C212.358 75.1011 210.28 79.3203 210.486 88.1657C210.662 95.6777 213.091 97.5181 214.311 98.0502C215.532 98.5823 217.886 98.2568 220.171 97.8812V102.376C220.171 102.376 218.074 104.21 218.293 106.276C218.512 108.342 222.862 108.824 225.805 106.808C228.747 104.792 229.604 102.977 229.604 102.977V91.9029C229.604 91.9029 230.856 93.23 233.073 91.7151C233.553 91.4104 233.964 91.0089 234.281 90.5364C234.597 90.0638 234.812 89.5304 234.911 88.9703C235.01 88.4102 234.991 87.8356 234.856 87.2832C234.72 86.7308 234.471 86.2127 234.124 85.7618C233.166 84.6288 230.713 84.5474 229.536 86.3065C229.536 86.3065 226.099 86.463 221.241 83.8025C216.383 81.142 214.718 76.4845 214.036 74.1057Z" fill="#FFA8A7"/>
<path d="M219.726 86.2814C219.725 86.4652 219.778 86.6452 219.878 86.7992C219.979 86.9531 220.122 87.0742 220.291 87.1475C220.459 87.2208 220.646 87.2429 220.827 87.2113C221.008 87.1796 221.176 87.0956 221.309 86.9695C221.443 86.8434 221.537 86.6808 221.579 86.5019C221.621 86.323 221.61 86.1357 221.547 85.9632C221.483 85.7906 221.371 85.6404 221.223 85.5311C221.075 85.4219 220.899 85.3585 220.715 85.3487C220.589 85.3445 220.463 85.3654 220.345 85.4101C220.227 85.4548 220.118 85.5224 220.026 85.6091C219.935 85.6958 219.861 85.7999 219.809 85.9152C219.758 86.0306 219.729 86.1551 219.726 86.2814Z" fill="#263238"/>
<path d="M219.1 92.2661L216.389 93.13C216.438 93.3117 216.523 93.4817 216.639 93.6297C216.755 93.7778 216.9 93.9008 217.065 93.9914C217.23 94.0821 217.412 94.1384 217.599 94.1571C217.786 94.1758 217.975 94.1565 218.155 94.1003C218.519 93.977 218.822 93.7167 218.998 93.3744C219.175 93.0322 219.211 92.6347 219.1 92.2661Z" fill="#F28F8F"/>
<path d="M211.544 82.9639L213.792 82.3754C213.76 82.2276 213.699 82.0877 213.612 81.9642C213.525 81.8407 213.413 81.7363 213.285 81.6572C213.156 81.5782 213.012 81.5262 212.863 81.5043C212.713 81.4825 212.561 81.4914 212.414 81.5303C212.118 81.6193 211.865 81.8151 211.704 82.0799C211.543 82.3447 211.486 82.6596 211.544 82.9639Z" fill="#263238"/>
<path d="M220.465 82.4253L222.549 83.4457C222.623 83.3136 222.669 83.1677 222.685 83.0171C222.7 82.8665 222.684 82.7144 222.639 82.5701C222.593 82.4258 222.518 82.2924 222.419 82.1781C222.319 82.0639 222.198 81.9712 222.061 81.9057C221.778 81.7792 221.458 81.7624 221.163 81.8584C220.868 81.9543 220.619 82.1564 220.465 82.4253Z" fill="#263238"/>
<path d="M211.776 85.5993C211.774 85.7846 211.826 85.9664 211.926 86.1222C212.027 86.278 212.171 86.4009 212.34 86.4755C212.51 86.5502 212.698 86.5734 212.88 86.5423C213.063 86.5111 213.232 86.4269 213.367 86.3002C213.503 86.1735 213.598 86.0099 213.641 85.8296C213.684 85.6494 213.673 85.4605 213.609 85.2864C213.546 85.1123 213.432 84.9608 213.283 84.8506C213.134 84.7404 212.956 84.6764 212.771 84.6665C212.645 84.6624 212.518 84.6832 212.4 84.7278C212.281 84.7724 212.173 84.84 212.08 84.9266C211.988 85.0132 211.913 85.1172 211.861 85.2327C211.809 85.3481 211.78 85.4727 211.776 85.5993Z" fill="#263238"/>
<path d="M217.015 85.0608L216.865 90.7386L213.873 89.8121L217.015 85.0608Z" fill="#F28F8F"/>
<path d="M220.17 97.8812C222.587 97.562 227.545 96.1347 228.308 94.1753C227.996 95.1671 227.389 96.0405 226.568 96.6793C225.085 97.9313 220.158 99.3774 220.158 99.3774L220.17 97.8812Z" fill="#F28F8F"/>
<path d="M90.1878 256.547V176.087H92.8358V256.547C92.8465 256.678 92.8161 256.808 92.7487 256.921C92.6813 257.033 92.5804 257.121 92.4602 257.173C92.1693 257.321 91.8475 257.398 91.5212 257.398C91.1948 257.398 90.8731 257.321 90.5822 257.173C90.4585 257.124 90.3535 257.037 90.2826 256.925C90.2117 256.812 90.1785 256.68 90.1878 256.547Z" fill="#37474F"/>
<path d="M71.4077 247.508V170.385H74.0494V247.508C74.0602 247.639 74.0297 247.769 73.9623 247.881C73.895 247.994 73.7941 248.082 73.6738 248.134C73.3823 248.28 73.0608 248.356 72.7348 248.356C72.4088 248.356 72.0873 248.28 71.7958 248.134C71.6733 248.084 71.5697 247.997 71.5 247.884C71.4302 247.772 71.3979 247.64 71.4077 247.508Z" fill="#37474F"/>
<path d="M111.697 247.508V170.385H109.055V247.508C109.045 247.639 109.075 247.769 109.142 247.881C109.21 247.994 109.311 248.082 109.431 248.134C109.722 248.28 110.044 248.356 110.37 248.356C110.696 248.356 111.017 248.28 111.309 248.134C111.431 248.084 111.535 247.997 111.605 247.884C111.675 247.772 111.707 247.64 111.697 247.508Z" fill="#37474F"/>
<path d="M74.0681 152.312C83.552 146.834 98.9391 146.834 108.429 152.312C113.168 155.048 115.541 158.641 115.534 162.228V166.61C115.534 170.203 113.168 173.79 108.423 176.532C98.9391 182.009 83.552 182.009 74.0681 176.532C69.3231 173.79 66.9568 170.203 66.9568 166.61V162.228C66.9818 158.641 69.3231 155.048 74.0681 152.312Z" fill="#455A64"/>
<path d="M74.0681 150.171C83.552 144.694 98.9391 144.694 108.429 150.171C113.168 152.907 115.541 156.5 115.534 160.087V164.469C115.534 168.062 113.168 171.649 108.423 174.391C98.9391 179.869 83.552 179.869 74.0681 174.391C69.3231 171.649 66.9568 168.062 66.9568 164.469V160.087C66.9818 156.5 69.3231 152.907 74.0681 150.171Z" fill="#F8744E"/>
<path opacity="0.4" d="M74.0681 150.171C83.552 144.694 98.9391 144.694 108.429 150.171C113.168 152.907 115.541 156.5 115.534 160.087V164.469C115.534 168.062 113.168 171.649 108.423 174.391C98.9391 179.869 83.552 179.869 74.0681 174.391C69.3231 171.649 66.9568 168.062 66.9568 164.469V160.087C66.9818 156.5 69.3231 152.907 74.0681 150.171Z" fill="black"/>
<path opacity="0.5" d="M91.2457 174.116C104.664 174.116 115.541 167.835 115.541 160.087C115.541 152.339 104.664 146.058 91.2457 146.058C77.828 146.058 66.9507 152.339 66.9507 160.087C66.9507 167.835 77.828 174.116 91.2457 174.116Z" fill="#F8744E"/>
<path d="M91.5086 239.533C85.668 239.533 79.8274 238.249 75.3828 235.683C70.9382 233.116 68.4968 229.698 68.4968 226.017C68.4968 222.336 70.932 218.9 75.3828 216.346C84.272 211.212 98.7389 211.212 107.628 216.346C112.054 218.9 114.514 222.336 114.514 226.017C114.514 229.698 112.079 233.129 107.628 235.683C103.183 238.249 97.3429 239.533 91.5086 239.533ZM91.5086 213.729C85.8746 213.729 80.2844 214.981 76.0088 217.428C71.9899 219.751 69.7488 222.8 69.7488 226.017C69.7488 229.235 71.9649 232.277 76.0088 234.6C84.5537 239.533 98.4572 239.533 107.002 234.6C111.021 232.277 113.262 229.229 113.262 226.017C113.262 222.806 111.046 219.757 107.002 217.428C102.733 214.962 97.1175 213.729 91.5086 213.729Z" fill="#37474F"/>
<path d="M89.0798 147.799C89.5618 147.799 90.0751 147.573 90.1189 147.085C92.1284 124.593 86.9576 104.242 84.9482 99.728C84.822 99.5004 84.6149 99.3285 84.368 99.2462C84.1211 99.1639 83.8523 99.1772 83.6148 99.2836C83.5006 99.3337 83.3976 99.406 83.3117 99.4964C83.2258 99.5867 83.1587 99.6933 83.1145 99.8098C83.0702 99.9264 83.0495 100.051 83.0538 100.175C83.058 100.3 83.087 100.422 83.139 100.536C85.3801 105.587 90.025 126.152 88.147 147.054C88.147 147.461 88.4788 147.761 88.9984 147.811L89.0798 147.799Z" fill="#455A64"/>
<path d="M59.47 119.566L84.7729 104.961L85.8058 105.587C87.1096 110.688 88.0799 115.867 88.7104 121.093C88.7271 121.216 88.7069 121.342 88.6523 121.453C88.5977 121.565 88.5111 121.657 88.4037 121.719L65.3106 135.053L64.2777 134.427C62.9631 128.737 59.47 119.566 59.47 119.566Z" fill="#F8744E"/>
<path opacity="0.4" d="M59.47 119.566L84.7729 104.961L85.8058 105.587C87.1096 110.688 88.0799 115.867 88.7104 121.093C88.7271 121.216 88.7069 121.342 88.6523 121.453C88.5977 121.565 88.5111 121.657 88.4037 121.719L65.3106 135.053L64.2777 134.427C62.9631 128.737 59.47 119.566 59.47 119.566Z" fill="black"/>
<path opacity="0.5" d="M85.8182 105.55L84.7853 104.949L59.4824 119.554L60.5153 120.155L85.8182 105.55Z" fill="#F8744E"/>
<path d="M68.7347 159.981C69.2543 159.981 69.6737 159.793 69.6737 159.442C69.6737 139.679 61.83 120.48 59.4261 115.071C59.3172 114.86 59.1324 114.698 58.9088 114.618C58.6853 114.538 58.4396 114.545 58.2213 114.639C58.003 114.732 57.8284 114.905 57.7325 115.123C57.6366 115.34 57.6266 115.586 57.7046 115.81C60.0772 121.137 67.8145 140.024 67.7957 159.417C67.7957 159.63 68.2339 159.981 68.7347 159.981Z" fill="#455A64"/>
<path d="M90.6133 66.7566L90.5319 66.8067C86.8761 69.1542 82.7132 69.8804 79.4392 72.9415C77.9354 74.2962 76.7595 75.9752 76.0003 77.8515C75.2411 79.7277 74.9186 81.752 75.0572 83.7713C75.4328 92.3788 82.3814 96.7984 84.7289 99.3274C84.8416 99.4463 85.6366 99.365 85.7931 99.3712L88.1719 99.4839C88.7478 99.4839 89.474 99.8157 90.0499 99.6467C90.7761 99.415 91.3019 98.4573 91.7464 97.8876C95.2395 93.2364 101.005 91.0392 104.755 86.6196C106.05 85.0922 107.315 83.452 107.816 81.5177C108.317 79.5834 107.885 77.2672 106.276 76.0778C106.8 75.3674 107.094 74.5131 107.118 73.6303C107.141 72.7475 106.893 71.8788 106.407 71.1415C105.921 70.4042 105.221 69.8339 104.4 69.5076C103.579 69.1813 102.678 69.1148 101.819 69.317C102.526 67.7269 101.668 65.7362 100.191 64.816C99.4264 64.3962 98.5815 64.1429 97.7119 64.0727C96.8423 64.0026 95.9677 64.1173 95.1456 64.4091C93.5358 64.9836 92.0112 65.7732 90.6133 66.7566Z" fill="#263238"/>
<path d="M84.5912 102.038C83.0763 104.667 79.5018 105.456 76.6159 103.791C73.7301 102.126 72.6283 98.6388 74.1495 96.0033C75.6707 93.3679 79.2389 92.5916 82.1248 94.2568C85.0106 95.922 86.1124 99.3837 84.5912 102.038Z" fill="#263238"/>
<path d="M106.314 187.975C103.666 187.349 101.137 189.227 100.842 189.891C100.442 190.786 100.341 192.683 101.187 195.118C101.895 197.532 102.033 200.078 101.587 202.555C101.162 204.658 99.5778 209.848 101.437 212.74C103.296 215.632 107.803 218.468 109.888 215.006C110.564 213.873 109.888 209.616 109.725 206.549C109.387 200.433 109.262 194.379 109.262 194.379L106.314 187.975Z" fill="#263238"/>
<path d="M104.955 192.683C105.092 195.648 105.002 198.62 104.686 201.572C104.291 204.79 104.742 206.987 105.7 208.546C106.758 210.261 109.731 211.482 109.725 208.12C109.725 205.779 109.262 194.379 109.262 194.379L104.955 192.683Z" fill="#B16668"/>
<path opacity="0.15" d="M101.85 188.927C101.512 190.899 102.194 195.756 104.41 200.464C106.576 205.078 109.7 211.106 110.107 214.286C110.332 212.871 110.013 210.211 109.819 207.844C109.819 207.794 109.819 207.744 109.819 207.694C109.819 207.644 109.819 207.419 109.819 207.281C109.819 207.143 109.819 207.156 109.819 207.1C109.819 206.924 109.819 206.749 109.788 206.58C109.681 204.664 109.6 202.761 109.531 201.046C109.475 199.675 109.437 198.423 109.406 197.384C109.406 196.864 109.406 196.401 109.362 196.001C109.362 195.8 109.362 195.619 109.362 195.45C109.362 194.786 109.362 194.411 109.362 194.411L106.414 188.007C106.238 187.963 106.069 187.938 105.9 187.913C104.472 187.748 103.032 188.108 101.85 188.927Z" fill="black"/>
<path d="M120.893 151.811C113.5 146.115 104.536 140.744 104.536 140.744L94.4634 151.292L103.096 160.056L116.367 169.02C114.816 170.553 113.554 172.353 112.642 174.335C112.142 175.412 111.34 177.584 110.483 180.044L114.921 195.312C114.921 195.312 124.198 182.166 129.444 173.221C133.607 166.115 132.668 162.892 131.998 161.859C130.208 159.123 128.956 158.021 120.893 151.811Z" fill="#37474F"/>
<path d="M113.306 166.954C112.617 165.984 111.891 165.076 111.165 164.162C108.417 160.801 101.262 152.575 101.262 152.575L100.01 153.345L105.75 161.859L113.306 166.954Z" fill="#263238"/>
<path d="M117.362 191.819C117.362 186.348 117.268 178.717 117.068 176.012C116.878 173.963 116.273 171.974 115.29 170.166C114.37 171.277 113.575 172.486 112.918 173.771L116.317 193.334L117.362 191.819Z" fill="#263238"/>
<path d="M110.289 218.474C109.663 218.367 109.481 219.475 108.936 220.853C108.298 222.163 108.069 223.636 108.279 225.078C108.63 226.925 111.409 227.582 112.561 230.117C113.713 232.653 115.246 237.116 120.073 239.076C124.899 241.035 129.062 240.033 130.27 238.7C131.479 237.367 130.896 235.795 127.979 233.385C124.899 230.825 124.029 230.08 124.029 230.08L110.289 218.474Z" fill="#263238"/>
<path d="M117.963 210.768C118.317 213.831 118.852 216.87 119.566 219.87C120.505 223.225 122.333 226.562 124.449 229.754C124.912 230.449 125.995 231.77 126.371 232.327C126.463 232.44 126.529 232.572 126.564 232.713C126.6 232.854 126.604 233.002 126.576 233.145C126.548 233.288 126.488 233.423 126.402 233.54C126.316 233.657 126.204 233.754 126.076 233.823C124.824 234.737 120.117 234.393 117.744 232.089C115.372 229.786 113.519 225.285 112.154 223.507C111.643 222.843 111.167 222.154 110.727 221.441C110.292 220.796 110.101 220.017 110.188 219.244C110.415 218.247 110.479 217.219 110.376 216.202C110.213 214.838 109.969 213.485 109.644 212.151L117.963 210.768Z" fill="#B16668"/>
<path d="M75.1198 139.773C73.4734 144.731 72.3716 146.409 73.4108 151.817C74.4499 157.226 79.796 162.24 86.4003 167.317C91.859 171.518 99.9281 177.602 101.593 178.585C103.258 179.568 103.309 180.689 102.626 184.025C101.944 187.362 102.401 193.021 105.255 200.395C108.279 208.189 109.825 213.422 109.825 213.422C111.254 213.887 112.773 214.003 114.256 213.763C115.739 213.522 117.143 212.931 118.351 212.039C118.351 212.039 115.966 178.16 115.034 173.565C114.101 168.97 99.3835 152.619 99.3835 152.619C99.3835 152.619 102.595 145.626 104.554 140.725L75.1198 139.773Z" fill="#37474F"/>
<path d="M104.542 148.143C104.542 148.143 103.052 151.955 99.991 153.345L101.193 154.703C102.188 153.913 103.003 152.919 103.581 151.787C104.158 150.655 104.486 149.412 104.542 148.143Z" fill="#263238"/>
<path d="M97.1865 101.594C102.376 101.431 104.617 103.321 107.872 109.732C110.42 114.74 112.943 120.035 115.034 123.685C120.092 123.303 129.62 121.989 133.15 120.63C133.807 120.378 134.35 119.895 134.678 119.272C135.442 117.865 136.478 116.625 137.726 115.622C138.74 114.714 138.978 113.531 139.479 113.556C139.98 113.581 140.587 114.383 140.318 115.535C139.933 116.42 139.474 117.273 138.947 118.082C139.773 118.251 142.64 116.981 144.431 115.002C146.822 112.373 149.113 113.65 148.844 118.039C148.75 119.61 146.509 123.597 140.487 126.464C138.205 127.461 135.848 128.275 133.438 128.9C127.178 130.734 120.981 132.793 116.455 133.25C112.955 133.607 111.027 133.876 108.486 131.059C101.08 122.79 98.2319 115.215 95.0205 109.807L97.1865 101.594Z" fill="#B16668"/>
<path d="M97.1863 101.594C99.7278 101.343 101.449 101.744 103.096 102.777C104.742 103.81 106.163 105.982 106.852 107.159C107.108 109.231 105.856 114.502 101.111 117.5L97.1863 101.594Z" fill="#455A64"/>
<path d="M76.998 135.598C77.5364 134.74 78.1999 133.207 77.962 132.105C77.6177 130.483 76.71 125.688 76.71 125.688L75.5582 120.78C75.5582 120.78 78.7696 115.772 79.2015 113.118C79.6335 110.464 79.5959 108.58 78.394 103.822L83.9028 102.833C86.9108 102.049 90.009 101.664 93.1175 101.687L97.1865 101.594C97.1865 101.594 104.698 109.512 105.85 112.993C106.589 115.272 107.484 119.409 104.066 124.336C103.96 127.009 103.891 131.917 103.979 134.045C104.066 136.174 104.267 138.778 104.536 140.744C103.284 143.498 98.7703 148.049 88.9671 147.736C78.8197 147.41 73.9431 142.34 73.9431 142.34C74.6303 139.957 75.6593 137.686 76.998 135.598Z" fill="#F8744E"/>
<path d="M100.511 138.665C99.9976 138.638 99.4953 138.508 99.0332 138.283C98.4072 137.958 97.9064 137.182 97.5245 135.898C97.199 134.809 96.7546 132.462 97.3868 131.354C98.1944 129.945 99.9972 130.102 101.193 130.208L101.606 130.239L101.475 132.117L101.03 132.086C100.36 132.023 99.2335 131.929 99.0269 132.286C98.7014 133 99.3462 136.155 99.9221 136.606C100.483 136.81 101.092 136.838 101.669 136.687L102.151 138.521C101.614 138.651 101.061 138.7 100.511 138.665Z" fill="#E6E6E6"/>
<path d="M101.343 128.242C101.518 127.666 102.138 127.141 103.221 126.765C106.07 125.931 109.124 126.153 111.822 127.391C112.818 127.904 113.362 128.512 113.462 129.106H113.494C113.631 132.981 112.636 137.388 111.096 139.748C111.084 139.764 111.074 139.781 111.065 139.798V139.83C110.764 140.26 110.35 140.6 109.869 140.812C108.822 141.256 107.684 141.445 106.55 141.366C105.415 141.286 104.316 140.94 103.34 140.355C102.898 140.076 102.538 139.685 102.295 139.222V139.185V139.129C101.099 136.568 100.723 132.067 101.393 128.255L101.343 128.242Z" fill="#F5F5F5"/>
<path d="M103.202 126.765C100.755 127.629 100.636 129.307 102.939 130.521C105.641 131.753 108.695 131.975 111.547 131.147C113.994 130.277 114.107 128.605 111.803 127.391C109.105 126.153 106.051 125.931 103.202 126.765Z" fill="#FAFAFA"/>
<path d="M103.985 127.472C102.025 128.011 101.944 129.106 103.816 129.914C106.034 130.744 108.446 130.911 110.758 130.396C112.724 129.851 112.799 128.762 110.927 127.954C108.709 127.121 106.297 126.953 103.985 127.472Z" fill="#E6E6E6"/>
<path d="M103.916 128.956C103.566 129.047 103.23 129.188 102.921 129.375C103.201 129.603 103.513 129.789 103.847 129.926C106.066 130.756 108.478 130.924 110.789 130.408C111.141 130.32 111.476 130.178 111.785 129.989C111.505 129.763 111.192 129.579 110.858 129.444C108.64 128.612 106.229 128.442 103.916 128.956Z" fill="#37474F"/>
<path d="M70.7379 144.687C79.577 145.72 101.155 144.161 101.155 144.161C104.323 143.961 108.993 143.535 111.171 141.269C112.699 139.704 113.525 136.887 113.738 135.742C114.276 132.937 110.476 136.167 107.334 136.293C105.168 136.275 103.032 135.786 101.074 134.859C100.967 133.941 100.913 133.017 100.911 132.092C99.4838 132.092 98.357 136.355 97.1926 137.144C95.7779 138.096 74.6566 134.052 74.6566 134.052L77.6614 121.813C78.0641 119.702 78.6334 117.625 79.3642 115.603C80.6537 111.922 80.4284 109.149 78.3876 103.822C78.3876 103.822 72.4594 104.266 70.7316 107.86C69.0039 111.453 68.021 116.624 66.6376 123.51C65.2541 130.396 64.3715 139.36 64.7596 140.95C65.2792 143.423 67.3199 144.287 70.7379 144.687Z" fill="#B16668"/>
<path d="M78.394 103.822C75.264 103.822 71.3139 104.949 70.3686 107.716C69.7447 109.59 69.2263 111.498 68.8162 113.431C71.3702 113.969 75.3391 116.261 77.6678 121.813C77.6678 121.813 78.3314 119.973 79.5458 116.336C81.6053 109.731 79.4519 105.324 78.394 103.822Z" fill="#455A64"/>
<path opacity="0.1" d="M95.2332 124.399C95.2332 124.399 92.6353 127.397 87.3393 126.277C82.0434 125.156 81.1545 121.118 81.1545 121.118C81.1545 121.118 80.6286 126.277 86.9637 127.572C93.1987 128.862 95.2332 124.399 95.2332 124.399Z" fill="black"/>
<path d="M99.2585 74.106C100.936 75.1013 103.014 79.3205 102.802 88.1659C102.633 95.6779 100.204 97.5184 98.983 98.0505C97.7623 98.5826 95.4086 98.257 93.1174 97.8814V102.376C93.1174 102.376 96.2787 106.051 96.0847 108.117C95.8906 110.182 91.5149 110.664 88.5727 108.649C86.6563 107.267 85.0115 105.544 83.7212 103.566V91.9031C83.7212 91.9031 82.4692 93.2303 80.2531 91.7153C79.7704 91.413 79.3562 91.0129 79.0374 90.5409C78.7186 90.0688 78.5021 89.5353 78.4018 88.9745C78.3016 88.4138 78.3198 87.8383 78.4554 87.285C78.591 86.7317 78.8408 86.213 79.1889 85.7621C80.1467 84.629 82.6006 84.5476 83.7775 86.3067C83.7775 86.3067 86.8512 86.0375 91.7089 83.3708C95.352 81.4028 98.0667 78.0713 99.2585 74.106Z" fill="#B16668"/>
<path d="M83.7773 89.0046V85.0608H86.2813V86.4881C86.283 86.8179 86.2194 87.1449 86.0943 87.4501C85.9692 87.7554 85.7851 88.0329 85.5524 88.2667C85.3197 88.5006 85.0431 88.6862 84.7385 88.8128C84.4339 88.9394 84.1072 89.0046 83.7773 89.0046Z" fill="#263238"/>
<path d="M93.5931 86.2815C93.5953 86.467 93.5429 86.6492 93.4424 86.8051C93.3418 86.9611 93.1976 87.084 93.0277 87.1586C92.8577 87.2331 92.6696 87.256 92.4867 87.2244C92.3039 87.1928 92.1344 87.108 91.9994 86.9807C91.8644 86.8534 91.7698 86.6891 91.7275 86.5084C91.6852 86.3277 91.697 86.1386 91.7615 85.9646C91.826 85.7906 91.9403 85.6394 92.0901 85.5299C92.2399 85.4203 92.4186 85.3573 92.604 85.3487C92.8586 85.342 93.1056 85.4363 93.2909 85.6111C93.4763 85.7858 93.5849 86.0269 93.5931 86.2815Z" fill="#263238"/>
<path d="M94.1941 92.4915L97.0737 93.4054C97.0221 93.5989 96.9318 93.78 96.8083 93.9376C96.6849 94.0953 96.5307 94.2263 96.3553 94.3228C96.1798 94.4194 95.9866 94.4793 95.7873 94.4992C95.588 94.519 95.3868 94.4983 95.1957 94.4383C94.8093 94.3065 94.489 94.03 94.3022 93.6669C94.1154 93.3039 94.0767 92.8825 94.1941 92.4915Z" fill="#9A4A4D"/>
<path d="M101.95 83.3894L100.072 82.0623C100.152 81.9336 100.257 81.8227 100.382 81.7363C100.506 81.6499 100.647 81.5898 100.795 81.5599C100.943 81.53 101.096 81.5308 101.245 81.5623C101.393 81.5938 101.533 81.6553 101.656 81.7431C101.907 81.9275 102.077 82.2012 102.132 82.5075C102.186 82.8139 102.122 83.1296 101.95 83.3894Z" fill="#263238"/>
<path d="M101.512 85.5992C101.522 85.7252 101.507 85.852 101.468 85.9721C101.429 86.0923 101.366 86.2034 101.283 86.299C101.2 86.3946 101.099 86.4727 100.986 86.5288C100.873 86.5849 100.749 86.6179 100.623 86.6258C100.428 86.6443 100.231 86.6039 100.059 86.5098C99.8868 86.4156 99.7467 86.2721 99.6568 86.0976C99.5669 85.9231 99.5313 85.7257 99.5545 85.5308C99.5778 85.3359 99.6589 85.1524 99.7874 85.004C99.9159 84.8556 100.086 84.7491 100.275 84.6982C100.465 84.6473 100.665 84.6543 100.851 84.7183C101.037 84.7823 101.199 84.9005 101.317 85.0574C101.434 85.2144 101.502 85.4031 101.512 85.5992Z" fill="#263238"/>
<path d="M96.2788 85.0608L96.429 90.7386L99.4151 89.8121L96.2788 85.0608Z" fill="#9A4A4D"/>
<path d="M93.1172 97.8815C90.7071 97.5622 85.743 96.1349 84.9792 94.1755C85.2887 95.169 85.8963 96.0432 86.7195 96.6795C88.2031 97.9315 93.1235 99.3776 93.1235 99.3776L93.1172 97.8815Z" fill="#9A4A4D"/>
</svg>
