<svg width="25" height="25" viewBox="0 0 25 25" fill="none" xmlns="http://www.w3.org/2000/svg">
<g clip-path="url(#clip0)">
<path d="M24.5117 10.0829H20.5078V9.04932C20.5078 8.77964 20.2892 8.56104 20.0195 8.56104H9.47266C9.20303 8.56104 8.98438 8.77964 8.98438 9.04932C8.98438 9.31899 9.20303 9.5376 9.47266 9.5376H19.5312V13.2811C19.5312 16.5695 17.7755 19.6259 14.9405 21.2889H5.56729C2.73228 19.6259 0.976562 16.5695 0.976562 13.2811V9.53765H4.24805C4.51768 9.53765 4.73633 9.31904 4.73633 9.04937C4.73633 8.77969 4.51768 8.56108 4.24805 8.56108H0.488281C0.218652 8.56108 0 8.77969 0 9.04937V13.2811C0 15.1268 0.496094 16.9366 1.43467 18.5146C2.06763 19.579 2.88892 20.5188 3.85068 21.2889H0.488281C0.218652 21.2889 0 21.5075 0 21.7772C0 23.5542 1.44565 24.9999 3.22266 24.9999H18.457C20.234 24.9999 21.6797 23.5542 21.6797 21.7772C21.6797 21.5075 21.461 21.2889 21.1914 21.2889H16.6571C17.5423 20.5801 18.3081 19.7272 18.918 18.7661H20.2962C22.8899 18.7661 25 16.656 25 14.0624V10.5711C25 10.3015 24.7814 10.0829 24.5117 10.0829ZM20.6497 22.2655C20.4261 23.27 19.5279 24.0233 18.457 24.0233H3.22266C2.15181 24.0233 1.25361 23.27 1.03003 22.2655H5.43647H15.0713H20.6497ZM20.5078 13.2811V13.0125H22.0703V14.0624C22.0703 15.0406 21.2745 15.8364 20.2962 15.8364H20.1854C20.3985 15.0061 20.5078 14.1476 20.5078 13.2811ZM24.0234 14.0624C24.0234 16.1175 22.3514 17.7895 20.2962 17.7895H19.4652C19.6211 17.4711 19.7604 17.1452 19.882 16.813H20.2962C21.813 16.813 23.0469 15.5791 23.0469 14.0624V12.5243C23.0469 12.2546 22.8282 12.036 22.5586 12.036H20.5078V11.0594H24.0234V14.0624Z" fill="black"/>
<path d="M10.7202 2.70231L10.4661 2.38332C10.0932 1.91515 10.0926 1.26071 10.4648 0.791862C10.6325 0.580632 10.5971 0.273503 10.3859 0.105876C10.1746 -0.0618488 9.86752 -0.0264484 9.69985 0.184782C9.0435 1.01174 9.04448 2.16598 9.70224 2.99176L9.95629 3.31076C10.4436 3.92257 10.4444 4.7778 9.95805 5.39054L9.6977 5.71857C9.53002 5.9298 9.56538 6.23693 9.77661 6.40456C9.8664 6.4758 9.97348 6.51042 10.0798 6.51042C10.2237 6.51042 10.3662 6.44714 10.4626 6.32565L10.723 5.99762C11.4935 5.02682 11.4924 3.67174 10.7202 2.70231Z" fill="black"/>
<path d="M13.4267 3.79997L13.1727 3.48102C12.7997 3.01281 12.7992 2.35837 13.1713 1.88952C13.339 1.67829 13.3037 1.37116 13.0924 1.20353C12.8811 1.03581 12.5741 1.07121 12.4064 1.28244C11.75 2.10939 11.751 3.26364 12.4088 4.08947L12.6628 4.40846C13.1501 5.02033 13.1509 5.8756 12.6645 6.4883L12.4042 6.81628C12.2366 7.02751 12.2719 7.33464 12.4832 7.50226C12.5729 7.5735 12.68 7.60807 12.7864 7.60807C12.9302 7.60807 13.0728 7.54474 13.1692 7.42331L13.4294 7.09533C14.2 6.12458 14.1989 4.7695 13.4267 3.79997Z" fill="black"/>
<path d="M8.01362 3.80045L7.75957 3.48151C7.38662 3.01334 7.38608 2.35885 7.7582 1.89C7.92588 1.67877 7.89053 1.37165 7.6793 1.20397C7.46802 1.03629 7.16094 1.07174 6.99326 1.28288C6.33696 2.10983 6.33794 3.26413 6.9957 4.08991L7.24976 4.4089C7.73706 5.02077 7.73779 5.87604 7.25151 6.48869L6.99116 6.81666C6.82349 7.0279 6.85879 7.33502 7.07002 7.5027C7.15981 7.57394 7.26685 7.60856 7.37324 7.60856C7.51709 7.60856 7.65962 7.54528 7.756 7.42384L8.01641 7.09582C8.78691 6.12506 8.78579 4.76999 8.01362 3.80045Z" fill="black"/>
<path d="M7.33789 8.7041C7.24707 8.61328 7.12109 8.56104 6.99268 8.56104C6.86426 8.56104 6.73828 8.61328 6.64746 8.7041C6.55669 8.79541 6.50439 8.9209 6.50439 9.04932C6.50439 9.17773 6.55664 9.30371 6.64746 9.39502C6.73828 9.48584 6.86426 9.5376 6.99268 9.5376C7.12109 9.5376 7.24707 9.48584 7.33789 9.39502C7.42915 9.30371 7.48096 9.17822 7.48096 9.04932C7.48096 8.9209 7.42915 8.79492 7.33789 8.7041Z" fill="black"/>
<path d="M17.6758 12.793C17.4062 12.793 17.1875 13.0116 17.1875 13.2812C17.1875 15.0937 16.4524 16.8749 15.1705 18.1681C14.9807 18.3596 14.9821 18.6688 15.1736 18.8586C15.2688 18.953 15.3931 19.0001 15.5174 19.0001C15.643 19.0001 15.7687 18.9519 15.8642 18.8555C17.3258 17.3809 18.1641 15.3492 18.1641 13.2812C18.1641 13.0116 17.9454 12.793 17.6758 12.793Z" fill="black"/>
<path d="M14.3498 19.4936C14.2173 19.2587 13.9195 19.1757 13.6847 19.3082L13.6735 19.3145C13.4386 19.447 13.3557 19.7448 13.4881 19.9797C13.5779 20.1388 13.7433 20.2282 13.9139 20.2282C13.9951 20.2282 14.0775 20.2078 14.1533 20.1651L14.1644 20.1588C14.3994 20.0263 14.4823 19.7285 14.3498 19.4936Z" fill="black"/>
</g>
<defs>
<clipPath id="clip0">
<rect width="25" height="25" fill="white"/>
</clipPath>
</defs>
</svg>
