<svg width="21" height="23" viewBox="0 0 21 23" fill="none" xmlns="http://www.w3.org/2000/svg">
<path d="M16.414 11.2958H18.0183C18.381 11.2958 18.6761 11.0007 18.6761 10.638V9.03365C18.6761 8.67095 18.381 8.37586 18.0183 8.37586H16.414C16.0513 8.37586 15.7562 8.67095 15.7562 9.03365V10.638C15.7562 11.0007 16.0513 11.2958 16.414 11.2958ZM16.43 9.04969H18.0023V10.622H16.43V9.04969ZM16.414 15.5634H18.0183C18.381 15.5634 18.6761 15.2683 18.6761 14.9056V13.3012C18.6761 12.9385 18.381 12.6434 18.0183 12.6434H16.414C16.0513 12.6434 15.7562 12.9385 15.7562 13.3012V14.9056C15.7562 15.2683 16.0513 15.5634 16.414 15.5634ZM16.43 13.3173H18.0023V14.8895H16.43V13.3173ZM11.8357 11.2958H13.4401C13.8028 11.2958 14.0979 11.0007 14.0979 10.638V9.03365C14.0979 8.67095 13.8028 8.37586 13.4401 8.37586H11.8357C11.473 8.37586 11.178 8.67095 11.178 9.03365V10.638C11.178 11.0007 11.473 11.2958 11.8357 11.2958ZM11.8518 9.04969H13.424V10.622H11.8518V9.04969ZM4.28357 16.7109H2.67923C2.31653 16.7109 2.02144 17.006 2.02144 17.3687V18.9731C2.02144 19.3358 2.31653 19.6309 2.67923 19.6309H4.28357C4.64627 19.6309 4.94136 19.3358 4.94136 18.9731V17.3687C4.94136 17.006 4.64627 16.7109 4.28357 16.7109ZM4.26753 18.957H2.69527V17.3848H4.26753V18.957ZM4.28357 8.37586H2.67923C2.31653 8.37586 2.02144 8.67095 2.02144 9.03365V10.638C2.02144 11.0007 2.31653 11.2958 2.67923 11.2958H4.28357C4.64627 11.2958 4.94136 11.0007 4.94136 10.638V9.03365C4.94136 8.67091 4.64627 8.37586 4.28357 8.37586ZM4.26753 10.622H2.69527V9.04969H4.26753V10.622ZM11.8357 15.4633H13.4401C13.8028 15.4633 14.0979 15.1682 14.0979 14.8055V13.2012C14.0979 12.8385 13.8028 12.5434 13.4401 12.5434H11.8357C11.473 12.5434 11.178 12.8385 11.178 13.2012V14.8055C11.178 15.1682 11.473 15.4633 11.8357 15.4633ZM11.8518 13.2172H13.424V14.7895H11.8518V13.2172ZM19.0108 1.53965H17.5703V1.02453C17.5703 0.459596 17.1107 0 16.5458 0H16.391C15.8262 0 15.3666 0.459596 15.3666 1.02453V1.53965H5.33101V1.02453C5.33101 0.459596 4.87142 0 4.30648 0H4.15177C3.58683 0 3.12724 0.459596 3.12724 1.02453V1.53965H1.68682C0.756709 1.53965 0 2.29636 0 3.22647V21.3154C0 22.2443 0.755676 23 1.68457 23H19.0131C19.942 23 20.6977 22.2443 20.6977 21.3154V3.22647C20.6976 2.29636 19.9409 1.53965 19.0108 1.53965ZM16.0404 1.02453C16.0404 0.831145 16.1977 0.673828 16.3911 0.673828H16.5458C16.7392 0.673828 16.8965 0.831145 16.8965 1.02453V1.53965H16.0404V1.02453ZM3.80111 1.02453C3.80111 0.831145 3.95843 0.673828 4.15181 0.673828H4.30653C4.49991 0.673828 4.65723 0.831145 4.65723 1.02453V1.53965H3.80115V1.02453H3.80111ZM20.0238 21.3154C20.0238 21.8728 19.5704 22.3262 19.013 22.3262H1.68453C1.12718 22.3262 0.673783 21.8728 0.673783 21.3154V21.3133C0.956072 21.526 1.30696 21.6523 1.68682 21.6523H15.3468C15.7974 21.6523 16.221 21.4769 16.5396 21.1582L20.0238 17.674V21.3154ZM16.1958 20.5491C16.2222 20.4401 16.2366 20.3264 16.2366 20.2094V17.9604C16.2366 17.5363 16.5816 17.1913 17.0057 17.1913H19.2546C19.3717 17.1913 19.4854 17.1769 19.5944 17.1505L16.1958 20.5491ZM20.0238 6.35438H5.66793C5.48186 6.35438 5.33101 6.50523 5.33101 6.69129C5.33101 6.87736 5.48186 7.02821 5.66793 7.02821H20.0238V15.7484C20.0238 16.1725 19.6787 16.5175 19.2546 16.5175H17.0057C16.2101 16.5175 15.5627 17.1648 15.5627 17.9604V20.2094C15.5627 20.6335 15.2177 20.9786 14.7936 20.9786H1.68682C1.12826 20.9786 0.673828 20.5241 0.673828 19.9655V7.02821H4.32027C4.50634 7.02821 4.65719 6.87736 4.65719 6.69129C4.65719 6.50523 4.50634 6.35438 4.32027 6.35438H0.673783V3.22647C0.673783 2.66791 1.12821 2.21348 1.68677 2.21348H3.12724V3.2041C3.12724 3.76904 3.58683 4.22863 4.15177 4.22863C4.33784 4.22863 4.48868 4.07778 4.48868 3.89172C4.48868 3.70565 4.33784 3.5548 4.15177 3.5548C3.95838 3.5548 3.80106 3.39749 3.80106 3.2041V2.21348H15.3666V3.2041C15.3666 3.76904 15.8262 4.22863 16.3911 4.22863C16.5772 4.22863 16.728 4.07778 16.728 3.89172C16.728 3.70565 16.5772 3.5548 16.3911 3.5548C16.1977 3.5548 16.0404 3.39749 16.0404 3.2041V2.21348H19.0108C19.5694 2.21348 20.0238 2.66791 20.0238 3.22647V6.35438ZM4.28357 12.5434H2.67923C2.31653 12.5434 2.02144 12.8385 2.02144 13.2012V14.8055C2.02144 15.1682 2.31653 15.4633 2.67923 15.4633H4.28357C4.64627 15.4633 4.94136 15.1682 4.94136 14.8055V13.2012C4.94136 12.8384 4.64627 12.5434 4.28357 12.5434ZM4.26753 14.7895H2.69527V13.2172H4.26753V14.7895ZM7.25749 11.2958H8.86183C9.22453 11.2958 9.51962 11.0007 9.51962 10.638V9.03365C9.51962 8.67095 9.22453 8.37586 8.86183 8.37586H7.25749C6.89479 8.37586 6.5997 8.67095 6.5997 9.03365V10.638C6.5997 11.0007 6.89479 11.2958 7.25749 11.2958ZM7.27353 9.04969H8.84579V10.622H7.27353V9.04969ZM11.8514 18.957C11.843 18.7784 11.6955 18.6362 11.5148 18.6362C11.3288 18.6362 11.1779 18.787 11.1779 18.9731C11.1779 19.3358 11.473 19.6309 11.8357 19.6309H13.44C13.8027 19.6309 14.0978 19.3358 14.0978 18.9731V17.3687C14.0978 17.006 13.8027 16.7109 13.44 16.7109H11.8357C11.473 16.7109 11.1779 17.006 11.1779 17.3687V17.8314C11.1779 18.0175 11.3288 18.1683 11.5148 18.1683C11.7009 18.1683 11.8517 18.0175 11.8517 17.8314V17.3848H13.424V18.957H11.8514ZM7.25749 15.4633H8.86183C9.22453 15.4633 9.51962 15.1682 9.51962 14.8055V13.2012C9.51962 12.8385 9.22453 12.5434 8.86183 12.5434H7.25749C6.89479 12.5434 6.5997 12.8385 6.5997 13.2012V14.8055C6.5997 15.1682 6.89479 15.4633 7.25749 15.4633ZM7.27353 13.2172H8.84579V14.7895H7.27353V13.2172ZM7.25749 19.6309H8.86183C9.22453 19.6309 9.51962 19.3358 9.51962 18.9731V17.3687C9.51962 17.006 9.22453 16.7109 8.86183 16.7109H7.25749C6.89479 16.7109 6.5997 17.006 6.5997 17.3687V18.9731C6.5997 19.3358 6.89479 19.6309 7.25749 19.6309ZM7.27353 17.3848H8.84579V18.957H7.27353V17.3848Z" fill="black"/>
</svg>
