<svg width="28" height="27" viewBox="0 0 28 27" fill="none" xmlns="http://www.w3.org/2000/svg">
<path d="M1.48571 7.87367H6.23401C7.0534 7.87367 7.72005 8.54065 7.72005 9.36053V14.8257H9.4961C9.39739 14.4669 9.3608 14.0437 9.38481 13.5512V13.5511C9.42337 11.4697 9.80104 9.71557 10.5075 8.33732C11.056 7.26723 11.6961 6.62569 12.2454 6.24216C11.6007 5.57928 11.2279 4.6363 11.2279 3.54871C11.2279 1.59192 12.7889 0 14.7075 0C16.6261 0 18.1871 1.59192 18.1871 3.54871C18.1871 3.77529 18.0034 3.95887 17.7769 3.95887H17.4982C17.5239 4.11364 17.5376 4.27136 17.5376 4.43154C17.5376 5.81056 16.5522 6.96311 15.2494 7.22141C15.386 7.72847 15.4538 8.32638 15.4536 9.00561L16.4766 9.88548L18.9657 10.0868L21.837 9.13762C22.1001 9.05012 22.3984 8.95125 22.6572 9.13784C22.9122 9.32187 22.9122 9.64404 22.9122 9.74986V11.8846C22.9122 12.1112 22.7286 12.2948 22.502 12.2948H22.0137L22.7627 14.8828C22.8256 15.1004 22.7003 15.3279 22.4827 15.3908C22.265 15.4541 22.0376 15.3284 21.9746 15.1109L21.1597 12.2948H19.9936C21.4439 16.7175 20.6164 19.6697 19.3444 22.6574H20.0817L23.1526 19.2237L22.5032 16.9804C22.4402 16.7628 22.5656 16.5353 22.7832 16.4724C23.0008 16.4095 23.2282 16.5348 23.2912 16.7523L23.9123 18.8981C25.8333 18.8661 27.5516 20.1905 27.9895 22.096C28.0402 22.3168 27.9024 22.5368 27.6818 22.5876L27.0995 22.7216C27.2483 24.2666 26.2308 25.7243 24.6791 26.0815C24.4434 26.1358 24.2057 26.1626 23.9697 26.1626C23.3876 26.1626 22.8157 25.9994 22.3099 25.6824C21.7163 25.3104 21.274 24.7635 21.0346 24.1172L20.5752 24.2229C20.4383 24.2546 20.3084 24.2706 20.1787 24.2008C20.058 24.1358 19.9778 24.0185 19.9477 23.8861C19.9188 23.7518 19.8969 23.6154 19.8816 23.4777H11.3033C11.029 25.1832 9.57786 26.4689 7.84474 26.4689C6.11161 26.4689 4.66041 25.1832 4.3861 23.4777H4.07306C4.07306 23.4777 4.01093 23.4784 3.99677 23.4784C3.87946 23.4784 3.71004 23.4654 3.57091 23.3238C3.5013 23.253 3.41959 23.1263 3.42588 22.925C3.43742 22.5398 3.49522 22.1677 3.59388 21.814C3.26718 19.8305 3.58152 18.6225 4.04752 17.6771C3.75292 17.484 3.55757 17.1513 3.55757 16.7733V15.646H1.48582C0.666426 15.646 -0.000221252 14.979 -0.000221252 14.1591V9.36048C-0.000331879 8.54065 0.666262 7.87367 1.48571 7.87367ZM22.7455 24.9874C23.2706 25.3165 23.8918 25.4211 24.4949 25.2822H24.495C25.605 25.0267 26.3456 24.0088 26.2917 22.9082L21.8426 23.9321C22.0267 24.3655 22.3381 24.7321 22.7455 24.9874ZM20.6932 23.3541L27.0734 21.8859C26.581 20.5376 25.256 19.6451 23.8077 19.7219L20.6822 23.2165C20.685 23.2626 20.6886 23.3085 20.6932 23.3541ZM14.4978 16.2066C14.6169 16.5206 14.6169 16.9078 14.6169 17.4437V18.9914H16.1188V16.868C16.1188 14.4673 14.8086 14.0395 14.2206 13.9689H10.1994C10.2156 14.5137 10.3385 14.901 10.5719 15.1469C10.8439 15.4333 11.3094 15.5729 11.995 15.5735L13.4672 15.5751C13.9922 15.5751 14.339 15.7875 14.4978 16.2066ZM14.6169 19.8117V20.7911C14.6206 20.7911 14.6244 20.7911 14.6284 20.7911H17.5418C17.509 20.4873 17.4144 20.2523 17.259 20.0896C17.0279 19.8478 16.7024 19.8117 16.5289 19.8117H14.6169ZM10.2175 13.1486H13.9476C14.0974 12.6773 14.2309 12.1611 14.3408 11.6306L13.2067 10.8945C12.5876 10.4925 12.2656 9.92448 12.3231 9.33598C12.3741 8.81431 12.7287 8.34831 13.2266 8.14886C13.6813 7.96675 14.1707 8.02395 14.6032 8.30051C14.5676 7.90818 14.5012 7.55796 14.4051 7.26067C14.2303 7.24262 14.0567 7.20844 13.8861 7.1583C13.539 7.07769 13.2183 6.94922 12.9287 6.77887C12.1387 7.25083 10.4013 8.78166 10.2175 13.1486ZM17.3367 3.13861C17.1433 1.82806 16.038 0.820377 14.7075 0.820377C13.2412 0.820377 12.0482 2.04435 12.0482 3.54877C12.0482 4.77236 12.635 5.75855 13.5811 6.19256V4.0344C13.5811 3.66072 13.7241 3.20232 14.4052 3.1403C14.4175 3.13915 14.43 3.13861 14.4424 3.13861H17.3367ZM16.7172 4.4316C16.7172 4.26972 16.6987 4.11162 16.6625 3.95893H14.4625C14.4372 3.96166 14.4187 3.96462 14.4055 3.9673C14.4033 3.9825 14.4015 4.00438 14.4015 4.0344V6.4339C14.4992 6.44828 14.5975 6.45555 14.6958 6.45561C14.6967 6.45561 14.6977 6.45561 14.6985 6.45561C15.8118 6.45457 16.7172 5.54702 16.7172 4.4316ZM17.2489 10.771L16.2774 10.6925C16.1909 10.6855 16.1088 10.6512 16.0429 10.5946L14.2896 9.0866L14.2893 9.08633C14.1198 8.94025 13.9388 8.86533 13.7626 8.86533C13.6842 8.86533 13.6067 8.88021 13.5316 8.91028C13.3149 8.99708 13.161 9.19548 13.1394 9.41566C13.1124 9.69276 13.2949 9.97364 13.6533 10.2064L15.607 11.4745H17.2488V10.771H17.2489ZM18.9823 10.9113L18.0692 10.8374V11.4746H19.1302C19.2678 11.4746 19.3013 11.3603 19.3052 11.2644C19.3075 11.2101 19.3023 10.9375 18.9823 10.9113ZM19.9531 10.6281C20.0766 10.8307 20.1343 11.0676 20.1249 11.298C20.1224 11.3577 20.1148 11.4152 20.1042 11.4712C20.1042 11.4723 20.1048 11.4735 20.1046 11.4746H22.0918V9.91742L19.9515 10.6249C19.9521 10.626 19.9525 10.6271 19.9531 10.6281ZM19.1279 12.2949H15.4857C15.4064 12.2949 15.3288 12.2719 15.2624 12.2288L15.0767 12.1082C14.9874 12.503 14.8857 12.8871 14.7749 13.2499C15.6114 13.4968 16.9392 14.2948 16.9392 16.868V19.0326C17.2269 19.0906 17.5674 19.2249 17.8521 19.5228C18.1523 19.837 18.3238 20.2626 18.3649 20.791H19.1923C20.0261 18.3881 20.3432 15.8311 19.1279 12.2949ZM18.4519 22.656C18.6035 22.3073 18.7496 21.96 18.8872 21.6114H14.6284C14.0765 21.6114 13.7966 21.3601 13.7966 20.8646V19.4015V17.8538H10.5591C10.3326 17.8538 10.149 17.6702 10.149 17.4436C10.149 17.217 10.3326 17.0334 10.5591 17.0334H13.7937C13.7884 16.8005 13.7735 16.6099 13.7308 16.4974C13.71 16.4426 13.6921 16.3954 13.4668 16.3954L11.9942 16.3939C11.0719 16.393 10.4121 16.1699 9.97703 15.7117C9.9569 15.6905 9.93787 15.6682 9.91879 15.6461H7.30983H4.37773V16.7733C4.37773 16.9143 4.49656 17.0334 4.63722 17.0334H8.72051C8.94709 17.0334 9.13067 17.217 9.13067 17.4436C9.13067 17.6702 8.94709 17.8538 8.72051 17.8538H4.87823C4.55404 18.4555 4.26245 19.2042 4.27978 20.3872C5.09124 19.26 6.40491 18.5352 7.89582 18.5352C9.09316 18.5352 10.2167 19.0049 11.0595 19.8578C11.8073 20.6145 12.2565 21.5966 12.3489 22.6574L18.4519 22.656ZM7.84468 25.6487C9.1269 25.6487 10.2083 24.7248 10.4699 23.4778H5.21943C5.48112 24.7247 6.56252 25.6487 7.84468 25.6487ZM4.75349 22.6575H10.9358H11.525C11.3237 20.8028 9.77293 19.3556 7.89582 19.3556C6.24779 19.3556 4.8638 20.4423 4.40545 21.9635C4.40398 21.9683 4.4025 21.9732 4.40086 21.9779C4.33606 22.1962 4.29028 22.4233 4.26551 22.6575H4.75349ZM0.81999 14.1592C0.81999 14.5268 1.11864 14.8257 1.48571 14.8257H6.89973V12.7076H0.81999V14.1592ZM0.81999 11.8873H6.89973V11.015H0.81999V11.8873ZM0.81999 10.1946H6.89973V9.36053C6.89973 8.99297 6.60107 8.69399 6.23401 8.69399H1.48571C1.11864 8.69399 0.81999 8.99303 0.81999 9.36053V10.1946Z" fill="white"/>
</svg>
