<svg width="19" height="25" viewBox="0 0 19 25" fill="none" xmlns="http://www.w3.org/2000/svg">
<path d="M12.2232 16.6006H6.78247C6.44087 16.6006 6.16138 16.8801 6.16138 17.2217C6.16138 17.5633 6.44087 17.8428 6.78247 17.8428H12.2232C12.5648 17.8428 12.8443 17.5633 12.8443 17.2217C12.8443 16.8801 12.5648 16.6006 12.2232 16.6006Z" fill="#184042"/>
<path d="M14.8132 19.1475H4.19262C3.85102 19.1475 3.57153 19.427 3.57153 19.7686C3.57153 20.1102 3.85102 20.3896 4.19262 20.3896H14.8132C15.1548 20.3896 15.4343 20.1102 15.4343 19.7686C15.4343 19.427 15.1548 19.1475 14.8132 19.1475Z" fill="#184042"/>
<path d="M18.6204 0.0358302C18.3844 -0.0424919 18.1174 0.00972284 17.9435 0.171589L16.6205 1.38819L15.2976 0.17681C15.0678 -0.0372704 14.6765 -0.0477134 14.4219 0.145481C14.4095 0.155924 14.397 0.166367 14.3846 0.17681L13.0617 1.38819L11.7388 0.171589C11.509 -0.0424919 11.1115 -0.0529348 10.863 0.14026C10.8506 0.150703 10.8382 0.161146 10.8258 0.171589L9.50285 1.38297L8.17993 0.171589C7.95012 -0.0424919 7.55263 -0.0529348 7.30419 0.14026C7.29177 0.150703 7.27935 0.161146 7.26693 0.171589L5.94401 1.38297L4.62108 0.171589C4.39128 -0.0424919 3.99378 -0.0529348 3.74535 0.14026C3.73293 0.150703 3.72051 0.161146 3.70808 0.171589L2.38516 1.38297L1.05603 0.171589C0.888338 0.0149443 0.621269 -0.0424919 0.385255 0.0358302C0.149241 0.114152 -0.00603116 0.307347 0.000179739 0.521427V24.4776C-0.00603116 24.7595 0.261037 24.9945 0.596426 24.9997C0.776541 25.0049 0.944236 24.9423 1.06224 24.8326L2.38516 23.616L3.70808 24.8274C3.93789 25.0415 4.32917 25.0519 4.58382 24.8587C4.59624 24.8483 4.60866 24.8378 4.62108 24.8274L5.94401 23.616L7.26693 24.8274C7.49673 25.0415 7.89423 25.0519 8.14266 24.8587C8.15508 24.8483 8.16751 24.8378 8.17993 24.8274L9.50285 23.616L10.8258 24.8274C11.0556 25.0415 11.4531 25.0519 11.7015 24.8587C11.7139 24.8483 11.7263 24.8378 11.7388 24.8274L13.0617 23.616L14.3846 24.8274C14.6144 25.0415 15.0119 25.0519 15.2603 24.8587C15.2728 24.8483 15.2852 24.8378 15.2976 24.8274L16.6205 23.616L17.9435 24.8274C18.0615 24.937 18.2292 24.9945 18.4031 24.9945C18.4776 24.9945 18.5459 24.984 18.6142 24.9579C18.8502 24.8796 19.0055 24.6864 18.9993 24.4723V0.516206C19.0117 0.307347 18.8565 0.114152 18.6204 0.0358302ZM16.6267 22.3159C16.4528 22.3159 16.2851 22.3785 16.1671 22.4882L14.8442 23.7048L13.5213 22.4934C13.2915 22.2793 12.894 22.2689 12.6456 22.4621C12.6331 22.4725 12.6207 22.4829 12.6083 22.4934L11.2854 23.7048L9.96245 22.4934C9.73265 22.2793 9.33515 22.2689 9.08672 22.4621C9.0743 22.4725 9.06187 22.4829 9.04945 22.4934L7.72653 23.7048L6.40361 22.4934C6.17381 22.2793 5.77631 22.2689 5.52788 22.4621C5.51545 22.4725 5.50303 22.4829 5.49061 22.4934L4.16148 23.7048L2.83856 22.4882C2.72055 22.3785 2.55286 22.3159 2.37895 22.3159C2.20505 22.3159 2.04356 22.3785 1.93177 22.4882L1.24236 23.1356V1.86335L1.93177 2.50559C2.04356 2.61524 2.20505 2.6779 2.37895 2.6779C2.55286 2.6779 2.72055 2.61524 2.83856 2.50559L4.16148 1.28898L5.4844 2.50037C5.7142 2.71445 6.1117 2.72489 6.36013 2.53169C6.37256 2.52125 6.38498 2.51081 6.3974 2.50037L7.72032 1.28898L9.04324 2.50037C9.27305 2.71445 9.67054 2.72489 9.91898 2.53169C9.9314 2.52125 9.94382 2.51081 9.95624 2.50037L11.2792 1.28898L12.6021 2.50037C12.8319 2.71445 13.2294 2.72489 13.4778 2.53169C13.4902 2.52125 13.5027 2.51081 13.5151 2.50037L14.838 1.28898L16.1609 2.50559C16.2789 2.61524 16.4466 2.6779 16.6205 2.6779C16.7944 2.6779 16.9559 2.61524 17.0677 2.50559L17.7633 1.85812V23.1304L17.0739 22.4882C16.9621 22.3785 16.8006 22.3159 16.6267 22.3159Z" fill="#184042"/>
<path d="M11.4284 9.62559C11.1614 8.78712 10.3788 8.22193 9.50305 8.22193C9.06829 8.22193 8.72048 7.87412 8.72048 7.43935C8.72048 7.00459 9.06829 6.66299 9.49684 6.65678C9.92539 6.65057 10.2794 7.00459 10.2794 7.43935C10.2794 7.43935 10.2794 7.43935 10.2794 7.44556C10.2794 7.78716 10.5589 8.06665 10.9005 8.06665C11.2421 8.06665 11.5216 7.78716 11.5216 7.44556C11.5216 6.56983 10.9564 5.78726 10.1179 5.52019V5.1289C10.1179 4.7873 9.83844 4.50781 9.49684 4.50781C9.15524 4.50781 8.87575 4.7873 8.87575 5.1289V5.52019C7.81369 5.86179 7.22987 7.00459 7.57147 8.06665C7.83853 8.89891 8.62111 9.47032 9.49684 9.47032C9.92539 9.46411 10.2794 9.81192 10.2856 10.2467C10.2918 10.6814 9.94403 11.0293 9.50926 11.0355C9.50926 11.0293 9.50926 11.0293 9.50305 11.0293C9.0745 11.0293 8.72048 10.6814 8.72048 10.2467C8.72048 9.90508 8.44099 9.62559 8.09939 9.62559C7.75779 9.62559 7.4783 9.90508 7.4783 10.2467C7.4783 11.1224 8.04349 11.8988 8.88196 12.1721V12.5696C8.88196 12.9112 9.16145 13.1906 9.50305 13.1906C9.84465 13.1906 10.1241 12.9112 10.1241 12.5696V12.1721C11.1862 11.8305 11.77 10.6877 11.4284 9.62559Z" fill="#184042"/>
</svg>
