<svg width="15" height="21" viewBox="0 0 15 21" fill="none" xmlns="http://www.w3.org/2000/svg">
<path d="M7.5 0C3.36441 0 0 3.36441 0 7.5C0 8.86147 0.610588 10.3257 0.636176 10.3875C0.833382 10.8556 1.2225 11.5826 1.50309 12.0088L6.64544 19.8004C6.85588 20.1199 7.16735 20.3029 7.5 20.3029C7.83265 20.3029 8.14412 20.1199 8.35456 19.8009L13.4974 12.0088C13.7784 11.5826 14.1671 10.8556 14.3643 10.3875C14.3899 10.3262 15 8.86191 15 7.5C15 3.36441 11.6356 0 7.5 0ZM13.5507 10.0451C13.3747 10.4647 13.0125 11.141 12.7606 11.5231L7.61779 19.3151C7.51632 19.4691 7.48412 19.4691 7.38265 19.3151L2.23985 11.5231C1.98794 11.141 1.62574 10.4643 1.44971 10.0447C1.44221 10.0266 0.882353 8.67882 0.882353 7.5C0.882353 3.85103 3.85103 0.882353 7.5 0.882353C11.149 0.882353 14.1176 3.85103 14.1176 7.5C14.1176 8.68059 13.5565 10.0319 13.5507 10.0451Z" fill="black"/>
<path d="M7.50013 3.52979C5.31057 3.52979 3.52954 5.31126 3.52954 7.50038C3.52954 9.6895 5.31057 11.471 7.50013 11.471C9.68969 11.471 11.4707 9.6895 11.4707 7.50038C11.4707 5.31126 9.68969 3.52979 7.50013 3.52979ZM7.50013 10.5886C5.79763 10.5886 4.41189 9.20332 4.41189 7.50038C4.41189 5.79743 5.79763 4.41214 7.50013 4.41214C9.20263 4.41214 10.5884 5.79743 10.5884 7.50038C10.5884 9.20332 9.20263 10.5886 7.50013 10.5886Z" fill="black"/>
</svg>
