<svg width="23" height="23" viewBox="0 0 23 23" fill="none" xmlns="http://www.w3.org/2000/svg">
<path d="M19.1298 16.2943L18.1441 15.684C17.8436 15.4982 17.4999 15.4002 17.1497 15.4H15.6663C15.3626 15.3994 15.0602 15.4398 14.7666 15.5199L10.2969 16.76C9.80824 16.8994 9.41574 17.2756 9.24453 17.7687L5.31309 15.5705C4.99429 15.383 4.62107 15.3193 4.26088 15.3908C4.12501 15.4156 3.9933 15.4604 3.86952 15.5236C3.59002 15.6619 3.35815 15.8854 3.2047 16.1637C3.07053 16.4061 3.00004 16.6805 3.00004 16.9596C2.99589 17.5295 3.28804 18.0576 3.76501 18.3432L10.8111 22.7004C11.1173 22.8963 11.4699 23 11.8299 23H17.2829C17.5265 23.0002 17.7679 22.9525 17.9942 22.86L19.1298 22.3965V23H23V15H19.1298V16.2943ZM17.7098 22.116C17.5743 22.1713 17.4298 22.1998 17.2841 22.2H11.8299C11.6118 22.1998 11.3981 22.1363 11.2133 22.0168L4.15751 17.6545C3.91771 17.5113 3.77087 17.2461 3.77276 16.96C3.77333 16.8197 3.80904 16.6818 3.87651 16.56C3.95361 16.4219 4.06964 16.3111 4.20892 16.2428C4.27033 16.2119 4.33534 16.19 4.40243 16.1779C4.45137 16.1686 4.50107 16.1637 4.55077 16.1637C4.68381 16.1633 4.81458 16.1992 4.93004 16.2676L9.19312 18.6484C9.19804 18.6729 9.19804 18.6969 9.20427 18.7213C9.38758 19.4195 10.0004 19.9045 10.7006 19.9053C10.916 19.885 11.1294 19.8455 11.3384 19.7877L15.3594 18.6756L15.1598 17.9027L11.1518 19.01C10.9753 19.052 10.7476 19.1 10.7006 19.1041C10.351 19.1047 10.0445 18.8633 9.95243 18.5148C9.93995 18.4664 9.93258 18.4168 9.92994 18.3668C9.92994 18.3668 9.92691 18.2699 9.92994 18.2359C9.95942 17.9014 10.1862 17.6205 10.4993 17.5305L14.9671 16.2951C15.1952 16.232 15.4302 16.2 15.6663 16.2H17.1497C17.3599 16.2 17.566 16.259 17.7461 16.3705L19.1298 17.2268V21.5359L17.7098 22.116ZM19.9038 15.8H22.226V22.2H19.9038V15.8Z" fill="white"/>
<path d="M15.8103 3.05883L13.754 1.00798C13.1084 0.360336 12.23 -0.00259972 11.3145 1.40202e-05H6.49514C6.19772 0.000387411 5.90442 0.0696514 5.63807 0.201832L4.77894 0.630485C4.60674 0.716925 4.41545 0.758185 4.22284 0.75053L3.83333 0.736901V1.40202e-05H0V8.41177H3.83333V7.26471H4.48507L4.71698 7.41761C5.36592 7.84739 6.12154 8.09009 6.9 8.11847V13H23V3.05883H15.8103ZM3.06667 7.64706H0.766667V0.764719H3.06667V7.64706ZM5.14131 6.78136L4.71492 6.50001H3.83333V1.50198L4.19477 1.51486C4.51577 1.52625 4.83434 1.45736 5.12165 1.31454L5.98004 0.885884C6.13988 0.806166 6.31639 0.764719 6.49514 0.764719H11.3145C12.0265 0.762665 12.7099 1.04495 13.2119 1.54847L14.7261 3.05883H11.5629L10.6324 2.13096L10.0906 2.67144L12.7984 5.37255C13.0992 5.67126 13.1002 6.15667 12.8007 6.45688C12.501 6.7569 12.0144 6.75783 11.7136 6.45912L9.45194 4.20328L9.18353 4.43273C8.4425 5.0604 7.35933 5.07645 6.59977 4.47081L6.3776 4.29121L5.8945 4.88528L6.11911 5.06693C6.35401 5.25419 6.61774 5.40242 6.9 5.50585V7.35339C6.27259 7.32557 5.66446 7.12786 5.14131 6.78136ZM10.5943 6.42346L11.1726 7.00054C11.7731 7.5905 12.737 7.59143 13.3384 7.0024C12.7758 7.87147 12.9978 9.02805 13.8425 9.62828C14.6872 10.2285 15.8557 10.0599 16.4953 9.24574C17.1349 8.43137 17.0194 7.2593 16.2329 6.58495C15.4466 5.91061 14.2674 5.9724 13.5563 6.72516C13.8182 6.31499 13.8649 5.80382 13.6819 5.35295H18.8152C18.9801 6.31499 19.7355 7.06849 20.7 7.23297V8.82586C19.7355 8.99034 18.9801 9.74384 18.8152 10.7059H11.0848C10.9199 9.74384 10.1645 8.99034 9.2 8.82586V7.23297C9.74786 7.14093 10.2433 6.85323 10.5943 6.42346ZM13.8 8.02942C13.8 7.39596 14.3149 6.88236 14.95 6.88236C15.5851 6.88236 16.1 7.39596 16.1 8.02942C16.1 8.66287 15.5851 9.17647 14.95 9.17647C14.3149 9.17647 13.8 8.66287 13.8 8.02942ZM22.2333 12.2353H7.66667V5.66604C8.27442 5.71159 8.88031 5.55701 9.39167 5.22637L10.0457 5.87868C9.75797 6.2685 9.30201 6.49907 8.81667 6.50001H8.43333V9.55883H8.81667C9.66344 9.55883 10.35 10.2436 10.35 11.0882V11.4706H19.55V11.0882C19.55 10.2436 20.2366 9.55883 21.0833 9.55883H21.4667V6.50001H21.0833C20.2366 6.50001 19.55 5.81521 19.55 4.9706V4.58824H13.0962L12.3296 3.82354H22.2333V12.2353Z" fill="white"/>
</svg>
