<svg width="21" height="21" viewBox="0 0 21 21" fill="none" xmlns="http://www.w3.org/2000/svg">
<path d="M0.830054 16.655C0.744391 16.4675 0.700198 16.2637 0.700491 16.0575V15.6313C0.699607 11.9868 1.27474 8.365 2.40461 4.9H10.0689C9.74723 5.90993 9.46881 6.94189 9.23976 7.97419L9.92314 8.12582C10.1638 7.04132 10.4606 5.95755 10.8049 4.9H11.5505C11.9217 4.89959 12.2775 4.75195 12.54 4.48949C12.8024 4.22703 12.9501 3.87118 12.9505 3.5V2.45C12.9505 2.40404 12.9414 2.35853 12.9239 2.31606C12.9063 2.2736 12.8805 2.23501 12.848 2.20251C12.8155 2.17001 12.7769 2.14423 12.7344 2.12664C12.692 2.10905 12.6465 2.1 12.6005 2.1H10.8505C10.8509 1.72883 10.9985 1.37297 11.261 1.11051C11.5235 0.848051 11.8793 0.700417 12.2505 0.7H12.3139C12.6208 0.70051 12.9192 0.801692 13.1632 0.988033C13.4071 1.17438 13.5833 1.43559 13.6645 1.73163L14.1796 3.62012C14.3017 4.06794 14.4165 4.52492 14.5207 4.97838L15.2029 4.82162C15.0966 4.35902 14.9795 3.89281 14.8549 3.43594L14.3399 1.54744C14.218 1.10339 13.9538 0.711568 13.5878 0.432057C13.2219 0.152546 12.7743 0.00077053 12.3139 0H2.80049C2.24373 0.000629464 1.70995 0.222081 1.31626 0.615771C0.922572 1.00946 0.70112 1.54324 0.700491 2.1V3.5C0.700866 3.79928 0.796971 4.0906 0.974755 4.33135C1.15254 4.5721 1.40268 4.74967 1.6886 4.83809C0.568997 8.32639 -0.000530375 11.9678 0.000490509 15.6313V16.0575C4.74677e-05 16.3638 0.0656927 16.6665 0.192944 16.945L0.830054 16.655ZM12.2505 2.8V3.5C12.2505 3.68565 12.1768 3.8637 12.0455 3.99498C11.9142 4.12625 11.7362 4.2 11.5505 4.2C11.3648 4.2 11.1868 4.12625 11.0555 3.99498C10.9242 3.8637 10.8505 3.68565 10.8505 3.5V2.8H12.2505ZM1.40049 3.5V2.1C1.40091 1.72883 1.54854 1.37297 1.811 1.11051C2.07346 0.848051 2.42932 0.700417 2.80049 0.7H10.6865C10.341 1.08441 10.1501 1.58313 10.1505 2.1V3.5C10.1502 3.74583 10.215 3.98736 10.3384 4.2H2.10049C1.91491 4.19979 1.73698 4.12597 1.60575 3.99474C1.47452 3.86351 1.4007 3.68559 1.40049 3.5Z" fill="black"/>
<path d="M17.5797 9.29635L17.4203 9.97798C19.5458 10.4749 20.3 11.1353 20.3 11.5498C20.3 11.9062 19.7942 12.3197 18.8591 12.6851C18.6957 12.1645 18.0382 11.7341 16.8976 11.4031L16.7025 12.0754C17.6746 12.3575 18.1463 12.6979 18.1955 12.9133C16.8049 13.3365 14.7742 13.6498 12.25 13.6498C9.72571 13.6498 7.69497 13.3364 6.30437 12.9133C6.37432 12.5829 7.37251 12.0217 9.49784 11.7285L9.40218 11.0351C8.33583 11.1822 7.4296 11.4104 6.78149 11.6949C6.14282 11.9753 5.76079 12.3075 5.64106 12.6851C4.70582 12.3197 4.2 11.9062 4.2 11.5498C4.2 11.4023 4.32025 10.8781 5.86761 10.3275C7.04632 9.90806 8.69914 9.61503 10.5216 9.50239L10.4784 8.80371C8.59244 8.92029 6.87162 9.22722 5.63295 9.66797C3.87004 10.2953 3.5 11.0376 3.5 11.5498C3.49946 12.2872 3.6366 13.0182 3.90437 13.7053L4.61268 15.5267L5.26508 15.273L4.55677 13.4516C4.47682 13.2458 4.4099 13.0352 4.3564 12.8211C4.80527 13.1211 5.4266 13.3891 6.21231 13.6182C7.82982 14.09 9.97404 14.3498 12.25 14.3498C14.526 14.3498 16.6702 14.09 18.2877 13.6182C19.0734 13.3891 19.6947 13.1211 20.1436 12.8211C20.0901 13.0352 20.0232 13.2458 19.9432 13.4516L18.7416 16.5415C18.6278 16.8345 18.4707 17.1088 18.2756 17.3552L18.8244 17.7897C19.0629 17.4886 19.2549 17.1533 19.394 16.7952L20.5956 13.7053C20.8634 13.0182 21.0006 12.2872 21 11.5498C21 10.285 18.8571 9.59504 17.5797 9.29635Z" fill="black"/>
<path d="M14.8012 6.58759C13.082 7.21281 11.6665 8.47102 10.844 10.105L9.83691 12.1189L10.463 12.432L11.4702 10.418C12.169 9.02989 13.3439 7.93947 14.7802 7.34595C14.7978 7.41411 14.8204 7.48084 14.8481 7.54555C13.8827 8.35839 13.0151 9.46633 12.3859 10.6968L11.3556 12.6984L11.978 13.0188L13.0087 11.0164C13.5927 9.87424 14.3925 8.84889 15.2801 8.09704C15.3193 8.12662 15.36 8.15412 15.402 8.17942C15.4486 8.20715 15.4968 8.23208 15.5464 8.25407C15.4063 8.5165 15.2602 8.78951 15.1081 9.07309C14.7264 9.78559 14.3331 10.5242 13.9283 11.289L13.1346 12.7861L13.7531 13.114L14.5473 11.6159C14.9499 10.8506 15.3425 10.1132 15.7251 9.40368C15.906 9.066 16.08 8.74129 16.2441 8.43345C16.3155 9.63255 16.0475 10.8275 15.4707 11.8812L14.9792 12.7824L15.5937 13.1176L16.0852 12.2165C16.7722 10.9619 17.0636 9.52893 16.9212 8.10572C17.0636 8.00113 17.1843 7.86974 17.2764 7.71891L20.0622 3.1603C20.2516 2.85018 20.31 2.47754 20.2247 2.12432C20.1394 1.7711 19.9173 1.46623 19.6072 1.27675C19.2972 1.08726 18.9245 1.02869 18.5713 1.1139C18.2181 1.19911 17.9131 1.42113 17.7235 1.73114L14.9377 6.28975C14.8806 6.38326 14.8348 6.48324 14.8012 6.58759ZM15.535 6.65475L18.3208 2.09616C18.3667 2.02097 18.4269 1.95555 18.4981 1.90365C18.5693 1.85175 18.65 1.81438 18.7356 1.79368C18.8212 1.77298 18.91 1.76935 18.9971 1.78301C19.0841 1.79666 19.1675 1.82733 19.2427 1.87326C19.3179 1.91919 19.3832 1.97948 19.4351 2.05069C19.4869 2.12189 19.5242 2.20261 19.5449 2.28824C19.5655 2.37387 19.5691 2.46273 19.5553 2.54973C19.5416 2.63674 19.5109 2.72018 19.4649 2.79531L16.6791 7.3539C16.6332 7.42909 16.573 7.49451 16.5018 7.54641C16.4307 7.59831 16.35 7.63568 16.2643 7.65638C16.1787 7.67708 16.0899 7.6807 16.0029 7.66705C15.9158 7.65339 15.8324 7.62272 15.7572 7.5768C15.6821 7.53087 15.6167 7.47058 15.5648 7.39937C15.513 7.32817 15.4757 7.24744 15.4551 7.16181C15.4344 7.07619 15.4309 6.98733 15.4446 6.90032C15.4583 6.81332 15.489 6.72987 15.535 6.65475Z" fill="black"/>
<path d="M17.424 17.5839C17.2896 17.4613 17.1312 17.3681 16.9588 17.31C16.7864 17.2519 16.6039 17.2303 16.4227 17.2465L16.0922 17.2765C15.8736 16.9175 15.5664 16.6207 15.2 16.4147C14.8336 16.2086 14.4204 16.1003 14 16.1001H3.85003C3.42954 16.1002 3.01615 16.2085 2.6496 16.4145C2.28304 16.6206 1.97565 16.9174 1.75696 17.2766L1.42742 17.2466C1.25123 17.2306 1.07363 17.2504 0.905339 17.305C0.737048 17.3595 0.581559 17.4476 0.448268 17.5639C0.314977 17.6802 0.20665 17.8224 0.129832 17.9817C0.053014 18.1411 0.00929932 18.3144 0.00132907 18.4911C-0.00664117 18.6678 0.0212984 18.8444 0.0834599 19.01C0.145621 19.1756 0.240714 19.3269 0.362994 19.4548C0.485273 19.5826 0.632201 19.6843 0.7949 19.7538C0.9576 19.8233 1.13269 19.859 1.3096 19.8589C1.34876 19.8589 1.38811 19.8572 1.42739 19.8536L1.75692 19.8237C1.97667 20.1818 2.2843 20.4779 2.65062 20.6838C3.01695 20.8897 3.42981 20.9986 3.85003 21.0001H14C14.3219 21.0011 14.6407 20.9381 14.9381 20.815C15.2354 20.6918 15.5054 20.5109 15.7323 20.2826C15.8705 20.1446 15.9918 19.9905 16.0937 19.8238L16.4232 19.8538C16.4626 19.8573 16.5027 19.8591 16.5423 19.8591C16.8061 19.8588 17.0637 19.7789 17.2813 19.6297C17.4989 19.4805 17.6663 19.2691 17.7616 19.0231C17.8569 18.7771 17.8757 18.5081 17.8155 18.2513C17.7552 17.9944 17.6188 17.7618 17.424 17.5839ZM1.36401 19.1565C1.28215 19.1639 1.19963 19.1547 1.12143 19.1293C1.04324 19.104 0.970972 19.0631 0.908999 19.0091C0.847027 18.9551 0.796629 18.8891 0.760843 18.8151C0.725056 18.7411 0.704622 18.6607 0.700771 18.5786C0.696921 18.4965 0.709733 18.4144 0.738438 18.3374C0.767142 18.2604 0.811143 18.19 0.86779 18.1304C0.924436 18.0708 0.992556 18.0234 1.06804 17.9908C1.14353 17.9583 1.22482 17.9414 1.30702 17.9411C1.3259 17.9411 1.34491 17.942 1.36403 17.9437L3.47121 18.1353C3.57473 18.1447 3.67098 18.1925 3.74108 18.2692C3.81117 18.346 3.85003 18.4462 3.85003 18.5501C3.85003 18.654 3.81117 18.7542 3.74108 18.831C3.67098 18.9077 3.57473 18.9555 3.47121 18.9649H3.47123L1.36401 19.1565ZM2.57769 19.749L3.53459 19.6621H3.53461C3.81209 19.6368 4.0701 19.5087 4.25798 19.303C4.44585 19.0973 4.55002 18.8287 4.55002 18.5501C4.55002 18.2715 4.44584 18.0029 4.25796 17.7972C4.07008 17.5914 3.81207 17.4634 3.53459 17.4381L2.57587 17.351C2.58805 17.3381 2.60019 17.3252 2.61279 17.3126C2.8163 17.1091 3.06685 16.959 3.34224 16.8755C3.61764 16.792 3.90938 16.7777 4.19162 16.8338C4.47386 16.89 4.7379 17.0149 4.96034 17.1975C5.18278 17.3801 5.35676 17.6147 5.46687 17.8806C5.57698 18.1464 5.61982 18.4354 5.5916 18.7218C5.56337 19.0081 5.46496 19.2832 5.30507 19.5224C5.14518 19.7617 4.92875 19.9578 4.67495 20.0935C4.42114 20.2291 4.13781 20.3001 3.85003 20.3001C3.61169 20.2992 3.37601 20.2499 3.15729 20.1552C2.93858 20.0605 2.74139 19.9223 2.57769 19.749ZM15.2373 19.7876C15.0752 19.9507 14.8824 20.0799 14.67 20.1679C14.4576 20.2559 14.2299 20.3008 14 20.3001H5.56233C5.79582 20.0724 5.98138 19.8002 6.10807 19.4997C6.23476 19.1991 6.30003 18.8763 6.30003 18.5501C6.30003 18.2239 6.23476 17.9011 6.10807 17.6005C5.98138 17.3 5.79582 17.0278 5.56233 16.8001H14C14.3462 16.8001 14.6845 16.9027 14.9723 17.095C15.2601 17.2873 15.4844 17.5607 15.6169 17.8805C15.7493 18.2003 15.7839 18.5521 15.7164 18.8916C15.6488 19.2311 15.4821 19.5429 15.2373 19.7876ZM16.5423 19.1591C16.5235 19.1591 16.5044 19.1582 16.4861 19.1566L16.3773 19.1467C16.4746 18.7549 16.4743 18.3452 16.3763 17.9536L16.4859 17.9436C16.5678 17.9362 16.6504 17.9454 16.7286 17.9707C16.8069 17.9961 16.8792 18.037 16.9412 18.091C17.0032 18.145 17.0536 18.2111 17.0894 18.2851C17.1252 18.3592 17.1456 18.4397 17.1494 18.5219C17.1532 18.604 17.1403 18.6861 17.1116 18.7631C17.0828 18.8402 17.0387 18.9106 16.982 18.9702C16.9253 19.0297 16.8571 19.0771 16.7815 19.1096C16.7059 19.1421 16.6246 19.1589 16.5423 19.1591L16.5423 19.1591Z" fill="black"/>
</svg>
