<?xml version="1.0" encoding="utf-8"?>
<!-- Generator: Adobe Illustrator 16.0.3, SVG Export Plug-In . SVG Version: 6.00 Build 0)  -->
<!DOCTYPE svg PUBLIC "-//W3C//DTD SVG 1.1//EN" "http://www.w3.org/Graphics/SVG/1.1/DTD/svg11.dtd">
<svg version="1.1" id="Capa_1" xmlns="http://www.w3.org/2000/svg" xmlns:xlink="http://www.w3.org/1999/xlink" x="0px" y="0px"
	 width="1265.34px" height="1080px" viewBox="0 0 1265.34 1080" enable-background="new 0 0 1265.34 1080" xml:space="preserve">
<path stroke="#000000" stroke-width="8" stroke-miterlimit="10" d="M759.469,83.616C710.936,35.101,651.554,10.5,582.974,10.5
	c-68.59,0-127.972,24.603-176.494,73.126c-48.529,48.527-73.135,107.906-73.135,176.485c0,68.59,24.606,127.975,73.135,176.503
	c48.545,48.521,107.927,73.125,176.494,73.125c68.59,0,127.975-24.606,176.502-73.134c48.522-48.53,73.126-107.911,73.126-176.494
	C832.602,191.535,807.997,132.154,759.469,83.616z M729.569,406.704c-40.877,40.876-88.828,60.746-146.595,60.746
	c-57.745,0-105.692-19.87-146.584-60.744c-40.882-40.873-60.755-88.824-60.755-146.595c0-57.757,19.873-105.705,60.753-146.585
	c40.869-40.87,88.817-60.737,146.585-60.737c57.764,0,105.715,19.867,146.593,60.737c40.876,40.885,60.746,88.833,60.746,146.585
	C790.313,317.87,770.443,365.822,729.569,406.704z"/>
<path stroke="#000000" stroke-width="8" stroke-miterlimit="10" d="M1027.654,831.2c-1.428-20.617-4.325-43.199-8.612-67.125
	c-4.305-23.989-9.839-46.62-16.448-67.262c-6.783-21.176-15.982-42.035-27.34-61.999c-11.68-20.562-25.357-38.402-40.655-53.032
	c-15.799-15.116-35.214-27.301-57.709-36.216c-22.433-8.875-47.375-13.377-74.129-13.377c-7.536,0-15.593,2.586-36.549,16.229
	c-12.828,8.366-27.674,17.938-44.117,28.443c-14.917,9.504-34.902,18.333-59.411,26.25c-24.139,7.811-48.677,11.771-72.928,11.771
	c-24.234,0-48.771-3.961-72.931-11.772c-24.524-7.922-44.498-16.751-59.363-26.239c-16.522-10.558-31.38-20.134-44.166-28.463
	c-20.935-13.642-28.99-16.228-36.53-16.228c-26.749,0-51.687,4.506-74.123,13.393c-22.486,8.903-41.903,21.087-57.713,36.214
	c-15.313,14.653-28.988,32.491-40.645,53.02c-11.376,20.026-20.573,40.89-27.335,62.014c-6.608,20.664-12.14,43.294-16.441,67.258
	c-4.28,23.817-7.177,46.404-8.61,67.135c-1.416,20.375-2.134,41.587-2.134,63.052c0,53.381,16.824,96.471,50.003,128.072
	c32.883,31.292,76.625,47.159,130.007,47.159h520.026c53.369,0,97.108-15.868,130.004-47.163
	c33.182-31.573,50.007-74.665,50.007-128.076C1029.804,872.724,1029.079,851.507,1027.654,831.2z M950.643,991.694
	c-25.108,23.897-58.097,35.515-100.851,35.515H329.775c-42.758,0-75.747-11.614-100.85-35.507
	c-24.811-23.618-36.872-55.489-36.872-97.436c0-20.559,0.683-40.789,2.028-60.129c1.327-19.188,4.036-40.248,8.05-62.589
	c3.989-22.203,9.066-43.007,15.091-61.831c5.882-18.363,13.898-36.537,23.826-54.019c9.65-16.967,20.792-31.554,33.122-43.358
	c11.838-11.334,26.657-20.57,44.046-27.451c16.037-6.347,34.012-9.829,53.424-10.348l2.765-0.074l2.442,1.298
	c3.521,1.87,8.018,4.587,13.366,8.073c13.484,8.788,28.458,18.439,44.502,28.687c17.938,11.438,41.189,21.808,69.103,30.819
	c28.381,9.177,57.295,13.829,85.944,13.829c28.653,0,57.564-4.649,85.933-13.82c27.946-9.029,51.213-19.407,69.154-30.849
	c17.303-11.059,31.85-20.437,44.462-28.664c5.402-3.517,9.896-6.231,13.367-8.075l2.442-1.298l2.765,0.074
	c19.414,0.519,37.394,4,53.44,10.348c17.37,6.877,32.185,16.111,44.035,27.448c12.335,11.801,23.479,26.393,33.124,43.368
	c9.938,17.475,17.958,35.646,23.834,54.003c6.051,18.901,11.131,39.705,15.101,61.836c4.02,22.461,6.728,43.522,8.05,62.604
	l0.025,0.375c1.337,19.15,2.019,39.247,2.027,59.737C987.513,936.22,975.45,968.088,950.643,991.694z"/>
</svg>
