<svg width="32" height="29" viewBox="0 0 32 29" fill="none" xmlns="http://www.w3.org/2000/svg">
<path d="M21.7596 15.2391L21.7596 15.239C23.4149 13.5838 24.2462 11.5772 24.2462 9.23763C24.2462 6.89908 23.415 4.8922 21.7594 3.23633C21.7594 3.23629 21.7593 3.23625 21.7593 3.2362M21.7596 15.2391L21.7593 3.2362M21.7596 15.2391C20.1043 16.8946 18.0972 17.7258 15.7579 17.7258C13.4193 17.7258 11.4124 16.8943 9.75674 15.2393L21.7596 15.2391ZM21.7593 3.2362C20.1037 1.58124 18.0968 0.75 15.7579 0.75C13.4184 0.75 11.4118 1.58128 9.75649 3.23654C8.10118 4.89185 7.26965 6.89875 7.26965 9.23763C7.26965 11.5771 8.10118 13.584 9.7567 15.2392L21.7593 3.2362Z" stroke="black" stroke-width="1.5"/>
<path d="M31.1743 29.5457L31.1742 29.5451C31.1246 28.829 31.0237 28.0409 30.8735 27.2022L31.1743 29.5457ZM31.1743 29.5457C31.2242 30.2577 31.2497 31.0025 31.25 31.7588L31.1743 29.5457ZM30.3013 24.8617L30.3013 24.8616C30.0698 24.1382 29.7539 23.4207 29.3619 22.7312C28.9614 22.0265 28.4968 21.4235 27.985 20.934L27.9849 20.9339C27.4656 20.437 26.8205 20.0285 26.0577 19.7261L30.3013 24.8617ZM30.3013 24.8617C30.53 25.576 30.7229 26.3634 30.8734 27.202L30.3013 24.8617ZM11.0978 20.8051L11.0973 20.8048C10.5139 20.432 9.98524 20.0913 9.52618 19.7923L9.52603 19.7922C8.80094 19.3195 8.58598 19.2771 8.4347 19.2771C7.52227 19.2771 6.68537 19.4315 5.94118 19.7262L5.94106 19.7263C5.17881 20.0281 4.53335 20.4366 4.01336 20.9342C3.5015 21.4243 3.03676 22.0271 2.63706 22.7309L2.63702 22.731C2.24524 23.4206 1.92937 24.1378 1.69759 24.8618L11.0978 20.8051ZM11.0978 20.8051C11.6727 21.1719 12.4185 21.4954 13.2928 21.7778L11.0978 20.8051ZM0.824882 29.5459L0.82487 29.5461C0.775207 30.2619 0.75 31.0063 0.75 31.7591C0.75 33.5905 1.32563 35.0026 2.40856 36.0342C3.48581 37.0593 4.92966 37.6055 6.76584 37.6055H25.2342C27.0703 37.6055 28.5136 37.0596 29.5911 36.0342L29.5912 36.0341C30.6741 35.0037 31.2499 33.5915 31.25 31.7591L0.824882 29.5459ZM0.824882 29.5459C0.87452 28.828 0.975434 28.0397 1.12564 27.2022L0.824882 29.5459ZM20.901 20.8051L20.9018 20.8045L13.293 21.7779C14.1847 22.0661 15.095 22.2142 15.9991 22.2142C16.9032 22.2142 17.8137 22.0661 18.7047 21.7779C19.58 21.4951 20.3257 21.1716 20.901 20.8051ZM23.5635 19.2774C24.4757 19.2774 25.3128 19.4315 26.0572 19.7259L22.4713 19.7927C22.4714 19.7926 22.4716 19.7925 22.4718 19.7924C23.1977 19.3198 23.4123 19.2774 23.5635 19.2774ZM1.12566 27.2022C1.27617 26.3636 1.46905 25.5765 1.69752 24.862L1.12566 27.2022Z" stroke="black" stroke-width="1.5"/>
</svg>
