<svg width="27" height="27" viewBox="0 0 27 27" fill="none" xmlns="http://www.w3.org/2000/svg">
<g clip-path="url(#clip0)">
<path d="M24.8932 5.98291H1.19923C0.538004 5.98291 0 6.52091 0 7.18224V10.7785C0 11.1189 0.175309 11.4389 0.457586 11.6135C1.19429 12.0692 1.63409 12.8561 1.63409 13.7185C1.63409 14.5809 1.19429 15.3678 0.457535 15.8235C0.175309 15.998 0 16.318 0 16.6585V20.2547C0 20.916 0.538004 21.4539 1.19923 21.4539H24.8932C25.5545 21.4539 26.0924 20.9159 26.0924 20.2547V7.18224C26.0924 6.52091 25.5544 5.98291 24.8932 5.98291ZM25.328 20.2547C25.328 20.4945 25.133 20.6895 24.8932 20.6895H6.07516V20.6632C6.07516 20.4521 5.90408 20.281 5.69294 20.281C5.48181 20.281 5.31073 20.4521 5.31073 20.6632V20.6895H1.19923C0.959458 20.6895 0.764427 20.4944 0.764427 20.2547V16.6585C0.764427 16.5808 0.800966 16.5099 0.859674 16.4735C1.82321 15.8776 2.39847 14.8477 2.39847 13.7184C2.39847 12.5892 1.82321 11.5593 0.859674 10.9634C0.800966 10.927 0.764427 10.8561 0.764427 10.7784V7.18214C0.764427 6.94237 0.959458 6.74734 1.19923 6.74734H5.31073V6.77363C5.31073 6.98472 5.48181 7.15585 5.69294 7.15585C5.90408 7.15585 6.07516 6.98472 6.07516 6.77363V6.74734H24.8932C25.133 6.74734 25.328 6.94242 25.328 7.18214V20.2547Z" fill="black"/>
<path d="M5.69276 12.9277C5.48163 12.9277 5.31055 13.0989 5.31055 13.31V14.127C5.31055 14.3381 5.48163 14.5092 5.69276 14.5092C5.90389 14.5092 6.07497 14.3381 6.07497 14.127V13.31C6.07497 13.0988 5.90389 12.9277 5.69276 12.9277Z" fill="black"/>
<path d="M5.69276 8.02588C5.48163 8.02588 5.31055 8.19701 5.31055 8.40809V9.22511C5.31055 9.43619 5.48163 9.60732 5.69276 9.60732C5.90389 9.60732 6.07497 9.43619 6.07497 9.22511V8.40809C6.07497 8.19696 5.90389 8.02588 5.69276 8.02588Z" fill="black"/>
<path d="M5.69276 10.4766C5.48163 10.4766 5.31055 10.6477 5.31055 10.8588V11.6758C5.31055 11.8869 5.48163 12.058 5.69276 12.058C5.90389 12.058 6.07497 11.8869 6.07497 11.6758V10.8588C6.07497 10.6477 5.90389 10.4766 5.69276 10.4766Z" fill="black"/>
<path d="M5.69276 15.3789C5.48163 15.3789 5.31055 15.55 5.31055 15.7611V16.5781C5.31055 16.7892 5.48163 16.9603 5.69276 16.9603C5.90389 16.9603 6.07497 16.7892 6.07497 16.5781V15.7611C6.07497 15.55 5.90389 15.3789 5.69276 15.3789Z" fill="black"/>
<path d="M5.69276 17.8301C5.48163 17.8301 5.31055 18.0012 5.31055 18.2123V19.0293C5.31055 19.2404 5.48163 19.4115 5.69276 19.4115C5.90389 19.4115 6.07497 19.2404 6.07497 19.0293V18.2123C6.07497 18.0012 5.90389 17.8301 5.69276 17.8301Z" fill="black"/>
<path d="M20.4651 12.4006C20.339 12.0125 19.9944 11.7439 19.5874 11.7163L17.3323 11.5634L16.4902 9.46604C16.3381 9.08739 15.9762 8.84277 15.5682 8.84277C15.1601 8.84277 14.7983 9.08744 14.6463 9.46604L13.804 11.5634L11.5489 11.7163C11.1419 11.7439 10.7974 12.0125 10.6713 12.4005C10.5452 12.7886 10.666 13.2084 10.9792 13.47L12.7137 14.9192L12.1622 17.1111C12.0627 17.5067 12.2117 17.9174 12.5417 18.1572C12.8718 18.3969 13.3084 18.4118 13.6539 18.1948L15.5682 16.993L17.4824 18.1948C17.6453 18.2971 17.8284 18.3478 18.011 18.3478C18.2158 18.3478 18.4201 18.284 18.5946 18.1572C18.9248 17.9173 19.0737 17.5067 18.9741 17.111L18.4227 14.9191L20.1572 13.47C20.4703 13.2084 20.5912 12.7886 20.4651 12.4006ZM19.667 12.8833L17.7484 14.4864C17.6359 14.5805 17.5871 14.7306 17.6228 14.8729L18.2328 17.2975C18.2669 17.4331 18.1829 17.5114 18.1453 17.5387C18.1076 17.5661 18.0071 17.6217 17.8888 17.5474L15.7714 16.2181C15.6471 16.1401 15.4892 16.1401 15.365 16.2181L13.2475 17.5474C13.129 17.6218 13.0286 17.5661 12.991 17.5387C12.9534 17.5114 12.8694 17.4331 12.9035 17.2976L13.5135 14.873C13.5493 14.7307 13.5005 14.5805 13.3879 14.4864L11.4693 12.8833C11.3621 12.7937 11.3839 12.681 11.3983 12.6367C11.4127 12.5924 11.4612 12.4884 11.6007 12.479L14.0951 12.3099C14.2415 12.2999 14.3692 12.2071 14.4239 12.0709L15.3556 9.75086C15.4076 9.62121 15.5216 9.6072 15.5681 9.6072C15.6147 9.6072 15.7286 9.62121 15.7807 9.75091L16.7123 12.0709C16.767 12.2071 16.8948 12.2999 17.0412 12.3099L19.5356 12.479C19.675 12.4885 19.7235 12.5925 19.738 12.6368C19.7524 12.6811 19.7743 12.7936 19.667 12.8833Z" fill="black"/>
</g>
<defs>
<clipPath id="clip0">
<rect width="26.0924" height="26.0924" fill="white" transform="translate(0 0.672363)"/>
</clipPath>
</defs>
</svg>
