<svg width="20" height="20" viewBox="0 0 20 20" fill="none" xmlns="http://www.w3.org/2000/svg">
<path d="M19.0808 3.88593H0.919219C0.412383 3.88593 0 4.27959 0 4.7635V7.39494C0 7.64407 0.134375 7.87821 0.350742 8.00597C0.91543 8.33938 1.25254 8.91517 1.25254 9.54623C1.25254 10.1773 0.91543 10.7531 0.350703 11.0865C0.134375 11.2142 0 11.4483 0 11.6975V14.3289C0 14.8128 0.412383 15.2064 0.919219 15.2064H19.0808C19.5877 15.2064 20 14.8127 20 14.3289V4.7635C20 4.27959 19.5876 3.88593 19.0808 3.88593ZM19.4141 14.3289C19.4141 14.5044 19.2646 14.6471 19.0808 14.6471H4.65664V14.6278C4.65664 14.4734 4.52551 14.3482 4.36367 14.3482C4.20184 14.3482 4.0707 14.4734 4.0707 14.6278V14.6471H0.919219C0.73543 14.6471 0.585938 14.5043 0.585938 14.3289V11.6975C0.585938 11.6406 0.613945 11.5887 0.658945 11.5622C1.3975 11.1261 1.83844 10.3725 1.83844 9.54619C1.83844 8.71992 1.3975 7.96629 0.658945 7.53023C0.613945 7.5036 0.585938 7.45177 0.585938 7.39486V4.76343C0.585938 4.58798 0.73543 4.44527 0.919219 4.44527H4.0707V4.46451C4.0707 4.61897 4.20184 4.74419 4.36367 4.74419C4.52551 4.74419 4.65664 4.61897 4.65664 4.46451V4.44527H19.0808C19.2646 4.44527 19.4141 4.58802 19.4141 4.76343V14.3289Z" fill="#F8744E"/>
<path d="M4.36328 8.96765C4.20145 8.96765 4.07031 9.09287 4.07031 9.24733V9.84516C4.07031 9.99962 4.20145 10.1248 4.36328 10.1248C4.52512 10.1248 4.65625 9.99962 4.65625 9.84516V9.24733C4.65625 9.09283 4.52512 8.96765 4.36328 8.96765Z" fill="#F8744E"/>
<path d="M4.36328 5.38062C4.20145 5.38062 4.07031 5.50583 4.07031 5.66029V6.25812C4.07031 6.41257 4.20145 6.53779 4.36328 6.53779C4.52512 6.53779 4.65625 6.41257 4.65625 6.25812V5.66029C4.65625 5.5058 4.52512 5.38062 4.36328 5.38062Z" fill="#F8744E"/>
<path d="M4.36328 7.17413C4.20145 7.17413 4.07031 7.29935 4.07031 7.45381V8.05164C4.07031 8.20609 4.20145 8.33131 4.36328 8.33131C4.52512 8.33131 4.65625 8.20609 4.65625 8.05164V7.45381C4.65625 7.29935 4.52512 7.17413 4.36328 7.17413Z" fill="#F8744E"/>
<path d="M4.36328 10.7612C4.20145 10.7612 4.07031 10.8864 4.07031 11.0408V11.6387C4.07031 11.7931 4.20145 11.9183 4.36328 11.9183C4.52512 11.9183 4.65625 11.7931 4.65625 11.6387V11.0408C4.65625 10.8864 4.52512 10.7612 4.36328 10.7612Z" fill="#F8744E"/>
<path d="M4.36328 12.5546C4.20145 12.5546 4.07031 12.6798 4.07031 12.8343V13.4321C4.07031 13.5866 4.20145 13.7118 4.36328 13.7118C4.52512 13.7118 4.65625 13.5866 4.65625 13.4321V12.8343C4.65625 12.6798 4.52512 12.5546 4.36328 12.5546Z" fill="#F8744E"/>
<path d="M15.6873 8.58177C15.5907 8.29781 15.3266 8.10125 15.0146 8.08108L13.286 7.96921L12.6405 6.43451C12.5239 6.15745 12.2466 5.97845 11.9338 5.97845C11.621 5.97845 11.3437 6.15748 11.2271 6.43451L10.5816 7.96921L8.85304 8.08108C8.54104 8.10129 8.27698 8.29781 8.18034 8.58173C8.08366 8.8657 8.17628 9.17285 8.41632 9.36426L9.74581 10.4247L9.32311 12.0285C9.24682 12.3181 9.361 12.6185 9.61401 12.794C9.86702 12.9694 10.2016 12.9803 10.4665 12.8216L11.9338 11.9422L13.4011 12.8215C13.5259 12.8964 13.6662 12.9335 13.8062 12.9335C13.9632 12.9335 14.1198 12.8868 14.2536 12.794C14.5066 12.6185 14.6208 12.318 14.5445 12.0285L14.1218 10.4246L15.4513 9.36426C15.6913 9.17285 15.7839 8.8657 15.6873 8.58177ZM15.0756 8.93502L13.605 10.108C13.5187 10.1768 13.4813 10.2867 13.5087 10.3909L13.9762 12.165C14.0024 12.2642 13.938 12.3215 13.9092 12.3415C13.8803 12.3615 13.8033 12.4022 13.7126 12.3478L12.0896 11.3751C11.9943 11.3181 11.8733 11.3181 11.778 11.3751L10.1549 12.3478C10.0642 12.4022 9.98721 12.3615 9.95839 12.3415C9.92952 12.3215 9.86518 12.2642 9.89132 12.165L10.3589 10.3909C10.3863 10.2868 10.3489 10.1768 10.2626 10.108L8.79198 8.93502C8.70979 8.86943 8.72655 8.78698 8.73757 8.75457C8.74858 8.72217 8.78577 8.64606 8.89268 8.63916L10.8047 8.5154C10.9169 8.50812 11.0148 8.44018 11.0567 8.34058L11.7708 6.64292C11.8107 6.54806 11.8981 6.5378 11.9337 6.5378C11.9694 6.5378 12.0568 6.54806 12.0967 6.64296L12.8108 8.34058C12.8527 8.44018 12.9507 8.50812 13.0628 8.5154L14.9748 8.63916C15.0817 8.6461 15.1189 8.72221 15.13 8.75461C15.141 8.78701 15.1578 8.86939 15.0756 8.93502Z" fill="#F8744E"/>
</svg>
