<?xml version="1.0" encoding="utf-8"?>
<!-- Generator: Adobe Illustrator 16.0.3, SVG Export Plug-In . SVG Version: 6.00 Build 0)  -->
<!DOCTYPE svg PUBLIC "-//W3C//DTD SVG 1.1//EN" "http://www.w3.org/Graphics/SVG/1.1/DTD/svg11.dtd">
<svg version="1.1" id="Capa_1" xmlns="http://www.w3.org/2000/svg" xmlns:xlink="http://www.w3.org/1999/xlink" x="0px" y="0px"
	 width="1265.34px" height="1080px" viewBox="0 0 1265.34 1080" enable-background="new 0 0 1265.34 1080" xml:space="preserve">
<g>
	<g>
		<path d="M1123.032,219.816H142.307c-27.369,0-49.638,22.269-49.638,49.643V418.31c0,14.093,7.257,27.338,18.94,34.564
			c30.493,18.859,48.697,51.431,48.697,87.128c0,35.696-18.204,68.268-48.699,87.127c-11.682,7.225-18.938,20.47-18.938,34.563
			v148.853c0,27.371,22.269,49.638,49.638,49.638h980.725c27.372,0,49.638-22.269,49.638-49.638V269.458
			C1172.67,242.084,1150.401,219.816,1123.032,219.816z M1141.029,810.544c0,9.925-8.072,17.997-17.997,17.997H344.129v-1.089
			c0-8.736-7.081-15.82-15.82-15.82s-15.82,7.084-15.82,15.82v1.089H142.307c-9.924,0-17.997-8.075-17.997-17.997V661.692
			c0-3.217,1.513-6.151,3.942-7.655c39.882-24.667,63.693-67.297,63.693-114.036c0-46.74-23.812-89.37-63.693-114.037
			c-2.43-1.507-3.942-4.438-3.942-7.657V269.453c0-9.925,8.073-17.997,17.997-17.997h170.181v1.089c0,8.736,7.081,15.82,15.82,15.82
			s15.82-7.084,15.82-15.82v-1.089h778.903c9.925,0,17.997,8.075,17.997,17.997V810.544z"/>
	</g>
</g>
<g>
	<g>
		<path d="M328.308,507.273c-8.739,0-15.82,7.083-15.82,15.82v33.817c0,8.737,7.081,15.82,15.82,15.82s15.82-7.083,15.82-15.82
			v-33.817C344.129,514.354,337.048,507.273,328.308,507.273z"/>
	</g>
</g>
<g>
	<g>
		<path d="M328.308,304.365c-8.739,0-15.82,7.084-15.82,15.82v33.817c0,8.737,7.081,15.82,15.82,15.82s15.82-7.083,15.82-15.82
			v-33.817C344.129,311.447,337.048,304.365,328.308,304.365z"/>
	</g>
</g>
<g>
	<g>
		<path d="M328.308,405.816c-8.739,0-15.82,7.084-15.82,15.82v33.818c0,8.736,7.081,15.82,15.82,15.82s15.82-7.084,15.82-15.82
			v-33.818C344.129,412.9,337.048,405.816,328.308,405.816z"/>
	</g>
</g>
<g>
	<g>
		<path d="M328.308,608.725c-8.739,0-15.82,7.084-15.82,15.82v33.818c0,8.736,7.081,15.82,15.82,15.82s15.82-7.084,15.82-15.82
			v-33.818C344.129,615.807,337.048,608.725,328.308,608.725z"/>
	</g>
</g>
<g>
	<g>
		<path d="M328.308,710.178c-8.739,0-15.82,7.083-15.82,15.82v33.817c0,8.737,7.081,15.82,15.82,15.82s15.82-7.083,15.82-15.82
			v-33.817C344.129,717.261,337.048,710.178,328.308,710.178z"/>
	</g>
</g>
<g>
	<g>
		<path d="M939.732,485.445c-5.219-16.063-19.48-27.181-36.328-28.322l-93.34-6.328l-34.859-86.813
			c-6.294-15.673-21.273-25.798-38.163-25.798s-31.866,10.127-38.158,25.798l-34.861,86.813l-93.34,6.328
			c-16.848,1.144-31.107,12.26-36.326,28.32c-5.221,16.063-0.219,33.438,12.743,44.266l71.792,59.984l-22.825,90.726
			c-4.119,16.378,2.046,33.375,15.709,43.3c13.662,9.925,31.73,10.538,46.034,1.559l79.234-49.743l79.232,49.741
			c6.742,4.233,14.319,6.334,21.879,6.334c8.478,0,16.932-2.643,24.156-7.891c13.665-9.927,19.828-26.924,15.709-43.302
			l-22.823-90.726l71.79-59.982C939.949,518.881,944.951,501.506,939.732,485.445z M906.699,505.427l-79.411,66.353
			c-4.66,3.894-6.681,10.11-5.2,16l25.247,100.357c1.411,5.611-2.063,8.851-3.622,9.983c-1.561,1.133-5.718,3.433-10.614,0.358
			l-87.645-55.022c-5.143-3.228-11.68-3.228-16.822,0l-87.646,55.022c-4.902,3.078-9.058,0.774-10.614-0.358
			c-1.559-1.133-5.033-4.372-3.622-9.981l25.25-100.357c1.48-5.89-0.538-12.108-5.2-16l-79.414-66.354
			c-4.438-3.71-3.533-8.374-2.938-10.207c0.595-1.833,2.603-6.139,8.376-6.528l103.247-7.001c6.059-0.412,11.347-4.255,13.61-9.889
			l38.563-96.032c2.153-5.366,6.87-5.946,8.796-5.946c1.928,0,6.645,0.58,8.801,5.949l38.562,96.029
			c2.263,5.634,7.551,9.477,13.609,9.889l103.248,7.001c5.771,0.392,7.779,4.697,8.378,6.53
			C910.234,497.055,911.139,501.715,906.699,505.427z"/>
	</g>
</g>
</svg>
