<svg width="22" height="22" viewBox="0 0 22 22" fill="none" xmlns="http://www.w3.org/2000/svg">
<path d="M11 3.58725C11.263 3.58725 11.4782 3.37203 11.4782 3.10899V2.86986C11.4782 2.60682 11.263 2.3916 11 2.3916C10.7369 2.3916 10.5217 2.60682 10.5217 2.86986V3.10899C10.5217 3.37203 10.7369 3.58725 11 3.58725Z" fill="black"/>
<path d="M11 18.4131C10.7369 18.4131 10.5217 18.6283 10.5217 18.8913V19.1305C10.5217 19.3935 10.7369 19.6087 11 19.6087C11.263 19.6087 11.4782 19.3935 11.4782 19.1305V18.8913C11.4782 18.6283 11.263 18.4131 11 18.4131Z" fill="black"/>
<path d="M3.1085 10.5215H2.86937C2.60633 10.5215 2.39111 10.7367 2.39111 10.9997C2.39111 11.2628 2.60633 11.478 2.86937 11.478H3.1085C3.37154 11.478 3.58676 11.2628 3.58676 10.9997C3.58676 10.7367 3.37154 10.5215 3.1085 10.5215Z" fill="black"/>
<path d="M19.1302 10.5215H18.8911C18.6281 10.5215 18.4128 10.7367 18.4128 10.9997C18.4128 11.2628 18.6281 11.478 18.8911 11.478H19.1302C19.3933 11.478 19.6085 11.2628 19.6085 10.9997C19.6085 10.7367 19.3933 10.5215 19.1302 10.5215Z" fill="black"/>
<path d="M5.59576 4.92619C5.40446 4.73489 5.1175 4.73489 4.92619 4.92619C4.73489 5.1175 4.73489 5.40445 4.92619 5.59576L5.09359 5.76315C5.18924 5.8588 5.3088 5.90663 5.42837 5.90663C5.54794 5.90663 5.6675 5.8588 5.76315 5.76315C5.95446 5.57184 5.95446 5.28489 5.76315 5.09358L5.59576 4.92619Z" fill="black"/>
<path d="M5.09359 16.2367L4.92619 16.4041C4.73489 16.5954 4.73489 16.8824 4.92619 17.0737C5.02185 17.1694 5.14141 17.2172 5.26098 17.2172C5.38054 17.2172 5.50011 17.1694 5.59576 17.0737L5.76315 16.9063C5.95446 16.715 5.95446 16.428 5.76315 16.2367C5.57185 16.0454 5.28489 16.0454 5.09359 16.2367Z" fill="black"/>
<path d="M16.4044 4.92619L16.237 5.09358C16.0457 5.28489 16.0457 5.57184 16.237 5.76315C16.3326 5.8588 16.4522 5.90663 16.5718 5.90663C16.6913 5.90663 16.8109 5.8588 16.9066 5.76315L17.074 5.59576C17.2653 5.40445 17.2653 5.1175 17.074 4.92619C16.8826 4.73489 16.5957 4.73489 16.4044 4.92619Z" fill="black"/>
<path d="M11.4782 10.809V6.45678C11.4782 6.19373 11.263 5.97852 11 5.97852C10.7369 5.97852 10.5217 6.19373 10.5217 6.45678V11.0003C10.5217 11.1198 10.5696 11.2394 10.6652 11.335L15.9021 16.572C15.9978 16.6676 16.1174 16.7155 16.2369 16.7155C16.3565 16.7155 16.4761 16.6676 16.5717 16.572C16.763 16.3807 16.763 16.0937 16.5717 15.9024L11.4782 10.809Z" fill="black"/>
<path d="M11 0C4.92609 0 0 4.92609 0 11C0 17.0739 4.92609 22 11 22C17.0739 22 22 17.0739 22 11C22 4.92609 17.0739 0 11 0ZM11 21.0435C5.45217 21.0435 0.956522 16.5478 0.956522 11C0.956522 5.45217 5.45217 0.956522 11 0.956522C16.5478 0.956522 21.0435 5.45217 21.0435 11C21.0435 16.5478 16.5478 21.0435 11 21.0435Z" fill="black"/>
</svg>
