<svg width="30" height="25" viewBox="0 0 30 25" fill="none" xmlns="http://www.w3.org/2000/svg">
<path d="M28.6212 23.4848H28.1213V10.4475C29.2501 9.72111 30 8.45449 30 7.01519C30 6.93873 29.98 6.86355 29.9421 6.79717L26.455 0.694746C26.2101 0.26625 25.7514 0 25.2578 0H4.74217C4.24863 0 3.7899 0.266191 3.54498 0.694746L0.0578906 6.79717C0.0199805 6.86355 0 6.93879 0 7.01519C0 8.45449 0.749883 9.72111 1.87875 10.4475V23.4848H1.37883C1.13613 23.4848 0.939375 23.6815 0.939375 23.9242C0.939375 24.1669 1.13613 24.3637 1.37883 24.3637H28.6212C28.8639 24.3637 29.0606 24.1669 29.0606 23.9242C29.0606 23.6815 28.8639 23.4848 28.6212 23.4848ZM0.909199 7.45465H2.31803C2.56072 7.45465 2.75748 7.25789 2.75748 7.01519C2.75748 6.7725 2.56072 6.57574 2.31803 6.57574H1.19672L4.30811 1.1308C4.39693 0.97541 4.56322 0.878906 4.74217 0.878906H25.2578C25.4368 0.878906 25.6031 0.97541 25.6919 1.1308L28.8032 6.57574H27.6817C27.4389 6.57574 27.2422 6.7725 27.2422 7.01519C27.2422 7.25789 27.4389 7.45465 27.6817 7.45465H29.0907C28.8759 9.0123 27.5361 10.2159 25.9204 10.2159C24.3046 10.2159 22.9655 9.01219 22.7506 7.45465H25.8031C26.0459 7.45465 26.2426 7.25789 26.2426 7.01519C26.2426 6.7725 26.0459 6.57574 25.8031 6.57574H4.19713C3.95443 6.57574 3.75768 6.7725 3.75768 7.01519C3.75768 7.25789 3.95443 7.45465 4.19713 7.45465H7.24934C7.03441 9.01219 5.69525 10.2159 4.07959 10.2159C2.46381 10.2159 1.12406 9.0123 0.909199 7.45465ZM21.8099 7.45465C21.595 9.01219 20.2558 10.2159 18.6401 10.2159C17.0244 10.2159 15.6853 9.01219 15.4704 7.45465H21.8099ZM14.5296 7.45465C14.3147 9.01219 12.9755 10.2159 11.3599 10.2159C9.7442 10.2159 8.40504 9.01219 8.19012 7.45465H14.5296ZM24.8938 23.4848H20.1364V22.0153H24.8938V23.4848ZM24.8938 21.1363H20.1364V13.091H24.8938V21.1363ZM27.2423 23.4848H25.7728V12.6516C25.7728 12.4089 25.5761 12.2121 25.3333 12.2121H19.697C19.4542 12.2121 19.2575 12.4089 19.2575 12.6516V23.4848H2.75766V10.8737C3.17256 11.0163 3.61693 11.0948 4.07959 11.0948C5.66719 11.0948 7.04584 10.1833 7.71973 8.85609C8.39361 10.1832 9.77227 11.0948 11.3599 11.0948C12.9475 11.0948 14.3261 10.1833 15 8.85609C15.6739 10.1832 17.0525 11.0948 18.6401 11.0948C20.2277 11.0948 21.6064 10.1833 22.2803 8.85609C22.9542 10.1832 24.3328 11.0948 25.9204 11.0948C26.3831 11.0948 26.8274 11.0163 27.2423 10.8738V23.4848Z" fill="white"/>
<path d="M17.3488 12.2122H4.66699C4.4243 12.2122 4.22754 12.4089 4.22754 12.6516V21.5758C4.22754 21.8185 4.4243 22.0153 4.66699 22.0153H17.3488C17.5915 22.0153 17.7882 21.8185 17.7882 21.5758V12.6516C17.7882 12.4089 17.5915 12.2122 17.3488 12.2122ZM16.9093 21.1364H5.10645V13.0911H16.9093V21.1364Z" fill="white"/>
</svg>
