<svg width="23" height="19" viewBox="0 0 23 19" fill="none" xmlns="http://www.w3.org/2000/svg">
<path d="M21.9429 18.005H21.5596V8.00975C22.4251 7.45285 23 6.48178 23 5.37832C23 5.31969 22.9847 5.26206 22.9556 5.21116L20.2822 0.532639C20.0944 0.204125 19.7427 0 19.3643 0H3.63566C3.25729 0 2.90559 0.20408 2.71782 0.532639L0.0443828 5.21116C0.0153184 5.26206 0 5.31974 0 5.37832C0 6.48178 0.57491 7.45285 1.44037 8.00975V18.005H1.0571C0.871035 18.005 0.720187 18.1558 0.720187 18.3419C0.720187 18.528 0.871035 18.6788 1.0571 18.6788H21.9429C22.129 18.6788 22.2798 18.528 22.2798 18.3419C22.2798 18.1558 22.129 18.005 21.9429 18.005ZM0.697053 5.71523H1.77715C1.96322 5.71523 2.11407 5.56438 2.11407 5.37832C2.11407 5.19225 1.96322 5.0414 1.77715 5.0414H0.917484L3.30288 0.866947C3.37098 0.747814 3.49847 0.673828 3.63566 0.673828H19.3643C19.5015 0.673828 19.6291 0.747814 19.6971 0.866947L22.0825 5.0414H21.2226C21.0365 5.0414 20.8857 5.19225 20.8857 5.37832C20.8857 5.56438 21.0365 5.71523 21.2226 5.71523H22.3029C22.1382 6.90943 21.111 7.83217 19.8723 7.83217C18.6335 7.83217 17.6069 6.90934 17.4421 5.71523H19.7824C19.9685 5.71523 20.1193 5.56438 20.1193 5.37832C20.1193 5.19225 19.9685 5.0414 19.7824 5.0414H3.2178C3.03173 5.0414 2.88088 5.19225 2.88088 5.37832C2.88088 5.56438 3.03173 5.71523 3.2178 5.71523H5.55782C5.39305 6.90934 4.36636 7.83217 3.12769 7.83217C1.88892 7.83217 0.861781 6.90943 0.697053 5.71523ZM16.7209 5.71523C16.5561 6.90934 15.5294 7.83217 14.2908 7.83217C13.0521 7.83217 12.0254 6.90934 11.8606 5.71523H16.7209ZM11.1394 5.71523C10.9746 6.90934 9.9479 7.83217 8.70923 7.83217C7.47055 7.83217 6.44386 6.90934 6.27909 5.71523H11.1394ZM19.0852 18.005H15.4379V16.8784H19.0852V18.005ZM19.0852 16.2045H15.4379V10.0364H19.0852V16.2045ZM20.8858 18.005H19.7591V9.69953C19.7591 9.51346 19.6083 9.36262 19.4222 9.36262H15.101C14.9149 9.36262 14.7641 9.51346 14.7641 9.69953V18.005H2.1142V8.33651C2.43229 8.44581 2.77298 8.506 3.12769 8.506C4.34484 8.506 5.40181 7.8072 5.91846 6.78967C6.4351 7.80715 7.49207 8.506 8.70923 8.506C9.92639 8.506 10.9834 7.8072 11.5 6.78967C12.0166 7.80715 13.0736 8.506 14.2908 8.506C15.5079 8.506 16.5649 7.8072 17.0815 6.78967C17.5982 7.80715 18.6552 8.506 19.8723 8.506C20.227 8.506 20.5677 8.44581 20.8858 8.33656V18.005Z" fill="black"/>
<path d="M13.3003 9.36279H3.57764C3.39157 9.36279 3.24072 9.51364 3.24072 9.69971V16.5416C3.24072 16.7277 3.39157 16.8785 3.57764 16.8785H13.3003C13.4865 16.8785 13.6373 16.7277 13.6373 16.5416V9.69971C13.6373 9.5136 13.4865 9.36279 13.3003 9.36279ZM12.9634 16.2047H3.91455V10.0366H12.9634V16.2047Z" fill="black"/>
</svg>
