<svg width="22" height="22" viewBox="0 0 22 22" fill="none" xmlns="http://www.w3.org/2000/svg">
<path d="M19.365 17.1625L15.9202 14.1213C15.4826 13.738 14.824 13.755 14.4069 14.1606L13.1107 15.4295C12.9435 15.5973 12.6783 15.6165 12.4886 15.4746L12.2945 15.3304C11.6502 14.8565 10.8486 14.2667 9.34136 12.2845C7.83414 10.3023 7.47875 9.37156 7.19387 8.62543L7.19386 8.62541L7.1073 8.39986C7.01964 8.17903 7.10804 7.92737 7.31452 7.80983L8.88225 6.8993C9.3842 6.60548 9.57653 5.97546 9.32423 5.45138L7.31277 1.31966C7.05378 0.785698 6.42062 0.549933 5.87548 0.784425L4.16209 1.52079C3.6246 1.74578 3.19503 2.17009 2.96346 2.7048C2.11059 4.70583 2.05224 8.3514 6.61804 14.3544C10.2501 19.1288 13.2257 20.6844 15.3765 20.9767C15.8711 21.0461 16.3729 21.0487 16.8683 20.9844C17.4455 20.9041 17.9691 20.6033 18.3292 20.1451L19.4969 18.6913C19.8688 18.2284 19.8106 17.5549 19.365 17.1625ZM19.0029 18.2982L17.8373 19.7533C17.5785 20.0841 17.2017 20.302 16.7859 20.3614C14.7956 20.6275 11.5027 19.7356 7.1193 13.973C2.73587 8.21051 2.7551 4.79915 3.54267 2.95159C3.71104 2.56617 4.02197 2.26076 4.41033 2.09933L6.12355 1.36421C6.36011 1.26234 6.63492 1.36465 6.7473 1.59635L7.83961 3.84329L8.75665 5.72746C8.86624 5.9548 8.78292 6.22823 8.56517 6.35585L6.99711 7.26634C6.5207 7.53771 6.31631 8.11811 6.51762 8.62815L6.60242 8.84807L6.60275 8.84894C6.90195 9.63406 7.27423 10.611 8.83706 12.6651C10.3999 14.7193 11.2417 15.3388 11.9181 15.8366L11.9188 15.8371L12.1084 15.9779C12.5462 16.308 13.16 16.2659 13.5487 15.8791L14.8445 14.6108C15.0256 14.4351 15.3113 14.4278 15.5012 14.5939L18.9457 17.6351C19.1392 17.8052 19.1644 18.0975 19.0029 18.2982Z" fill="black"/>
<path d="M19.365 17.1625L15.9202 14.1213C15.4826 13.738 14.824 13.755 14.4069 14.1606L13.1107 15.4295C12.9435 15.5973 12.6783 15.6165 12.4886 15.4746L12.2945 15.3304C11.6502 14.8565 10.8486 14.2667 9.34136 12.2845C7.83414 10.3023 7.47875 9.37156 7.19387 8.62543L7.19386 8.62541L7.1073 8.39986C7.01964 8.17903 7.10804 7.92737 7.31452 7.80983L8.88225 6.8993C9.3842 6.60548 9.57653 5.97546 9.32423 5.45138L7.31277 1.31966C7.05378 0.785698 6.42062 0.549933 5.87548 0.784425L4.16209 1.52079C3.6246 1.74578 3.19503 2.17009 2.96346 2.7048C2.11059 4.70583 2.05224 8.3514 6.61804 14.3544C10.2501 19.1288 13.2257 20.6844 15.3765 20.9767C15.8711 21.0461 16.3729 21.0487 16.8683 20.9844C17.4455 20.9041 17.9691 20.6033 18.3292 20.1451L19.4969 18.6913C19.8688 18.2284 19.8106 17.5549 19.365 17.1625ZM19.0029 18.2982L17.8373 19.7533C17.5785 20.0841 17.2017 20.302 16.7859 20.3614C14.7956 20.6275 11.5027 19.7356 7.1193 13.973C2.73587 8.21051 2.7551 4.79915 3.54267 2.95159C3.71104 2.56617 4.02197 2.26076 4.41033 2.09933L6.12355 1.36421C6.36011 1.26234 6.63492 1.36465 6.7473 1.59635L7.83961 3.84329L8.75665 5.72746C8.86624 5.9548 8.78292 6.22823 8.56517 6.35585L6.99711 7.26634C6.5207 7.53771 6.31631 8.11811 6.51762 8.62815L6.60242 8.84807L6.60275 8.84894C6.90195 9.63406 7.27423 10.611 8.83706 12.6651C10.3999 14.7193 11.2417 15.3388 11.9181 15.8366L11.9188 15.8371L12.1084 15.9779C12.5462 16.308 13.16 16.2659 13.5487 15.8791L14.8445 14.6108C15.0256 14.4351 15.3113 14.4278 15.5012 14.5939L18.9457 17.6351C19.1392 17.8052 19.1644 18.0975 19.0029 18.2982Z" stroke="black"/>
</svg>
